<?xml version="1.0" encoding="UTF-8"?>
<!-- Created with Inkscape (http://www.inkscape.org/) -->
<svg width="544" height="480" version="1.1" viewBox="0 0 544 480" xmlns="http://www.w3.org/2000/svg" xmlns:xlink="http://www.w3.org/1999/xlink"><defs><filter id="filter19956" x="0" y="0" width="1" height="1" color-interpolation-filters="sRGB"><feTurbulence baseFrequency="0.04" numOctaves="5" result="result4" type="fractalNoise"/><feDisplacementMap in="SourceGraphic" in2="result4" result="result3" scale="10" xChannelSelector="R" yChannelSelector="G"/><feDiffuseLighting lighting-color="#e9e6d7" in="result4" result="result1" surfaceScale="2"><feDistantLight azimuth="235" elevation="40"/></feDiffuseLighting><feComposite in="result3" in2="result1" operator="in" result="result2"/><feComposite in2="result1" k1="1.7" operator="arithmetic" result="result5"/><feBlend in="result5" in2="result3" result="fbSourceGraphic"/><feColorMatrix in="fbSourceGraphic" result="fbSourceGraphicAlpha" values="0 0 0 -1 0 0 0 0 -1 0 0 0 0 -1 0 0 0 0 1 0"/><feTurbulence baseFrequency="0.098367739946414262" result="result91" type="fractalNoise"/><feDisplacementMap in="fbSourceGraphic" in2="result91" result="result5" scale="100" xChannelSelector="R"/><feComposite in="fbSourceGraphic" in2="result5" operator="atop"/></filter><radialGradient id="radialGradient23425" cx="274.53" cy="161.14" r="205.76" gradientTransform="matrix(.99281 -.01232 .0077651 .62574 .72151 63.691)" gradientUnits="userSpaceOnUse"><stop stop-color="#fbdda1" offset="0"/><stop stop-color="#d4a450" offset="1"/></radialGradient></defs><g transform="translate(-2.5344)"><g transform="translate(-2.2363e-8 5.1597)"><rect x="68.776" y="29.36" width="411.52" height="263.56" ry="56.92" fill="url(#radialGradient23425)" filter="url(#filter19956)" stroke-width="0" style="paint-order:stroke fill markers"/><g aria-label="wms mlfhda"><path d="m255.61 80.42c-0.2871 0-0.55416 0.05061-0.80664 0.13477l-0.25391 0.08594-0.18945 0.18945c-0.43931 0.43932-0.75585 0.84638-1.0859 1.2578-0.90816-0.2807-1.8485-0.54688-3.1152-0.54688-2.1186 0-4.5024 0.23418-7.1328 0.68945-6.8221 1.1537-12.594 2.6939-17.273 4.627-5.1352 2.1568-8.1621 4.8359-8.1621 8.2129 0 2.3649 1.3474 4.1292 3.7012 5.2773 1.628 0.78775 3.2636 1.1912 4.9023 1.2148-0.33943 0.33241-0.79824 0.67982-1.1191 1.0098-4.869 5.0719-7.4844 9.8161-7.4844 14.15 0 4.9767 2.9611 8.552 8.4258 10.621 3.3319 1.2494 7.0273 1.8633 11.076 1.8633v-2.2695l0.13867 2.2598c1e-3 -1.5e-4 4e-3 -2e-3 6e-3 -2e-3 2e-3 -2.4e-4 5e-3 3.1e-4 8e-3 0 4e-3 -3.3e-4 7e-3 4.1e-4 0.0117 0 5e-3 -4.5e-4 0.01-1e-3 0.0156-2e-3 6e-3 -5.8e-4 0.0139-1e-3 0.0215-2e-3 8e-3 -7.5e-4 0.0176-1e-3 0.0273-2e-3 0.0655-6e-3 0.1565-0.0136 0.27539-0.0234 0.2948-0.0243 0.75257-0.0604 1.3652-0.10938 6e-3 -4.9e-4 7e-3 -1e-3 0.0137-2e-3 0.27506-0.0109 0.38108-7e-3 0.625-0.0156-3.4814 4.971-6.2001 9.8152-7.832 14.482-6.4e-4 2e-3 -1e-3 4e-3 -2e-3 6e-3 -0.59737 1.5966-0.98658 2.9294-1.0977 3.8125-0.25531 1.8912-0.38476 3.8067-0.38476 5.7461 0 2.8186 0.30673 5.3871 0.93359 7.6855 1.0713 4.0174 3.1249 6.4414 6.3223 6.4414 2.6482 0 4.9448-1.8911 6.9375-5.0898 1.4576-2.3427 2.5459-4.9138 3.2695-7.7051 1.2135-4.6518 1.9002-9.1665 2.0527-13.539l-2e-3 0.0469c0.0494-0.64212 0.0978-1.2026 0.14648-1.6894l6e-3 -0.0566v-0.0566c0-1.187 0.022-1.9996 0.0684-2.5098l6e-3 -0.0527v-0.66993l-0.29883-7.7441c0-0.20954 0.0973-0.64946 0.17188-1.0352 1.6576-0.59584 3.0135-1.0915 3.4453-1.3066 1.54-0.71985 3.0055-1.5652 4.3945-2.541 2.0304-1.338 3.7296-3.0983 5.1016-5.2617 1.3711-2.1621 2.1191-4.2626 2.1191-6.2812 0-2.2859-1.0933-3.8223-3.2988-3.8223-1.6887 0-3.9669 1.3983-6.8379 3.7656-1.2475 1.0154-2.1845 2.0418-3.2402 3.0645l1.5254-10.896c3.0923-0.36155 5.7155-0.89675 7.6289-1.6621 2.2741-0.90963 3.7012-2.362 3.7012-4.4863 0-1.6621-0.85936-3.1562-2.3066-4.4922l-6e-3 -0.0039-4e-3 -0.0039c-1.4925-1.3481-2.2028-2.3205-2.3555-2.832-0.7825-3.5272-1.2685-6.0545-1.4609-7.5938l-0.01-0.08203-0.0234-0.08008c-0.36379-1.3096-1.2794-2.1758-2.6602-2.1758zm-2.2676 45.385c-6e-3 3e-3 -0.01 7e-3 -0.0156 0.01l0.0273-0.0137c-1e-3 7.2e-4 -0.0103 3e-3 -0.0117 4e-3zm-8.5625-38.225c-1.7937 1.1315-3.5872 2.2632-5.3809 3.3945l-0.0312 0.0196c-2.083 1.4122-3.8454 2.7829-5.6445 4.1582 0.44224-1.1993 0.69531-2.4404 0.69531-3.7402 0-0.65747-0.19176-1.1796-0.30859-1.7559 1.0848-0.35168 2.874-0.8048 6.3398-1.4629 2.0964-0.41441 2.8806-0.40669 4.3301-0.61328zm5.8164 2.5176c-0.30163 1.2699-0.63005 2.5734-0.875 3.7676-0.40179 1.9085-0.80113 4.0403-1.2012 6.3906l-4e-3 0.02c-0.39826 2.6385-0.64925 4.3103-0.75 5.0156l-2.2148 15.723c-2e-3 1e-3 -2e-3 3e-3 -4e-3 4e-3 -0.0108 9e-3 -0.0231 0.0187-0.0371 0.0293-0.0315 0.0238-0.0726 0.0523-0.11914 0.082-0.73572 0.44137-1.2793 0.74805-1.6387 0.92773l-8e-3 4e-3 -0.01 4e-3c-1.0629 0.55454-2.1692 0.96936-3.3223 1.2461l-0.0156 4e-3 -0.0137 4e-3c-0.62469 0.16659-1.4576 0.25976-2.5449 0.25976-2.6305 0-4.8398-0.79113-6.6562-2.3418-2.0333-1.7305-3.1094-4.1626-3.1094-7.2754 0-5.0654 3.003-10.282 9.375-15.633 3.9464-3.3099 8.3828-5.9867 13.148-8.2305zm-21.223 0.92578c7e-3 0.11858 0.0137 0.23585 0.0137 0.38867 0 1.1345-0.39227 2.0506-1.0625 2.6855-0.75161 0.71205-1.5571 1.0332-2.4316 1.0332-1.645 0-1.9277-0.41167-1.9277-0.95703 0-0.88936 1.3803-2.0919 5.4082-3.1504zm26.055 1.2598c0.23176 0.49143 0.39322 0.94656 0.68359 1.4668 0.93668 1.6999 1.873 3.4863 1.873 3.4863 0 0.04351 0.0293 0.03125 0.0293 0.03125-0.588 0.27055-0.93979 0.4182-1.0156 0.44531-1.643 0.38265-2.2676 0.46922-2.9121 0.56641 0.51685-2.6318 0.92366-4.269 1.3418-5.9961zm2.6582 23.732c-0.99348 1.1909-2.2743 2.2485-3.7754 3.2012 0.21556-0.2102 0.26999-0.32186 0.5-0.54102l4e-3 -4e-3c1.4326-1.3241 2.4747-2.1313 3.2715-2.6563zm-13.311 15.332 0.0664 3.6289c-0.19773 3.9972-0.51721 7.9685-0.96094 11.916-0.28768 2.2046-0.8645 4.6189-1.7422 7.252l-2e-3 6e-3 -2e-3 8e-3c-1.2581 3.9194-2.4946 5.2598-3.25 5.2598-0.73586 0-1.5547-1.2118-1.5547-5.3613 0-6.2652 2.5451-13.875 7.4453-22.709z"/><path d="m309.74 89.082c-2.0783 0-4.1014 0.49124-6.0859 1.4551-1.6558 0.77643-2.8059 1.8487-3.4805 3.1523-1.1499-2.9391-6.4096-4.0098-14.477-4.0098-9.4522 0-14.947 2.4857-14.947 8.0781 0 1.7807 0.41612 3.3514 1.3164 4.6719l6e-3 8e-3 4e-3 6e-3c1.0519 1.4948 2.5963 2.1717 4.4414 2.3457-2.9502 2.5248-5.8503 5.0125-6.9414 6.1426-3.2228 3.3251-5.0234 6.4367-5.0234 9.3008 0 3.4374 2.396 5.805 6.5137 7.1953 2.8863 0.99708 6.3575 1.4805 10.375 1.4805 3.2927 0 6.3497-0.25283 9.1699-0.76562 4.8751-0.91408 9.0414-2.3719 12.461-4.3926 4.8399-2.8408 7.4297-6.4276 7.4297-10.91 0-1.9787-0.34906-3.8613-1.0508-5.6426l-0.0137-0.0352-0.0176-0.0371c-0.99424-2.0879-1.988-4.1508-2.9824-6.1894l-4e-3 -8e-3c-2e-3 -3e-3 -2e-3 -7e-3 -4e-3 -0.01-2e-3 -4e-3 -2e-3 -7e-3 -4e-3 -0.0117 1.8217 1.0372 3.5564 1.6445 5.1074 1.6445 1.9176 0 3.4961-0.63674 4.834-1.9746l8e-3 -0.01 0.01-0.01c1.2803-1.3385 1.957-2.8999 1.957-4.666 0-0.76297-0.16044-1.4849-0.47656-2.1816 2e-3 0.0054 7e-3 0.0082 0.01 0.01367l-0.01-0.01758c-1.3633-3.1206-4.2015-4.623-8.125-4.623zm-3.8066 5.1816c0.52103 0 1.0346 0.19399 1.543 0.66602l0.0312 0.0293 0.0312 0.02539c0.4909 0.39272 0.69336 0.85091 0.69336 1.2812 0 0.62086-0.509 1.5176-2.0762 2.6699l-0.39649 0.29297c-0.51944-1.3578-0.85742-2.5128-0.85742-3.2617 0-1.4224 0.39294-1.7031 1.0312-1.7031zm-22.178 0.44727h1.0195c-0.70502 0.85474-1.5742 1.7584-2.7969 2.7773-2.1761 1.8376-3.6978 2.5703-4.6426 2.5703-0.68532 0-1.1055-0.31908-1.1055-1.9277 0-2.0823 2.0151-3.4199 7.5254-3.4199zm7.916 0.22461c0.81635 0 1.6205 0.17333 2.418 0.43555-1.3196 0.88837-2.9557 1.7831-4.9766 2.6973l-0.01 0.0039-0.0117 0.0059c-0.18632 0.08873-0.83556 0.33641-1.0859 0.44727 0.0943-0.14198 0.19999-0.23952 0.29297-0.38672l4e-3 -0.0059 2e-3 -0.0059c1.1878-1.9302 1.888-2.8309 2.0274-2.918l0.0137-0.0078 0.0137-0.0098c0.20745-0.1383 0.58243-0.25586 1.3125-0.25586zm7.9336 2.3789c0.0258 0.19686 0.0228 0.36473 0.0605 0.57227l0.0234 0.125 0.0488 0.11914c0.13292 0.31016 0.24707 0.55234 0.34961 0.76367 0.35236 1.7719 0.79067 3.4647 1.3379 5.0566l6e-3 0.0195 8e-3 0.0176c0.49533 1.2879 0.99114 2.5758 1.4863 3.8633 0.57741 1.5879 0.82617 2.7604 0.82617 3.6445 0 2.6688-2.1609 5.2899-7.1856 7.6348-4.3477 2.0289-8.6163 3.0293-12.811 3.0293-6.3563 0-8.7949-1.5608-8.7949-4.0918 0-1.733 1.095-3.923 3.666-6.7852l4e-3 -4e-3 2e-3 -4e-3c2.1686-2.4577 4.6788-4.6037 7.5352-6.4434 4.0716-2.649 8.1323-4.803 12.186-6.4648 0.56423-0.21942 0.9223-0.62795 1.252-1.0527z"/><path d="m307.87 60.26c-11.855 0-20.549 4.4878-25.91 13.545-2.2488 3.7654-3.373 7.8991-3.373 12.381 0 2.1369 0.46823 4.1211 2.2539 4.1211 0.77888 0 1.35-0.54809 1.7285-1.0527l0.0195-0.02539 0.0176-0.02539c0.31712-0.47571 0.61143-1.0514 0.69141-1.4512l0.01-0.04297 4e-3 -0.04492c0.14919-1.2433 0.29822-2.462 0.44727-3.6543 0.24659-1.9728 0.49556-3.2225 0.75781-3.9219l2e-3 -0.0059 2e-3 -0.0078c1.5817-4.3728 4.6447-7.6397 9.2695-9.8105 3.5622-1.6624 7.6299-2.5078 12.215-2.5078 3.441 0 6.3953 0.43703 8.8926 1.2852 5.474 1.9407 10.948 3.8552 16.422 5.7461l0.0234 0.0078 0.0234 0.0059c6.8975 2.0642 13.181 3.1113 18.842 3.1113 7.4122 0 13.893-1.3993 19.408-4.2344 2.4799-1.2399 4.3381-2.1557 5.5723-2.748l0.0605-0.0293 0.0586-0.03516c0.65637-0.41769 1.3457-1.025 1.3457-1.9277v-1.1348h-2.1797c-0.28545 0-0.8171 0.17082-1.6641 0.41992-3.708 0.9399-6.3786 1.6697-7.9414 2.1738-4.7156 1.5227-8.6204 2.2598-11.75 2.2598-0.42315 0-1.2757-0.02511-2.5547-0.07422-3.6956-0.18952-9.0258-1.6997-16.043-4.6152-8.7167-3.6859-14.202-5.8457-16.494-6.4707l-0.012-4e-3c-3.141-0.82387-6.5248-1.2324-10.145-1.2324z"/><path d="m206.55 199.33c-2.0783 0-4.1014 0.49124-6.0859 1.4551-1.6558 0.77643-2.8059 1.8487-3.4805 3.1524-1.1499-2.9391-6.4096-4.0098-14.477-4.0098-9.4523 0-14.947 2.4857-14.947 8.0781 0 1.7807 0.41611 3.3514 1.3164 4.6719l6e-3 8e-3 4e-3 6e-3c1.0523 1.4953 2.5973 2.1721 4.4434 2.3457-2.9515 2.5252-5.8518 5.012-6.9434 6.1426-3.2228 3.3251-5.0234 6.4367-5.0234 9.3008 0 3.4374 2.396 5.805 6.5137 7.1953 2.8859 0.99693 6.3571 1.4824 10.375 1.4824 3.2931 0 6.3502-0.25488 9.1699-0.76758 4.8751-0.91407 9.0414-2.3719 12.461-4.3926 4.8396-2.8407 7.4297-6.4256 7.4297-10.908 0-1.9787-0.34908-3.8613-1.0508-5.6426l-0.0137-0.0351-0.0176-0.0371c-0.99424-2.0879-1.988-4.1508-2.9824-6.1895l-4e-3 -8e-3c-2e-3 -3e-3 -2e-3 -7e-3 -4e-3 -0.01-2e-3 -5e-3 -2e-3 -9e-3 -4e-3 -0.0137 1.8213 1.0371 3.5555 1.6465 5.1074 1.6465 1.9176 0 3.4961-0.63869 4.834-1.9766l0.018-0.018c1.2803-1.3385 1.957-2.9 1.957-4.666 0-0.76151-0.1573-1.4832-0.47266-2.1797-1.3618-3.1263-4.2018-4.6309-8.1289-4.6309zm8.1289 4.6309c2e-3 4e-3 4e-3 6e-3 6e-3 0.01l-8e-3 -0.0176c1e-3 3e-3 8.2e-4 5e-3 2e-3 8e-3zm-11.936 0.55078c0.52103 0 1.0346 0.19399 1.543 0.66602l0.0312 0.0293 0.0312 0.0254c0.4909 0.39273 0.69336 0.85092 0.69336 1.2812 0 0.62085-0.50901 1.5176-2.0762 2.6699l-0.39648 0.29297c-0.51925-1.358-0.85742-2.513-0.85742-3.2617 0-1.4224 0.39293-1.7031 1.0312-1.7031zm-22.178 0.44727h1.0195c-0.70501 0.85474-1.5742 1.7584-2.7969 2.7773-2.1761 1.8376-3.6978 2.5703-4.6426 2.5703-0.68532 0-1.1055-0.31909-1.1055-1.9277 0-2.0823 2.0151-3.4199 7.5254-3.4199zm7.916 0.22461c0.81577 0 1.6204 0.17368 2.418 0.43555-1.3196 0.88837-2.9557 1.7831-4.9766 2.6973l-0.01 4e-3 -0.0117 6e-3c-0.18575 0.0884-0.83262 0.33682-1.082 0.44726 0.0937-0.14121 0.19648-0.23818 0.28906-0.38476l4e-3 -6e-3 2e-3 -6e-3c1.1878-1.9302 1.888-2.8308 2.0273-2.918l0.0137-8e-3 0.0137-0.01c0.20912-0.13941 0.58395-0.25781 1.3125-0.25781zm7.9336 2.3789c0.0258 0.19685 0.0228 0.36473 0.0606 0.57226l0.0234 0.125 0.0488 0.11914c0.13244 0.30901 0.24462 0.55287 0.34765 0.76563 0.35241 1.7721 0.79265 3.4629 1.3398 5.0547l6e-3 0.0195 8e-3 0.0176c0.49533 1.2879 0.99113 2.5758 1.4863 3.8633 0.57733 1.5877 0.82617 2.7623 0.82617 3.6465 0 2.6688-2.1587 5.2878-7.1836 7.6328-4.3477 2.0289-8.6182 3.0293-12.812 3.0293-6.3563-1e-5 -8.7949-1.5608-8.7949-4.0918 0-1.733 1.0948-3.9209 3.666-6.7832l4e-3 -4e-3 2e-3 -4e-3c2.1688-2.4579 4.6792-4.6058 7.5352-6.4453 4.0716-2.649 8.1323-4.803 12.186-6.4648 0.56422-0.21942 0.9223-0.62795 1.252-1.0527z"/><path d="m258.67 199.93c-2.731 0-6.7978 1.1424-11.871 3.2754-0.40723 0.13732-1.0714 0.47695-1.9707 0.97656l-0.0117 6e-3 -0.0117 8e-3c-0.39319 0.23128-0.67677 0.38662-0.89258 0.49609-8.2e-4 -4e-4 -1e-3 -2e-3 -2e-3 -2e-3 -0.28045-0.13442-0.68626-0.33435-1.2324-0.60743-1.1014-0.55069-1.8985-0.92456-2.3496-1.0938l-0.0801-0.0293-0.084-0.0176c-1.6909-0.35866-3.1998-0.54688-4.4902-0.54688-2.6604 0-5.3021 0.58601-7.9297 1.7422-3.068 1.3753-5.44 3.356-7.0664 5.957-4.9e-4 7.9e-4 -1e-3 1e-3 -2e-3 2e-3 -1.1848 1.8568-1.8926 3.5795-1.8926 5.0059 0 2.3503 1.5472 3.5996 3.9726 3.5996 0.55903 0 1.2177-0.2521 1.8398-0.4121l-2.457 1.7754c-0.57501-0.36962-1.1814-0.64649-1.8477-0.64649-1.6338 0-3.2591 1.0666-4.793 2.7578-1.5394 1.6484-2.4629 3.3362-2.4629 5.0215 0 0.32071 0.0331 0.6421 0.10937 0.94726l0.0762 0.30469 0.2207 0.22071c0.70149 0.70149 1.5216 1.2305 2.4453 1.2305v-2.2695l0.73047 1.9609-0.0215 0.0195c5e-3 -3e-3 9e-3 -6e-3 0.0156-0.01 0.01-6e-3 0.0216-0.0115 0.0352-0.0195 0.15869-0.0936 0.42652-0.23674 0.8457-0.44921 0.11224-0.0569 0.3389-0.16378 0.46875-0.22852-0.0102 0.20276-0.0723 0.40434-0.0723 0.60742 0 2.9552 0.93799 5.4596 2.8594 7.4375l0.012 0.012c1.918 1.918 4.3262 2.8711 7.1484 2.8711 1.1618 0 2.5179-0.29005 4.0273-0.81054l0.0703-0.0254 0.0684-0.0332c0.24143-0.1207 0.65653-0.37124 1.1856-0.70703l0.0176-0.01c9e-3 -6e-3 0.0107-6e-3 0.0195-0.0117 0.14823-0.0861 0.25743-0.14437 0.36523-0.20313 0.22594 0.14915 0.52075 0.41348 0.64844 0.4961l0.0234 0.016c1.0047 0.61398 2.1836 1.0371 3.4941 1.3086 0.34147 0.10311 1.0516 0.1289 2.0273 0.1289 2.0725 0 3.8959-0.68385 5.5957-1.6894l-0.33008 1.3164h9.2188v-2.2695l0.0195 2e-3 0.27344 2.2129-0.0273 8e-3c0.0835-0.0146 0.23938-0.0372 0.4961-0.0723 0.34453-0.047 0.83336-0.11003 1.4688-0.18945l0.01-2e-3h8e-3c5.3015-0.74971 9.1794-3.4634 11.598-8.1387 1.795-3.4317 2.6699-7.5277 2.6699-12.248 0-3.9695-0.69627-7.6732-2.0996-11.104-2.0717-5.0997-5.4511-7.877-10.086-7.877zm-20.842 39.922c-9e-3 -3e-3 -0.0427-1e-3 -0.0508-4e-3l0.13672 0.0352c-0.0323-6e-3 -0.0538-0.0246-0.0859-0.0312zm18.752-35.412c3.0865 0 5.301 1.2638 6.7832 3.8359l4e-3 6e-3 2e-3 4e-3c1.1679 1.9764 1.7832 4.4609 1.7832 7.4883 0 3.5403-0.8501 6.9232-2.5586 10.15-2.0133 3.8393-4.8781 6.3172-8.6055 7.5137-1.919 0.62481-3.0514 0.81757-3.9024 0.83203 2.1126-2.87 3.2227-6.219 3.2227-10.059 0-2.6831-0.74929-5.6798-2.1797-8.9531l-4e-3 -6e-3c-1.1795-2.7943-2.6854-5.179-4.4062-7.2949 3.9016-2.2821 7.2348-3.5176 9.8613-3.5176zm-20.982 3.1348c1.1918 0 2.2072 0.19604 3.1406 0.48438l-5.2285 3.7812c0.49669-0.92148 0.83398-1.8671 0.83398-2.8613 0-0.2855-0.26487-0.78057-0.39062-1.1699 0.53615-0.0921 1.0293-0.23438 1.6445-0.23438zm-6.8477 1.8594c-0.18911 0.3815-0.71071 1.0901-2.1973 2.2246-0.50341 0.38096-0.46714 0.26242-0.84571 0.51562 0.1684-0.21312 0.10412-0.20334 0.30274-0.44336 1.3758-1.5819 2.2595-2.1484 2.7402-2.2969zm14.352 1.873c1.035 1.3603 2.0476 3.0426 3.0254 5.2812 1.2056 2.8949 1.7773 5.3791 1.7773 7.4746 0 3.2232-0.9758 5.5138-2.8047 7.0449-1.4175 1.1876-3.4698 1.8031-6.0527 1.9375 0.16035-0.31632 0.35339-0.48581 0.50195-0.84766 0.51877-1.147 0.84375-2.239 0.84375-3.1328 0-1.4612-0.45701-2.7636-1.3652-3.9141l-6e-3 -8e-3 -8e-3 -8e-3c-1.0998-1.3441-2.4278-2.0586-4.0879-2.0586-1.5995 0-2.9966 0.68417-4.1738 1.918-1.1729 1.1796-1.8145 2.5665-1.8145 4.1445 0 1.1868 0.42607 2.6308 1.0332 4.168h-1.4531l-0.0625 8e-3c-0.23207 0.0258-0.73634-0.0741-1.7949-0.45899-2.3203-0.85938-3.293-2.2003-3.293-4.2383 0-2.1227 0.27291-3.1178 0.37695-3.2461 3.2664-2.4371 6.3074-4.6916 9.0957-6.7461 4.0673-3.0162 7.3831-5.3611 10.262-7.3184zm-12.35 13.688c5e-3 -5e-3 6e-3 -0.0123 0.0117-0.0176l-0.01756 0.02151c2e-3 -2e-3 4e-3 -2e-3 6e-3 -4e-3zm8.7969 7.2031c-4e-3 9e-3 -2e-3 0.0149-6e-3 0.0234l0.0156-0.0391c-3e-3 7e-3 -7e-3 9e-3 -0.01 0.0156zm-5.0957-3.4141c3e-3 0.0457 0.01 0.0742 0.01 0.13281 0 0.17267-0.15092 0.45383-0.21875 0.67773-8e-3 -0.0469-0.125-0.27295-0.125-0.30468 0 0 0.0558-0.16202 0.24219-0.375l0.0215-0.0234 0.0195-0.0274c0.0809-0.10401 0.0291-0.0458 0.0508-0.0801z"/><path d="m288.68 200.16c-5.1307 0-9.4004 1.2988-12.73 3.9844l-0.012 8e-3c-3.7548 3.1018-5.5644 7.3511-5.5644 12.748 0 5.8048 1.9113 10.956 5.7168 15.439 4.1563 4.9454 9.3282 7.4219 15.578 7.4219 1.4913 0 3.4564-0.26687 5.8223-0.76953 2.1552-0.43105 4.9482-1.6438 8.3242-3.5586l8e-3 -4e-3 6e-3 -4e-3c4.545-2.6555 7.209-5.4425 7.209-8.4453 0-3.3684-3.5189-6.0901-9.4648-8.377l-0.02-8e-3c-3.4751-1.2591-6.5672-2.1035-9.2422-2.5156-2.5663-0.45208-4.7495-0.68945-6.5254-0.68945-5.5686 0-9.5033 1.61-11.318 5.1816-0.40128 0.80256-0.58429 1.6462-0.60742 2.5234-0.57244-1.8247-0.90235-3.8194-0.90235-6.0469 0-4.2768 1.3924-7.4336 3.9766-9.4922l4e-3 -4e-3 4e-3 -2e-3c2.382-1.9325 5.6525-2.957 9.8887-2.957 1.084 0 3.4608 0.33244 7.1836 1.0274l0.0234 4e-3c0.1928 0.0321 0.98692 0.24381 2.3262 0.64063l0.0195 4e-3 0.0176 6e-3c1.3445 0.34858 1.9988 0.5586 2.377 0.5586 1.279 0 2.2539-0.75132 2.2539-2.1055 0-2.0349-2.8654-3.0226-6.9102-3.7305-3.1136-0.55241-5.6104-0.83789-7.4414-0.83789zm-2.0156 19.518c2.7262 0 6.2132 0.93803 10.34 2.6191-2.1569 2.8796-5.4114 4.4434-10.041 4.4434-1.5248 0-2.9456-0.23044-4.2598-0.6836l-6e-3 -2e-3 -4e-3 -2e-3c-1.9353-0.64511-2.584-1.5145-2.584-2.582 0-0.0447 0.10857-0.4495 0.57226-1.1914l8e-3 -0.0117 6e-3 -0.01c0.95554-1.6053 2.8753-2.5801 5.9688-2.5801zm15.729 5.8301c0.55783 0.6923 0.9082 1.3293 0.9082 1.8457 0 0.71531-0.43917 1.6604-1.666 2.8418-2.3076 2.2188-5.8736 3.4141-10.863 3.4141-4.3483 0-7.8431-1.3304-10.557-3.7598 0.23743 0.12739 0.42431 0.28353 0.67968 0.40039 2.3466 1.0666 4.8385 1.5977 7.4883 1.5977 2.9625 0 5.667-0.49228 8.1113-1.5 2.7413-1.0887 4.7148-2.7108 5.8984-4.8398z"/><path d="m352.45 199.41c-2.0486 0-3.9813 0.52948-5.7891 1.5703-2.3928 1.3673-3.707 3.3136-3.707 5.8379 0 0.56784 0.094 1.1689 0.26367 1.791l8e-3 0.0293 0.01 0.0312c0.089 0.26693 0.14592 0.45993 0.1875 0.62109 0.53863 3.0418 0.95847 6.2069 1.2539 9.5059 0.096 1.0075 0.14258 2.0421 0.14258 3.1035 0 2.7845-0.42694 4.7946-1.1973 6.1641l-6e-3 0.0117-8e-3 0.0137c-0.75692 1.4248-1.7723 2.5446-3.041 3.3789-0.5064 0.29397-1.1404 0.61826-1.8574 0.96093 1.1186-1.3244 1.7344-2.7624 1.7344-4.332 0-1.3008-0.52048-2.547-1.416-3.7285-1.0454-1.4488-2.3698-2.334-3.9746-2.334-2.3728 0-4.3539 1.357-5.9375 3.7051-1.3834 2.022-2.1406 4.033-2.1406 6.0156 0 0.40789 0.14642 1.0171 0.24609 1.5625-1.0528 0.40239-2.219 0.66406-3.5918 0.66406-2.6684 0-3.7188-1.0245-3.7188-3.3457 0-2.0107 0.98476-4.4026 3.1856-7.2793 1.3113-1.4558 2.334-2.5508 3.0508-3.2676l0.0215-0.0215 0.0195-0.0215c3.204-3.5544 5.5963-6.5538 7.1328-8.9609l0.01-0.0117 8e-3 -0.0137c0.45938-0.76563 0.83398-1.3779 0.83398-2.002 0-0.86166-0.63653-1.5098-1.5078-1.5098-1.1323 0-3.0987 1.3021-5.8574 3.459-1.9462 1.547-3.3289 2.6972-4.1074 3.4238-2.7548 2.6045-4.8918 4.8418-6.377 6.6855-1.4565 1.8206-2.7694 3.9877-3.9434 6.4863-0.85071 1.7546-1.3086 3.4432-1.3086 5.0488 0 4.6963 3.5261 6.959 9.4961 6.959 3.0748 0 6.2005-0.65714 9.3691-1.8594 1.3549 1.1569 3.2694 1.7852 5.7891 1.7852 4.4128 0 8.2657-1.2061 11.572-3.6582 3.9411-2.8643 5.9141-6.7581 5.9141-11.664 0-2.1558-0.48478-4.4855-1.416-6.9688l-0.01-0.0254-0.0117-0.0254c-0.75736-1.7539-1.4875-3.5373-2.2129-5.3242 1.5844 0.98654 3.1243 1.6074 4.5312 1.6074 1.9556 0 3.5161-0.85232 4.7207-2.4785 0.9981-1.3504 1.4922-2.8618 1.4922-4.5547 0-0.74463-0.15564-1.549-0.43164-2.377l-6e-3 -0.0137-6e-3 -0.0156c-1.1274-3.0856-3.7545-4.6289-7.4121-4.6289zm-13.422 24.959c2e-3 2e-3 4e-3 3e-3 6e-3 6e-3l-0.0176-0.0254c5e-3 6e-3 7e-3 0.0131 0.0117 0.0195zm9.9883-19.553c0.41254 0 0.87101 0.18856 1.2559 0.60547l0.0332 0.0332c0.45044 0.45044 0.63672 0.91647 0.63672 1.4375 0 0.69928-0.49676 1.6637-1.9394 2.9668l-0.11719 0.10547c-0.47555-1.4602-0.82617-2.7481-0.82617-3.5195-1e-5 -1.3762 0.37572-1.6289 0.95703-1.6289zm-14.262 22.4s0.0404 0.0185 0.14649 0.19532l0.043 0.0664c0.27259 0.38943 0.31836 0.60657 0.31836 0.69336 0 0.38217-0.36447 1.0814-1.6504 2.0918-0.56314 0.43798-0.70806 0.39294-1.0996 0.61523 0.14253-0.6042 0.18149-1.1427 0.62304-1.9375 0.77017-1.4044 1.3332-1.7246 1.6191-1.7246z"/><path d="m365.07 203.52c-0.55599 0-1.1923 0.0522-1.4785 0.19532l0.39453-0.11524c-0.59682 0.0597-1.3297 0.24075-2.1133 0.50196-0.57195 0.19064-1.2408 0.56348-1.9277 1.0391l-0.0391 0.0254-0.0371 0.0312c-0.95356 0.78529-1.6836 1.7504-1.6836 2.8164 0 0.26165 0.0258 0.79336 0.41016 1.1777l0.33203 0.33203h0.6914c0.24525 0 0.41369-0.0355 0.79688-0.084l0.0156-2e-3 0.54883-0.0605c3.1376 0.0105 4.9707 2.8651 4.9707 9.9863 0 2.2624-0.26355 5.0834-0.80665 8.4902-0.7469 4.8798-1.1954 7.9523-1.3476 9.2207l-2e-3 0.01-2e-3 0.0117c-0.39908 3.941-0.60351 6.8652-0.60351 8.6992 0 4.1382 0.67284 7.5565 2.084 10.107l2.125-0.56836-0.0723-4.1895c0.0974-1.2673 0.17003-2.2341 0.21875-2.8672 0.24245-3.0065 1.3156-8.3406 3.2559-16.102 1.7474-7.1891 2.6465-12.721 2.6465-16.396 0-7.7859-2.6777-12.26-8.377-12.26z"/><path d="m430.7 170.89c-3.8459 0-7.6625 0.56458-11.439 1.6875-2.2873 0.66078-5.748 1.9857-10.293 3.9336-4.9138 2.1343-8.9061 3.7076-12.004 4.7402-2.2961 0.76536-4.6091 1.2197-6.9434 1.3633-1.0838 0.0492-1.8757 0.0723-2.4043 0.0723-1.6349 0-3.7388-0.25818-6.3281-0.79492-2.5976-0.58861-4.4537-1.1819-5.6328-1.7715l-0.0117-6e-3 -0.01-6e-3c-0.85803-0.40644-1.6183-0.89836-2.2832-1.4746-1.8601-1.6087-3.2968-2.668-4.3262-2.668-2.1754 0-2.9966 2.0392-2.998 4.6387l-0.77344 27.734 0.84766 0.24218c0.70824 0.20236 1.3664 0.37869 1.9766 0.53126l1.3594 0.33984 0.93945-26.936c0.16623 0.0847 0.6671 0.32764 2.1816 1.2363 1.706 1.0035 3.0332 1.6856 3.8652 1.9629 4.073 1.392 8.7324 2.0781 13.957 2.0781 6.3173 0 13.189-1.2504 20.594-3.7188l6e-3 -2e-3 8e-3 -4e-3c6.8393-2.3789 11.447-4.0377 13.867-4.9941 2.1049-0.65284 4.6372-0.98829 7.6367-0.98829 4.2859 0 8.104 0.79262 11.471 2.3574 4.3487 2.0107 7.2772 5.1104 8.8652 9.3105 0.67605 3.2507 1.0634 5.6373 1.1582 7.2012l2e-3 0.0469 6e-3 0.0449c0.20074 1.4052 0.99209 2.543 2.4668 2.543 1.7555 3e-5 2.1797-1.9377 2.1797-3.9727 0-1.9979-0.18363-3.7774-0.55469-5.3223-0.79486-3.7999-2.6359-7.2592-5.4902-10.373-5.4926-6.068-12.774-9.0332-21.895-9.0332zm27.385 19.406c1e-3 5e-3 5e-3 0.0102 6e-3 0.0156l-8e-3 -0.0352c1e-3 6e-3 5.9e-4 0.0139 2e-3 0.0195zm-92.059-9.6914v-0.0254l-2e-3 0.0312c0-2e-3 2e-3 -3e-3 2e-3 -6e-3z"/></g></g></g></svg>
