<?xml version="1.0" encoding="UTF-8"?>
<!-- Created with Inkscape (http://www.inkscape.org/) -->
<svg width="544" height="480" version="1.1" viewBox="0 0 544 480" xmlns="http://www.w3.org/2000/svg" xmlns:xlink="http://www.w3.org/1999/xlink"><defs><filter id="filter19956" x="0" y="0" width="1" height="1" color-interpolation-filters="sRGB"><feTurbulence baseFrequency="0.04" numOctaves="5" result="result4" type="fractalNoise"/><feDisplacementMap in="SourceGraphic" in2="result4" result="result3" scale="10" xChannelSelector="R" yChannelSelector="G"/><feDiffuseLighting lighting-color="#e9e6d7" in="result4" result="result1" surfaceScale="2"><feDistantLight azimuth="235" elevation="40"/></feDiffuseLighting><feComposite in="result3" in2="result1" operator="in" result="result2"/><feComposite in2="result1" k1="1.7" operator="arithmetic" result="result5"/><feBlend in="result5" in2="result3" result="fbSourceGraphic"/><feColorMatrix in="fbSourceGraphic" result="fbSourceGraphicAlpha" values="0 0 0 -1 0 0 0 0 -1 0 0 0 0 -1 0 0 0 0 1 0"/><feTurbulence baseFrequency="0.098367739946414262" result="result91" type="fractalNoise"/><feDisplacementMap in="fbSourceGraphic" in2="result91" result="result5" scale="100" xChannelSelector="R"/><feComposite in="fbSourceGraphic" in2="result5" operator="atop"/></filter><radialGradient id="radialGradient23425" cx="274.53" cy="161.14" r="205.76" gradientTransform="matrix(.99281 -.01232 .0077651 .62574 .72151 63.691)" gradientUnits="userSpaceOnUse"><stop stop-color="#fbdda1" offset="0"/><stop stop-color="#d4a450" offset="1"/></radialGradient><filter id="filter38636" x="0" y="0" width="1" height="1" color-interpolation-filters="sRGB"><feTurbulence baseFrequency="0.021973438752003204" numOctaves="2" result="result91" seed="223" type="fractalNoise"/><feDisplacementMap in="SourceGraphic" in2="result91" result="result5" scale="25" xChannelSelector="R"/><feComposite in="SourceGraphic" in2="result5" operator="atop" result="fbSourceGraphic"/><feColorMatrix in="fbSourceGraphic" result="fbSourceGraphicAlpha" values="0 0 0 -1 0 0 0 0 -1 0 0 0 0 -1 0 0 0 0 1 0"/><feTurbulence baseFrequency="0.04" in="fbSourceGraphic" numOctaves="5" result="result4" type="fractalNoise"/><feDisplacementMap in="fbSourceGraphic" in2="result4" result="result3" scale="10" xChannelSelector="R" yChannelSelector="G"/><feDiffuseLighting lighting-color="rgb(233,230,215)" in="result4" result="result1" surfaceScale="2"><feDistantLight azimuth="235" elevation="40"/></feDiffuseLighting><feComposite in="result3" in2="result1" operator="in" result="result2"/><feComposite in2="result1" k1="1.7" operator="arithmetic" result="result5"/><feBlend in="result5" in2="result3"/></filter></defs><g transform="translate(-2.5344)"><g transform="translate(-2.2363e-8 5.1597)"><rect x="68.776" y="29.36" width="411.52" height="263.56" ry="56.92" fill="url(#radialGradient23425)" filter="url(#filter19956)" stroke-width="0" style="paint-order:stroke fill markers"/><g filter="url(#filter38636)" aria-label="wms mlfhda"><path d="m263.82 111.72q0 2.6133-1.9413 5.6747-1.9413 3.0613-4.7787 4.928-2.016 1.4187-4.256 2.464-0.59733 0.29867-3.9573 1.4933-0.29867 1.1947-0.29867 1.8667l0.29867 7.7653q0-0.224 0 0.59734-0.0747 0.82133-0.0747 2.6133-0.0747 0.74667-0.14933 1.7173-0.224 6.4213-2.016 13.291-1.0453 4.032-3.136 7.392-2.8373 4.5547-5.9733 4.5547-3.7333 0-5.2267-5.6-0.896-3.2853-0.896-7.392 0-2.8373 0.37333-5.6 0.14934-1.1947 1.0453-3.584 2.688-7.6907 8.8853-16.053-0.97066 0-2.8373 0.0747-1.8667 0.14933-1.792 0.14933-5.8987 0-10.677-1.792-7.6907-2.912-7.6907-9.5573 0-5.8987 7.168-13.365 5.3013-5.4507 14.112-11.424 4.8533-3.0613 9.7067-6.1227-0.0747 0-0.448 0-2.6133 0-9.0347 1.2693-5.8987 1.12-7.392 1.7173 0.448 1.0453 0.448 2.6133 0 3.2853-2.1653 6.1973-2.1653 2.8373-4.7787 2.8373-2.24 0-4.5547-1.12-3.0613-1.4933-3.0613-4.256 0-4.032 7.4667-7.168 6.8693-2.8373 17.024-4.5547 3.8827-0.672 6.944-0.672 2.3893 0 3.584 0.59733 0.52267-0.74667 1.4187-1.6427 0.224-0.07467 0.448-0.07467 1.1947 0 1.568 1.344 0.29867 2.3893 1.4933 7.7653 0.37333 1.2693 2.688 3.36 1.9413 1.792 1.9413 3.6587 0 2.24-2.9867 3.4347-2.9867 1.1947-8.2133 1.7173l-2.0907 14.933q2.3147-2.6133 5.5253-5.2267 4.256-3.5093 6.1227-3.5093 2.1653 0 2.1653 2.688zm-4.704-14.485q0-0.37333-2.016-4.032-1.792-3.2107-1.8667-5.2267-1.0453 3.36-2.6133 11.648h0.37334q0.82133 0 4.3307-0.82133 0.224-0.07467 1.1947-0.52267 0.59734-0.29867 0.59734-1.0453zm1.0453 17.099q-0.37333-0.14934-0.672-0.14934-1.4933 0-5.4507 3.6587-3.136 2.9867-4.6293 5.0027 7.168-2.464 10.379-7.0933 0.448-0.672 0.37333-1.4187zm-7.9147-26.357q-8.5867 3.6587-15.531 9.4827-9.7813 8.2133-9.7813 16.501 0 5.152 3.5093 8.1387 3.0613 2.6133 7.392 2.6133 1.7173 0 2.8373-0.29867 1.8667-0.448 3.584-1.344 0.59734-0.29867 1.7173-0.97067 0.59733-0.37333 0.672-0.74666l2.24-15.904q0.14933-1.0453 0.74667-5.0027 0.59733-3.5093 1.1947-6.3467 0.59734-2.912 1.4187-6.1227zm-21.728 3.4347q0-1.7173-0.59733-1.7173 0.14933 0-0.82134 0.224-6.272 1.6427-6.272 4.256 0 2.0907 3.0613 2.0907 1.792 0 3.2107-1.344t1.4187-3.5093zm15.456 43.605-0.14934-7.9147q-9.632 15.829-9.632 26.955 0 6.496 2.688 6.496 2.3893 0 4.3307-6.048 1.344-4.032 1.792-7.4667 0.672-5.9733 0.97067-12.021z"/><path d="m317.21 95.891q0 2.1653-1.6427 3.8827-1.6427 1.6427-4.032 1.6427-2.016 0-4.704-1.568 2.5387-1.8667 2.5387-3.584 0-1.2693-1.12-2.1653-1.0453-0.97067-2.3147-0.97067-2.1653 0-2.1653 2.8373 0 1.9413 1.6427 5.4507 1.4933 3.0613 2.9867 6.1973 0.97067 2.464 0.97067 5.2267 0 5.8987-6.8693 9.9307-4.928 2.912-12.096 4.256-4.1067 0.74666-8.96 0.74666-5.8987 0-10.005-1.4187-5.7493-1.9413-5.7493-6.1227 0-3.6587 4.704-8.512 2.0907-2.1653 9.0347-7.9893-0.37334-0.0747-1.2693 0t-0.896 0.0747q-2.8373 0-4.256-2.016-1.12-1.6427-1.12-4.032 0-6.944 13.813-6.944 13.589 0 13.589 4.1813 0 1.792-1.344 2.3147-6.1973 2.5387-12.395 6.5707-4.4053 2.8373-7.7653 6.6453-3.9573 4.4053-3.9573 7.5413 0 5.2267 9.9307 5.2267 6.5707 0 13.291-3.136 7.84-3.6587 7.84-8.6613 0-1.568-0.896-4.032-0.74666-1.9413-1.4933-3.8827-0.82134-2.3893-1.344-5.0773-0.14934-0.29867-0.37334-0.82133-0.14933-0.82133-0.14933-1.4187 0-3.0613 3.5093-4.704 2.7627-1.344 5.6-1.344 5.376 0 7.0933 3.9573 0.37333 0.82133 0.37333 1.7173zm-21.056-0.896q-2.1653-1.1947-4.48-1.1947-1.2693 0-1.9413 0.448-0.59733 0.37333-2.3893 3.2853-1.792 2.8373-3.7333 4.032 4.4053-1.7173 5.9733-2.464 3.136-1.4187 5.2267-2.8373 0.59733-0.37333 1.344-1.2693zm-9.184-1.4187h-3.2107q-8.6613 0-8.6613 4.5547 0 3.0613 2.24 3.0613 2.016 0 5.376-2.8373 3.136-2.6133 4.256-4.7787z"/><path d="m375.52 68.937q0 0.448-0.82133 0.97067-1.8667 0.896-5.6 2.7627-7.9893 4.1067-18.891 4.1067-8.288 0-18.517-3.0613-8.2133-2.8373-16.427-5.7493-3.9573-1.344-9.2587-1.344-7.0933 0-12.693 2.6133-7.3173 3.4347-9.856 10.453-0.448 1.1947-0.82133 4.1813-0.224 1.792-0.448 3.6587-0.0747 0.37333-0.52267 1.0453-0.448 0.59733-0.82134 0.59733-1.12 0-1.12-2.9867 0-6.4213 3.2107-11.797 7.6907-12.992 24.939-12.992 5.3013 0 9.856 1.1947 3.2853 0.896 16.352 6.4213 10.603 4.4053 16.427 4.704 1.9413 0.07467 2.6133 0.07467 4.928 0 12.096-2.3147 2.3147-0.74667 7.9147-2.1653 1.2693-0.37333 1.344-0.37333z"/><path d="m214.02 206.14q0 2.1653-1.6427 3.8827-1.6427 1.6427-4.032 1.6427-2.016 0-4.704-1.568 2.5387-1.8667 2.5387-3.584 0-1.2693-1.12-2.1653-1.0453-0.97067-2.3147-0.97067-2.1653 0-2.1653 2.8373 0 1.9413 1.6427 5.4507 1.4933 3.0613 2.9867 6.1973 0.97066 2.464 0.97066 5.2267 0 5.8987-6.8693 9.9307-4.928 2.912-12.096 4.256-4.1067 0.74667-8.96 0.74667-5.8987 0-10.005-1.4187-5.7493-1.9413-5.7493-6.1227 0-3.6587 4.704-8.512 2.0907-2.1653 9.0347-7.9893-0.37334-0.0747-1.2693 0t-0.896 0.0747q-2.8373 0-4.256-2.016-1.12-1.6427-1.12-4.032 0-6.944 13.813-6.944 13.589 0 13.589 4.1813 0 1.792-1.344 2.3147-6.1973 2.5387-12.395 6.5707-4.4053 2.8373-7.7653 6.6453-3.9573 4.4053-3.9573 7.5413 0 5.2267 9.9307 5.2267 6.5707 0 13.291-3.136 7.84-3.6587 7.84-8.6613 0-1.568-0.896-4.032-0.74666-1.9413-1.4933-3.8827-0.82134-2.3893-1.344-5.0773-0.14934-0.29866-0.37334-0.82133-0.14933-0.82133-0.14933-1.4187 0-3.0613 3.5093-4.704 2.7627-1.344 5.6-1.344 5.376 0 7.0933 3.9573 0.37334 0.82134 0.37334 1.7173zm-21.056-0.896q-2.1653-1.1947-4.48-1.1947-1.2693 0-1.9413 0.448-0.59733 0.37334-2.3893 3.2853-1.792 2.8373-3.7333 4.032 4.4053-1.7173 5.9733-2.464 3.136-1.4187 5.2267-2.8373 0.59733-0.37333 1.344-1.2693zm-9.184-1.4187h-3.2107q-8.6613 0-8.6613 4.5547 0 3.0613 2.24 3.0613 2.016 0 5.376-2.8373 3.136-2.6133 4.256-4.7787z"/><path d="m269.72 218.91q0 6.8693-2.5387 11.723-3.36 6.496-10.752 7.5413-2.3893 0.29867-2.0907 0.29867h-7.7653q0.29866-1.1947 0.0747-2.24-2.912 2.6133-6.7947 2.6133-1.4933 0-1.7173-0.0747-1.8667-0.37334-3.2107-1.1947-1.2693-0.82133-1.1947-0.82133-0.14933 0-1.0453 0.52266-0.82133 0.52267-1.12 0.672-2.1653 0.74667-3.6587 0.74667-3.808 0-6.3467-2.5387-2.5387-2.6133-2.5387-6.6453 0-1.2693 0.29867-2.5387-3.7333 1.792-3.4347 1.792-0.74667 0-1.6427-0.896-0.0747-0.29867-0.0747-0.672 0-1.9413 2.1653-4.256 2.1653-2.3893 3.9573-2.3893 0.896 0 1.8667 0.896l18.891-13.664q-2.24-1.344-5.4507-1.344-1.7173 0-3.136 0.448 0.74667 1.4933 0.74667 2.0907 0 3.0613-4.256 6.048-3.7333 2.5387-6.1973 2.5387-2.8373 0-2.8373-2.464 0-1.7173 1.7173-4.4053 2.24-3.584 6.5707-5.5253 3.7333-1.6427 7.4667-1.6427 1.792 0 4.256 0.52267 0.59733 0.224 2.24 1.0453 1.6427 0.82133 1.7173 0.82133 0.224 0 1.4933-0.74667 1.344-0.74667 1.792-0.896 7.616-3.2107 11.499-3.2107 6.1227 0 9.0347 7.168 2.016 4.928 2.016 10.677zm-3.4347-3.136q0-4.7787-1.9413-8.064-2.5387-4.4053-7.7653-4.4053-4.7787 0-11.573 4.256 3.0613 3.36 5.0773 8.1387 2.0907 4.7787 2.0907 8.512 0 6.72-4.5547 11.275h2.016q1.4933 0.0747 4.704-0.97066 6.048-1.9413 9.2587-8.064 2.688-5.0773 2.688-10.677zm-36.213-6.6453q0-0.97067-1.0453-0.97067-1.4187 0-3.8827 2.8373-2.1653 2.6133-2.3893 3.6587h0.74667q0.97066 0 3.7333-2.0907 2.8373-2.1653 2.8373-3.4347zm18.965 14.933q0-3.4347-1.8667-7.9147-1.792-4.1067-3.808-6.4213-4.5547 3.0613-11.2 7.9893-4.256 3.136-9.2587 6.8693-0.672 0.74667-0.672 4.032 0 3.808 4.032 5.3013 1.6427 0.59734 2.3147 0.52267h3.0613q-1.568-3.2107-1.568-5.3013 0-1.8667 1.4933-3.36 1.4933-1.568 3.36-1.568t3.2107 1.6427q1.12 1.4187 1.12 3.2107 0 1.0453-0.74667 2.688-0.672 1.6427-1.344 2.3147 0.224 0 0.52267 0.14933 0.37333 0.0747 0.52267 0.0747 4.8533 0 7.616-2.3147 3.2107-2.688 3.2107-7.9147zm-13.44 4.8533q0-1.4187-1.0453-1.4187-0.52267 0-1.0453 0.672-0.52266 0.59733-0.52266 1.12 0 0.82133 1.1947 3.136 0.0747-0.29867 0.82134-1.568 0.59733-1.0453 0.59733-1.9413z"/><path d="m311.9 226.98q0 3.584-6.6453 7.4667-5.0027 2.8373-7.9893 3.4347-3.5093 0.74666-5.6 0.74666-8.8107 0-14.709-7.0187-5.4507-6.4213-5.4507-14.709 0-7.616 5.152-11.872 4.6293-3.7333 12.021-3.7333 2.6133 0 7.2427 0.82134 5.9733 1.0453 5.9733 2.6133 0 0.97067-1.12 0.97067-0.0747 0-2.0907-0.52267-2.016-0.59733-2.464-0.672-5.6-1.0453-7.392-1.0453-6.6453 0-10.603 3.2107-4.4053 3.5093-4.4053 10.379 0 7.7653 4.48 12.619 4.6293 5.0773 12.469 5.0773 7.7653 0 11.648-3.7333 2.016-1.9413 2.016-3.6587 0-1.8667-2.3147-3.808 0 0-0.0747 0.0747-1.2693 3.808-5.9733 5.6747-3.4347 1.4187-7.6907 1.4187-3.7333 0-7.0187-1.4933-4.4053-2.016-4.4053-5.9733 0-1.12 0.52267-2.1653 2.3147-4.5547 10.304-4.5547 2.5387 0 6.3467 0.672 3.8827 0.59733 9.0347 2.464 8.736 3.36 8.736 7.3173zm-13.067-5.2267q-7.3173-3.2107-12.171-3.2107-5.0773 0-6.944 3.136-0.74667 1.1947-0.74667 1.792 0 2.5387 3.36 3.6587 2.1653 0.74667 4.6293 0.74667 8.3627 0 11.872-6.1227z"/><path d="m359.17 206.44q0 2.1653-1.2693 3.8827-1.4933 2.016-3.808 2.016-1.8667 0-4.3307-1.6427 2.3147-2.0907 2.3147-3.808 0-1.2693-0.97067-2.24-0.896-0.97067-2.0907-0.97067-2.0907 0-2.0907 2.7627 0 1.6427 1.0453 4.5547 1.344 3.36 2.7627 6.6453 1.344 3.584 1.344 6.5707 0 6.7947-5.4507 10.752-4.6293 3.4347-10.901 3.4347-4.1813 0-5.6747-1.8667-4.8533 1.9413-9.4827 1.9413-8.3627 0-8.3627-5.824 0-2.0907 1.1947-4.5547 1.7173-3.6587 3.808-6.272 2.1653-2.688 6.272-6.5707 1.12-1.0453 4.032-3.36 4.1067-3.2107 5.152-3.2107 0.37333 0 0.37333 0.37333 0 0.29867-0.672 1.4187-2.24 3.5093-7.0187 8.8107-1.12 1.12-3.136 3.36-3.4347 4.48-3.4347 7.9893 0 4.48 4.8533 4.48 2.7627 0 4.8533-1.0453-0.37333-1.4933-0.37333-2.3147 0-2.5387 1.9413-5.376 2.1653-3.2107 5.0027-3.2107 1.7173 0 3.0613 1.8667 1.1947 1.568 1.1947 3.0613 0 3.7333-5.7493 6.8693 0 0 0.14933 0 1.9413 0 5.3013-1.4187 1.2693-0.59733 2.1653-1.12 2.1653-1.4187 3.4347-3.808 1.344-2.3893 1.344-6.72 0-1.6427-0.14933-3.2107-0.448-5.0027-1.2693-9.632-0.0747-0.29867-0.224-0.74667-0.224-0.82133-0.224-1.4933 0-3.0613 3.136-4.8533 2.464-1.4187 5.2267-1.4187 4.928 0 6.3467 3.8827 0.37333 1.12 0.37333 2.016zm-22.773 21.728q0-0.59734-0.52266-1.344-0.448-0.74667-1.12-0.74667-1.344 0-2.6133 2.3147-1.12 2.016-1.12 3.584 0 0.59733 0.14934 0.82133 1.12-0.0747 3.136-1.6427 2.0907-1.6427 2.0907-2.9867z"/><path d="m372.31 215.78q0 5.376-2.6133 16.128-2.912 11.648-3.2853 16.277-0.0747 0.97067-0.224 2.912l0.0747 4.256q-1.9413-3.5093-1.9413-9.5573 0-2.688 0.59733-8.5867 0.224-1.8667 1.344-9.184 0.82134-5.152 0.82134-8.6613 0-11.125-6.1227-11.125 0 0-0.672 0.0747-0.59734 0.0747-0.672 0.0747h-0.224q-0.0747-0.0747-0.0747-0.37333 0-0.896 1.2693-1.9413 0.97067-0.672 1.6427-0.896 1.12-0.37333 1.8667-0.448 0.14933-0.0747 0.97067-0.0747 7.2427 0 7.2427 11.125z"/><path d="m457.5 195.62q0 2.8373-1.0453 2.8373-1.12 0-1.344-1.568-0.14933-2.464-1.1947-7.4667-2.5387-6.7947-9.4827-10.005-5.3013-2.464-11.947-2.464-4.6293 0-7.9893 1.0453-3.584 1.4187-13.888 5.0027-10.976 3.6587-20.235 3.6587-7.6907 0-13.589-2.016-1.12-0.37333-3.6587-1.8667-2.6133-1.568-3.0613-1.568-0.59734 0-0.82134 1.12l-0.896 25.685q-0.896-0.224-1.9413-0.52267l0.74666-26.88q0-3.5093 1.8667-3.5093 0.82134 0 3.584 2.3893 1.12 0.97066 2.5387 1.6427 1.9413 0.97067 5.8987 1.8667 3.9573 0.82134 6.5707 0.82134 0.82133 0 2.464-0.0747 3.6587-0.224 7.2427-1.4187 4.704-1.568 12.096-4.7787 6.7947-2.912 10.155-3.8827 5.5253-1.6427 11.125-1.6427 13.216 0 21.056 8.6613 4.1067 4.48 5.2267 9.856 0.52266 2.1653 0.52266 5.0773z"/></g></g></g></svg>
