<?xml version="1.0" encoding="UTF-8"?>
<!-- Created with Inkscape (http://www.inkscape.org/) -->
<svg width="544" height="480" version="1.1" viewBox="0 0 544 480" xmlns="http://www.w3.org/2000/svg" xmlns:xlink="http://www.w3.org/1999/xlink"><defs><linearGradient id="linearGradient1070"><stop stop-color="#002bff" offset="0"/><stop stop-color="#00fffe" offset="1"/></linearGradient><linearGradient id="linearGradient928" x1="202.63" x2="337.25" y1="82.142" y2="170.58" gradientTransform="matrix(1.6295 0 0 1.6295 -168.02 -60.038)" gradientUnits="userSpaceOnUse" xlink:href="#linearGradient1070"/><linearGradient id="linearGradient21817" x1="139.59" x2="625.41" y1="267.49" y2="323.44" gradientTransform="translate(-107.5 35.746)" gradientUnits="userSpaceOnUse" xlink:href="#linearGradient1070"/></defs><g><path d="m162.17 73.814h159.69v37.77l59.971-37.739v145.43l-59.971-32.156v37.77h-159.69z" fill="none" stroke="url(#linearGradient928)" stroke-linecap="round" stroke-linejoin="round" stroke-width="20.398" style="paint-order:stroke fill markers"/><g fill="url(#linearGradient21817)" aria-label="Pirate Meet"><path d="m27.648 361.69q-1.8773 0-3.1573-1.28-1.28-1.28-1.28-3.1573v-57.771q0-1.9627 1.28-3.1573 1.28-1.28 3.1573-1.28h17.067q6.3147 0 11.264 2.816 5.0347 2.816 7.7653 7.8507 2.816 5.0347 2.816 11.435 0 6.2293-2.816 11.093-2.7307 4.864-7.7653 7.5947-4.9493 2.7307-11.264 2.7307h-12.629v18.688q0 1.8773-1.28 3.1573-1.1947 1.28-3.1573 1.28zm17.067-31.317q5.8027 0 9.5573-3.6693 3.7547-3.7547 3.7547-9.5573 0-6.0587-3.7547-9.984t-9.5573-3.9253h-12.629v27.136z"/><path d="m80.725 361.69q-1.8773 0-3.1573-1.1947-1.1947-1.28-1.1947-3.1573v-37.973q0-1.9627 1.1947-3.1573 1.28-1.1947 3.1573-1.1947 1.9627 0 3.1573 1.1947 1.1947 1.1947 1.1947 3.1573v37.973q0 1.8773-1.1947 3.1573-1.1947 1.1947-3.1573 1.1947zm0-54.272q-2.304 0-4.0107-1.6213-1.6213-1.7067-1.6213-4.0107t1.6213-3.9253q1.7067-1.7067 4.0107-1.7067t3.9253 1.7067q1.7067 1.6213 1.7067 3.9253t-1.7067 4.0107q-1.6213 1.6213-3.9253 1.6213z"/><path d="m124.16 314.5q4.5227 0 7.0827 1.3653 2.56 1.3653 2.56 3.4133 0 0.59733-0.0853 0.85333-0.768 2.7307-3.4133 2.7307-0.42667 0-1.28-0.17066-3.4133-0.59734-5.5467-0.59734-6.144 0-9.8987 2.816-3.7547 2.816-3.7547 7.5947v24.917q0 2.048-1.1093 3.1573-1.024 1.1093-3.1573 1.1093-2.048 0-3.1573-1.024-1.1093-1.1093-1.1093-3.2427v-38.144q0-2.048 1.1093-3.1573 1.1093-1.1093 3.1573-1.1093 4.2667 0 4.2667 4.2667v1.6213q2.56-2.9867 6.3147-4.6933 3.7547-1.7067 8.0213-1.7067z"/><path d="m160.51 314.67q6.5707 0 11.861 3.1573 5.376 3.072 8.448 8.5333 3.1573 5.376 3.1573 12.032v19.029q0 1.8773-1.28 3.1573-1.1947 1.1947-3.072 1.1947t-3.1573-1.1947q-1.1947-1.28-1.1947-3.1573v-3.1573q-2.9867 3.6693-7.2533 5.7173-4.2667 2.048-9.216 2.048-6.144 0-11.179-3.072-4.9493-3.072-7.8507-8.448-2.816-5.4613-2.816-12.117 0-6.656 3.072-12.032 3.072-5.4613 8.448-8.5333 5.4613-3.1573 12.032-3.1573zm0 39.68q4.2667 0 7.68-2.048 3.4987-2.1333 5.4613-5.7173 1.9627-3.6693 1.9627-8.192 0-4.5227-1.9627-8.192t-5.4613-5.7173q-3.4133-2.1333-7.68-2.1333-4.2667 0-7.7653 2.1333-3.4133 2.048-5.4613 5.7173-1.9627 3.6693-1.9627 8.192 0 4.5227 1.9627 8.192 2.048 3.584 5.4613 5.7173 3.4987 2.048 7.7653 2.048z"/><path d="m216.83 353.16q1.536 0 2.56 1.1947 1.1093 1.1947 1.1093 3.072t-1.4507 3.072q-1.3653 1.1947-3.584 1.1947h-1.536q-4.1813 0-7.68-2.1333-3.4133-2.2187-5.376-5.9733-1.9627-3.7547-1.9627-8.448v-21.077h-3.9253q-1.792 0-2.9013-1.024-1.1093-1.024-1.1093-2.56 0-1.7067 1.1093-2.7307 1.1093-1.024 2.9013-1.024h3.9253v-12.288q0-1.8773 1.1947-3.072 1.1947-1.1947 3.072-1.1947t3.072 1.1947q1.1947 1.1947 1.1947 3.072v12.288h7.2533q1.792 0 2.9013 1.024t1.1093 2.7307q0 1.536-1.1093 2.56t-2.9013 1.024h-7.2533v21.077q0 3.4133 1.8773 5.7173t4.608 2.304z"/><path d="m273.07 337.62q0 1.6213-1.1093 2.7307-1.1093 1.024-2.816 1.024h-32.427q0.93866 5.9733 5.376 9.6427 4.5227 3.6693 11.008 3.6693 2.56 0 5.2907-0.93866 2.816-0.93867 4.608-2.304 1.1947-0.93867 2.816-0.93867t2.56 0.85334q1.536 1.28 1.536 2.9013 0 1.536-1.3653 2.56-2.9013 2.304-7.2533 3.7547-4.2667 1.4507-8.192 1.4507-6.9973 0-12.544-2.9867-5.5467-3.072-8.704-8.448-3.072-5.376-3.072-12.203 0-6.8267 2.9013-12.203 2.9867-5.4613 8.192-8.448 5.2907-3.072 11.947-3.072 6.5707 0 11.349 2.9013t7.3387 8.1067 2.56 11.947zm-21.248-15.616q-6.2293 0-10.155 3.4133-3.84 3.4133-4.864 9.1307h28.416q-0.768-5.7173-4.2667-9.1307-3.4987-3.4133-9.1307-3.4133z"/><path d="m372.31 295.04q1.8773 0 3.1573 1.28t1.28 3.1573v57.771q0 1.8773-1.3653 3.1573-1.28 1.28-3.072 1.28-1.8773 0-3.1573-1.28t-1.28-3.1573v-42.411l-20.651 42.069q-1.4507 2.2187-3.84 2.2187-2.816 0-4.096-2.6453l-20.395-40.875v41.643q0 1.8773-1.28 3.1573t-3.1573 1.28q-1.8773 0-3.1573-1.28t-1.28-3.1573v-57.771q0-1.8773 1.28-3.1573t3.1573-1.28q2.56 0 3.9253 2.3893l25.344 50.773 24.661-50.773q1.3653-2.3893 3.9253-2.3893z"/><path d="m434.86 337.62q0 1.6213-1.1093 2.7307-1.1093 1.024-2.816 1.024h-32.427q0.93867 5.9733 5.376 9.6427 4.5227 3.6693 11.008 3.6693 2.56 0 5.2907-0.93866 2.816-0.93867 4.608-2.304 1.1947-0.93867 2.816-0.93867 1.6213 0 2.56 0.85334 1.536 1.28 1.536 2.9013 0 1.536-1.3653 2.56-2.9013 2.304-7.2533 3.7547-4.2667 1.4507-8.192 1.4507-6.9973 0-12.544-2.9867-5.5467-3.072-8.704-8.448-3.072-5.376-3.072-12.203 0-6.8267 2.9013-12.203 2.9867-5.4613 8.192-8.448 5.2907-3.072 11.947-3.072 6.5707 0 11.349 2.9013 4.7787 2.9013 7.3387 8.1067 2.56 5.2053 2.56 11.947zm-21.248-15.616q-6.2293 0-10.155 3.4133-3.84 3.4133-4.864 9.1307h28.416q-0.768-5.7173-4.2667-9.1307-3.4987-3.4133-9.1307-3.4133z"/><path d="m486.14 337.62q0 1.6213-1.1093 2.7307-1.1093 1.024-2.816 1.024h-32.427q0.93866 5.9733 5.376 9.6427 4.5227 3.6693 11.008 3.6693 2.56 0 5.2907-0.93866 2.816-0.93867 4.608-2.304 1.1947-0.93867 2.816-0.93867t2.56 0.85334q1.536 1.28 1.536 2.9013 0 1.536-1.3653 2.56-2.9013 2.304-7.2533 3.7547-4.2667 1.4507-8.192 1.4507-6.9973 0-12.544-2.9867-5.5467-3.072-8.704-8.448-3.072-5.376-3.072-12.203 0-6.8267 2.9013-12.203 2.9867-5.4613 8.192-8.448 5.2907-3.072 11.947-3.072 6.5707 0 11.349 2.9013 4.7787 2.9013 7.3387 8.1067t2.56 11.947zm-21.248-15.616q-6.2293 0-10.155 3.4133-3.84 3.4133-4.864 9.1307h28.416q-0.768-5.7173-4.2667-9.1307-3.4987-3.4133-9.1307-3.4133z"/><path d="m517.12 353.16q1.536 0 2.56 1.1947 1.1093 1.1947 1.1093 3.072t-1.4507 3.072q-1.3653 1.1947-3.584 1.1947h-1.536q-4.1813 0-7.68-2.1333-3.4133-2.2187-5.376-5.9733-1.9627-3.7547-1.9627-8.448v-21.077h-3.9253q-1.792 0-2.9013-1.024t-1.1093-2.56q0-1.7067 1.1093-2.7307t2.9013-1.024h3.9253v-12.288q0-1.8773 1.1947-3.072 1.1947-1.1947 3.072-1.1947t3.072 1.1947q1.1947 1.1947 1.1947 3.072v12.288h7.2533q1.792 0 2.9013 1.024 1.1093 1.024 1.1093 2.7307 0 1.536-1.1093 2.56-1.1093 1.024-2.9013 1.024h-7.2533v21.077q0 3.4133 1.8773 5.7173 1.8773 2.304 4.608 2.304z"/></g></g></svg>
