<?xml version="1.0" encoding="UTF-8"?>
<!-- Created with Inkscape (http://www.inkscape.org/) -->
<svg id="SVGRoot" width="720px" height="576px" version="1.1" viewBox="0 0 720 576" xml:space="preserve" xmlns="http://www.w3.org/2000/svg"><defs><filter id="filter1524" x="-.087909" y="-.1239" width="1.1758" height="1.2478" color-interpolation-filters="sRGB"><feFlood flood-color="rgb(56,56,56)" flood-opacity=".49804" result="flood"/><feComposite in="flood" in2="SourceGraphic" operator="in" result="composite1"/><feGaussianBlur in="composite1" result="blur" stdDeviation="21.9436"/><feOffset dx="0" dy="0" result="offset"/><feComposite in="SourceGraphic" in2="offset" result="composite2"/></filter></defs><rect x=".89597" y=".89597" width="718.21" height="574.21" fill="#e3e8fe"/><rect x="60.46" y="75.477" width="599.08" height="425.05" ry="45.182" fill="#fff" filter="url(#filter1524)" stroke-width="0"/><rect x="90.129" y="96.532" width="539.73" height="382.94" ry="40.706" fill="none" stroke="#6d6d6d" stroke-dasharray="14.11201955, 14.11201955" stroke-linecap="round" stroke-linejoin="round" stroke-width="2.352" style="paint-order:normal"/><g transform="matrix(1.2516 0 0 1.2516 19.562 72.86)"><g transform="matrix(.52837 0 0 .52837 132.12 53.785)"><path d="m401.02 326.91s55.99-33.063 67.751-97.581 5.5842-108.54-13.455-136.37c-19.039-27.835-29.038-18.363-29.038-18.363s20.779-20.477 5.1778-36.834c-15.601-16.356-23.977 8.4712-23.977 8.4712s-20.032-15.871-27.406-9.023 4.3833 31.194 4.3833 31.194-15 10.779-9.2904 21.657c5.7098 10.878 34.052-2.3278 34.052-2.3278s44.509 28.433 39.464 69.501-6.5499 102.51-41.687 118.47c-35.137 15.959-5.9743 51.21-5.9743 51.21z" fill="#558a39" stroke="#000" stroke-width="5.3"/><path d="m416.91 313.38-15.169 12.606s46.483 19.562 42.866 60.357c-3.6173 40.795-175.75 46.227-175.75 46.227s-201.3-10.683-199.87-36.934c1.4304-26.25 27.488-98.115 42.495-99.8 15.007-1.6846 280.42-9.7689 280.42-9.7689z" fill="#0342ef" stroke="#000" stroke-width="5.3"/><g transform="translate(531.21 .026661)"><g><g stroke="#000" stroke-width="5.3"><path d="m-129.89 272.81s16.012 22.118-26.439 35.156c-42.45 13.038-170.59 37.917-218.22 13.706-47.629-24.212-76.691-37.588-78.943-109.76-2.252-72.169 51.757-109.76 72.617-114.07 20.86-4.3107 88.424 16.347 88.424 16.347s35.163-29.757 71.635-30.733c36.472-0.97644 48.229 27.904 48.229 27.904s42.528-11.396 64.669 29.367c11.071 20.382-0.47625 42.594-20.158 60.53 39.565 19.768-3.3658 39.988-3.3658 39.988s21.817 5.0206 1.5458 31.568z" fill="#548c38"/><path d="m-128.07 201.25s-8.6154 43.575-151.15 37.27c-88.106 2.3262-112.33-28.817-130.9 9.2595-4.2872 34.343 128.73 49.792 174.19 43.453s106.03-18.427 106.03-18.427 9.5101-15.106 8.5028-20.277c-2.4371-12.509-11.801-10.125-11.801-10.125s21.87-12.312 21.746-22.967c-0.10366-8.9124-16.627-18.187-16.627-18.187z" fill="#a75b39" stroke-linecap="round"/><path d="m-133.19 242.41s-64.386 19.22-119.43 21.106-114.78-9.9017-114.78-9.9017" fill="#a75b39" stroke-linecap="round"/></g><g fill="none" stroke="#000" stroke-linecap="round" stroke-width="5.3"><path d="m-172.58 111.36s-31.424 4.0509-75.053 35.308"/><path d="m-274.17 130.66s40.949-29.252 80.49-14.428"/><path d="m-298.04 131.19s-21.813-20.723-65.637-12.014c-43.824 8.7095-41.377 28.385-41.377 28.385"/><path d="m-408 192.13s21.133 3.7386 53.207-28.658c32.074-32.396 57.266-18.569 57.266-18.569"/></g><path d="m-104.06 154.44s-37.166-33.772-77.197-21.365-23.828 23.644-53.503 36.721c-29.674 13.077-1.9946 31.311-1.9946 31.311s37.266 10.497 54.292 4.473 50.656-16.141 61.278-19.636c10.622-3.4945 13.5-9.1015 16.261-18.678s0.8633-12.827 0.8633-12.827z" fill="#fff" stroke="#000" stroke-linecap="round" stroke-width="5.3"/><path d="m-384.75 199.18s23.046-2.0075 44.041-26.046 78.541-23.722 94.949-11.964c16.408 11.757 11.311 25.074 11.311 25.074s5.891 19.091-73.943 40.4c-84.205-6.4503-76.339-42.368-76.359-27.462z" fill="#fff" stroke="#000" stroke-linecap="round" stroke-linejoin="round" stroke-width="5.3"/><path d="m-304.15 162.44c-1.5894 0.0129-3.2426 0.0801-4.9629 0.20507-34.972 13.761-10.709 60.939-10.709 60.939l12.766 3.0781 39.777-12.828s12.4-51.794-36.871-51.395zm-8.0117 7.4394a7.9337 9.1028 0 0 1 7.9336 9.1035 7.9337 9.1028 0 0 1-7.9336 9.1016 7.9337 9.1028 0 0 1-7.9336-9.1016 7.9337 9.1028 0 0 1 7.9336-9.1035zm25.438 4.377a9.7686 11.427 0 0 1 9.7695 11.428 9.7686 11.427 0 0 1-9.7695 11.426 9.7686 11.427 0 0 1-9.7676-11.426 9.7686 11.427 0 0 1 9.7676-11.428zm-20.309 16.473a6.1011 6.3568 0 0 1 6.1016 6.3555 6.1011 6.3568 0 0 1-6.1016 6.3574 6.1011 6.3568 0 0 1-6.0996-6.3574 6.1011 6.3568 0 0 1 6.0996-6.3555zm5.6094 12.807a5.0726 4.9084 0 0 1 5.0723 4.9102 5.0726 4.9084 0 0 1-5.0723 4.9082 5.0726 4.9084 0 0 1-5.0742-4.9082 5.0726 4.9084 0 0 1 5.0742-4.9102z"/><path d="m-165.45 138.69c-2.8537 0.0166-5.9907 0.348-9.4395 1.0391-47.059 30.622-4.4707 64.059-4.4707 64.059l39.689-10.713s11.953-54.604-25.779-54.385zm-10.623 10.088a6.6708 7.6921 0 0 1 6.6699 7.6914 6.6708 7.6921 0 0 1-6.6699 7.6914 6.6708 7.6921 0 0 1-6.6719-7.6914 6.6708 7.6921 0 0 1 6.6719-7.6914zm19.357 8.9902a8.6747 10.608 0 0 1 8.6738 10.607 8.6747 10.608 0 0 1-8.6738 10.607 8.6747 10.608 0 0 1-8.6738-10.607 8.6747 10.608 0 0 1 8.6738-10.607zm-21.674 13.301a5.6455 5.6514 0 0 1 5.6445 5.6504 5.6455 5.6514 0 0 1-5.6445 5.6523 5.6455 5.6514 0 0 1-5.6465-5.6523 5.6455 5.6514 0 0 1 5.6465-5.6504zm7 11.676a4.5836 4.618 0 0 1 4.582 4.6172 4.5836 4.618 0 0 1-4.582 4.6191 4.5836 4.618 0 0 1-4.584-4.6191 4.5836 4.618 0 0 1 4.584-4.6172z"/></g></g><path d="m121.5 369.48s-50.388-10.403-58.181-65.933c-7.7927-55.531-12.451-135.81-5.9368-168.87 6.5138-33.063 9.146-55.355 24.861-70.153 15.714-14.799 31.866-19.575 31.866-19.575s-13.529-19.048-2.7975-27.285c10.732-8.2375 27.629 11.093 27.629 11.093s11.5-24.148 21.802-10.615c10.302 13.533-5.091 27.857-5.091 27.857s10.872 12.54 0.92987 23.67c-9.9419 11.13-30.315-6.2295-30.315-6.2295s-33.919 20.556-36.982 59.923c-3.0629 39.366 6.8239 167.7 14.786 180.02 7.9625 12.323 23.305 19.87 23.305 19.87s7.2195 19.745 2.3133 38.012c-4.9062 18.266-8.1902 8.2138-8.1902 8.2138z" fill="#55893d" stroke="#000" stroke-width="4.4"/></g></g></svg>
