<?xml version="1.0" encoding="UTF-8"?>
<!-- Created with Inkscape (http://www.inkscape.org/) -->
<svg width="544" height="480" version="1.1" viewBox="0 0 544 480" xmlns="http://www.w3.org/2000/svg" xmlns:xlink="http://www.w3.org/1999/xlink"><defs><linearGradient id="linearGradient29222"><stop stop-color="#548c38" offset="0"/><stop stop-color="#0342ef" offset="1"/></linearGradient><linearGradient id="linearGradient29224" x1="47.898" x2="496.1" y1="296.33" y2="372.6" gradientUnits="userSpaceOnUse" xlink:href="#linearGradient29222"/></defs><g transform="matrix(.52837 0 0 .52837 132.12 53.785)"><path d="m401.02 326.91s55.99-33.063 67.751-97.581 5.5842-108.54-13.455-136.37c-19.039-27.835-29.038-18.363-29.038-18.363s20.779-20.477 5.1778-36.834c-15.601-16.356-23.977 8.4712-23.977 8.4712s-20.032-15.871-27.406-9.023 4.3833 31.194 4.3833 31.194-15 10.779-9.2904 21.657c5.7098 10.878 34.052-2.3278 34.052-2.3278s44.509 28.433 39.464 69.501-6.5499 102.51-41.687 118.47c-35.137 15.959-5.9743 51.21-5.9743 51.21z" fill="#558a39" stroke="#000" stroke-width="5.3"/><path d="m416.91 313.38-15.169 12.606s46.483 19.562 42.866 60.357c-3.6173 40.795-175.75 46.227-175.75 46.227s-201.3-10.683-199.87-36.934c1.4304-26.25 27.488-98.115 42.495-99.8 15.007-1.6846 280.42-9.7689 280.42-9.7689z" fill="#0342ef" stroke="#000" stroke-width="5.3"/><g transform="translate(531.21 .026661)"><g><g stroke="#000" stroke-width="5.3"><path d="m-129.89 272.81s16.012 22.118-26.439 35.156c-42.45 13.038-170.59 37.917-218.22 13.706-47.629-24.212-76.691-37.588-78.943-109.76-2.252-72.169 51.757-109.76 72.617-114.07 20.86-4.3107 88.424 16.347 88.424 16.347s35.163-29.757 71.635-30.733c36.472-0.97644 48.229 27.904 48.229 27.904s42.528-11.396 64.669 29.367c11.071 20.382-0.47625 42.594-20.158 60.53 39.565 19.768-3.3658 39.988-3.3658 39.988s21.817 5.0206 1.5458 31.568z" fill="#548c38"/><path d="m-128.07 201.25s-8.6154 43.575-151.15 37.27c-88.106 2.3262-112.33-28.817-130.9 9.2595-4.2872 34.343 128.73 49.792 174.19 43.453s106.03-18.427 106.03-18.427 9.5101-15.106 8.5028-20.277c-2.4371-12.509-11.801-10.125-11.801-10.125s21.87-12.312 21.746-22.967c-0.10366-8.9124-16.627-18.187-16.627-18.187z" fill="#a75b39" stroke-linecap="round"/><path d="m-133.19 242.41s-64.386 19.22-119.43 21.106-114.78-9.9017-114.78-9.9017" fill="#a75b39" stroke-linecap="round"/></g><g fill="none" stroke="#000" stroke-linecap="round" stroke-width="5.3"><path d="m-172.58 111.36s-31.424 4.0509-75.053 35.308"/><path d="m-274.17 130.66s40.949-29.252 80.49-14.428"/><path d="m-298.04 131.19s-21.813-20.723-65.637-12.014c-43.824 8.7095-41.377 28.385-41.377 28.385"/><path d="m-408 192.13s21.133 3.7386 53.207-28.658c32.074-32.396 57.266-18.569 57.266-18.569"/></g><path d="m-104.06 154.44s-37.166-33.772-77.197-21.365-23.828 23.644-53.503 36.721c-29.674 13.077-1.9946 31.311-1.9946 31.311s37.266 10.497 54.292 4.473 50.656-16.141 61.278-19.636c10.622-3.4945 13.5-9.1015 16.261-18.678s0.8633-12.827 0.8633-12.827z" fill="#fff" stroke="#000" stroke-linecap="round" stroke-width="5.3"/><path d="m-384.75 199.18s23.046-2.0075 44.041-26.046 78.541-23.722 94.949-11.964c16.408 11.757 11.311 25.074 11.311 25.074s5.891 19.091-73.943 40.4c-84.205-6.4503-76.339-42.368-76.359-27.462z" fill="#fff" stroke="#000" stroke-linecap="round" stroke-linejoin="round" stroke-width="5.3"/><path d="m-304.15 162.44c-1.5894 0.0129-3.2426 0.0801-4.9629 0.20507-34.972 13.761-10.709 60.939-10.709 60.939l12.766 3.0781 39.777-12.828s12.4-51.794-36.871-51.395zm-8.0117 7.4394a7.9337 9.1028 0 0 1 7.9336 9.1035 7.9337 9.1028 0 0 1-7.9336 9.1016 7.9337 9.1028 0 0 1-7.9336-9.1016 7.9337 9.1028 0 0 1 7.9336-9.1035zm25.438 4.377a9.7686 11.427 0 0 1 9.7695 11.428 9.7686 11.427 0 0 1-9.7695 11.426 9.7686 11.427 0 0 1-9.7676-11.426 9.7686 11.427 0 0 1 9.7676-11.428zm-20.309 16.473a6.1011 6.3568 0 0 1 6.1016 6.3555 6.1011 6.3568 0 0 1-6.1016 6.3574 6.1011 6.3568 0 0 1-6.0996-6.3574 6.1011 6.3568 0 0 1 6.0996-6.3555zm5.6094 12.807a5.0726 4.9084 0 0 1 5.0723 4.9102 5.0726 4.9084 0 0 1-5.0723 4.9082 5.0726 4.9084 0 0 1-5.0742-4.9082 5.0726 4.9084 0 0 1 5.0742-4.9102z"/><path d="m-165.45 138.69c-2.8537 0.0166-5.9907 0.348-9.4395 1.0391-47.059 30.622-4.4707 64.059-4.4707 64.059l39.689-10.713s11.953-54.604-25.779-54.385zm-10.623 10.088a6.6708 7.6921 0 0 1 6.6699 7.6914 6.6708 7.6921 0 0 1-6.6699 7.6914 6.6708 7.6921 0 0 1-6.6719-7.6914 6.6708 7.6921 0 0 1 6.6719-7.6914zm19.357 8.9902a8.6747 10.608 0 0 1 8.6738 10.607 8.6747 10.608 0 0 1-8.6738 10.607 8.6747 10.608 0 0 1-8.6738-10.607 8.6747 10.608 0 0 1 8.6738-10.607zm-21.674 13.301a5.6455 5.6514 0 0 1 5.6445 5.6504 5.6455 5.6514 0 0 1-5.6445 5.6523 5.6455 5.6514 0 0 1-5.6465-5.6523 5.6455 5.6514 0 0 1 5.6465-5.6504zm7 11.676a4.5836 4.618 0 0 1 4.582 4.6172 4.5836 4.618 0 0 1-4.582 4.6191 4.5836 4.618 0 0 1-4.584-4.6191 4.5836 4.618 0 0 1 4.584-4.6172z"/></g></g><path d="m121.5 369.48s-50.388-10.403-58.181-65.933c-7.7927-55.531-12.451-135.81-5.9368-168.87 6.5138-33.063 9.146-55.355 24.861-70.153 15.714-14.799 31.866-19.575 31.866-19.575s-13.529-19.048-2.7975-27.285c10.732-8.2375 27.629 11.093 27.629 11.093s11.5-24.148 21.802-10.615c10.302 13.533-5.091 27.857-5.091 27.857s10.872 12.54 0.92987 23.67c-9.9419 11.13-30.315-6.2295-30.315-6.2295s-33.919 20.556-36.982 59.923c-3.0629 39.366 6.8239 167.7 14.786 180.02 7.9625 12.323 23.305 19.87 23.305 19.87s7.2195 19.745 2.3133 38.012c-4.9062 18.266-8.1902 8.2138-8.1902 8.2138z" fill="#55893d" stroke="#000" stroke-width="4.4"/></g><g transform="translate(0 31.019)" fill="url(#linearGradient29224)" aria-label="Pirate Memes"><path d="m53.664 359.98q-1.408 0-2.368-0.96t-0.96-2.368v-43.328q0-1.472 0.96-2.368 0.96-0.96 2.368-0.96h12.8q4.736 0 8.448 2.112 3.776 2.112 5.824 5.888 2.112 3.776 2.112 8.576 0 4.672-2.112 8.32-2.048 3.648-5.824 5.696-3.712 2.048-8.448 2.048h-9.472v14.016q0 1.408-0.96 2.368-0.896 0.96-2.368 0.96zm12.8-23.488q4.352 0 7.168-2.752 2.816-2.816 2.816-7.168 0-4.544-2.816-7.488t-7.168-2.944h-9.472v20.352z"/><path d="m93.472 359.98q-1.408 0-2.368-0.896-0.896-0.96-0.896-2.368v-28.48q0-1.472 0.896-2.368 0.96-0.896 2.368-0.896 1.472 0 2.368 0.896t0.896 2.368v28.48q0 1.408-0.896 2.368-0.896 0.896-2.368 0.896zm0-40.704q-1.728 0-3.008-1.216-1.216-1.28-1.216-3.008t1.216-2.944q1.28-1.28 3.008-1.28t2.944 1.28q1.28 1.216 1.28 2.944t-1.28 3.008q-1.216 1.216-2.944 1.216z"/><path d="m126.05 324.59q3.392 0 5.312 1.024t1.92 2.56q0 0.448-0.064 0.64-0.576 2.048-2.56 2.048-0.32 0-0.96-0.128-2.56-0.448-4.16-0.448-4.608 0-7.424 2.112t-2.816 5.696v18.688q0 1.536-0.832 2.368-0.768 0.832-2.368 0.832-1.536 0-2.368-0.768-0.832-0.832-0.832-2.432v-28.608q0-1.536 0.832-2.368t2.368-0.832q3.2 0 3.2 3.2v1.216q1.92-2.24 4.736-3.52t6.016-1.28z"/><path d="m153.31 324.72q4.928 0 8.896 2.368 4.032 2.304 6.336 6.4 2.368 4.032 2.368 9.024v14.272q0 1.408-0.96 2.368-0.896 0.896-2.304 0.896t-2.368-0.896q-0.896-0.96-0.896-2.368v-2.368q-2.24 2.752-5.44 4.288t-6.912 1.536q-4.608 0-8.384-2.304-3.712-2.304-5.888-6.336-2.112-4.096-2.112-9.088t2.304-9.024q2.304-4.096 6.336-6.4 4.096-2.368 9.024-2.368zm0 29.76q3.2 0 5.76-1.536 2.624-1.6 4.096-4.288 1.472-2.752 1.472-6.144t-1.472-6.144-4.096-4.288q-2.56-1.6-5.76-1.6t-5.824 1.6q-2.56 1.536-4.096 4.288-1.472 2.752-1.472 6.144t1.472 6.144q1.536 2.688 4.096 4.288 2.624 1.536 5.824 1.536z"/><path d="m195.55 353.58q1.152 0 1.92 0.896 0.832 0.896 0.832 2.304t-1.088 2.304q-1.024 0.896-2.688 0.896h-1.152q-3.136 0-5.76-1.6-2.56-1.664-4.032-4.48t-1.472-6.336v-15.808h-2.944q-1.344 0-2.176-0.768t-0.832-1.92q0-1.28 0.832-2.048t2.176-0.768h2.944v-9.216q0-1.408 0.896-2.304t2.304-0.896 2.304 0.896 0.896 2.304v9.216h5.44q1.344 0 2.176 0.768t0.832 2.048q0 1.152-0.832 1.92t-2.176 0.768h-5.44v15.808q0 2.56 1.408 4.288t3.456 1.728z"/><path d="m237.73 341.94q0 1.216-0.832 2.048-0.832 0.768-2.112 0.768h-24.32q0.704 4.48 4.032 7.232 3.392 2.752 8.256 2.752 1.92 0 3.968-0.704 2.112-0.704 3.456-1.728 0.896-0.704 2.112-0.704t1.92 0.64q1.152 0.96 1.152 2.176 0 1.152-1.024 1.92-2.176 1.728-5.44 2.816-3.2 1.088-6.144 1.088-5.248 0-9.408-2.24-4.16-2.304-6.528-6.336-2.304-4.032-2.304-9.152t2.176-9.152q2.24-4.096 6.144-6.336 3.968-2.304 8.96-2.304 4.928 0 8.512 2.176t5.504 6.08 1.92 8.96zm-15.936-11.712q-4.672 0-7.616 2.56-2.88 2.56-3.648 6.848h21.312q-0.576-4.288-3.2-6.848t-6.848-2.56z"/><path d="m312.16 310q1.408 0 2.368 0.96t0.96 2.368v43.328q0 1.408-1.024 2.368-0.96 0.96-2.304 0.96-1.408 0-2.368-0.96t-0.96-2.368v-31.808l-15.488 31.552q-1.088 1.664-2.88 1.664-2.112 0-3.072-1.984l-15.296-30.656v31.232q0 1.408-0.96 2.368t-2.368 0.96-2.368-0.96-0.96-2.368v-43.328q0-1.408 0.96-2.368t2.368-0.96q1.92 0 2.944 1.792l19.008 38.08 18.496-38.08q1.024-1.792 2.944-1.792z"/><path d="m359.07 341.94q0 1.216-0.832 2.048-0.832 0.768-2.112 0.768h-24.32q0.704 4.48 4.032 7.232 3.392 2.752 8.256 2.752 1.92 0 3.968-0.704 2.112-0.704 3.456-1.728 0.896-0.704 2.112-0.704t1.92 0.64q1.152 0.96 1.152 2.176 0 1.152-1.024 1.92-2.176 1.728-5.44 2.816-3.2 1.088-6.144 1.088-5.248 0-9.408-2.24-4.16-2.304-6.528-6.336-2.304-4.032-2.304-9.152t2.176-9.152q2.24-4.096 6.144-6.336 3.968-2.304 8.96-2.304 4.928 0 8.512 2.176t5.504 6.08 1.92 8.96zm-15.936-11.712q-4.672 0-7.616 2.56-2.88 2.56-3.648 6.848h21.312q-0.576-4.288-3.2-6.848t-6.848-2.56z"/><path d="m404.19 324.66q5.568 0 8.96 3.648 3.456 3.648 3.456 10.176v18.304q0 1.408-0.896 2.368-0.896 0.896-2.368 0.896-1.408 0-2.368-0.896-0.896-0.96-0.896-2.368v-18.304q0-3.904-1.984-5.888-1.92-2.048-5.184-2.048-3.328 0-5.504 2.304-2.112 2.304-2.112 5.888v18.048q0 1.408-0.896 2.368-0.896 0.896-2.368 0.896-1.408 0-2.368-0.896-0.896-0.96-0.896-2.368v-18.304q0-3.904-1.984-5.888-1.92-2.048-5.184-2.048-3.392 0-5.568 2.304-2.112 2.304-2.112 5.888v18.048q0 1.408-0.896 2.368-0.896 0.896-2.368 0.896-1.408 0-2.368-0.896-0.896-0.96-0.896-2.368v-28.48q0-1.472 0.896-2.368 0.96-0.896 2.368-0.896t2.304 0.896q0.896 0.832 0.96 2.24 1.664-1.664 3.968-2.56 2.304-0.96 4.992-0.96 3.264 0 5.824 1.344 2.624 1.28 4.288 3.712 1.92-2.368 4.8-3.712t6.4-1.344z"/><path d="m458.85 341.94q0 1.216-0.832 2.048-0.832 0.768-2.112 0.768h-24.32q0.704 4.48 4.032 7.232 3.392 2.752 8.256 2.752 1.92 0 3.968-0.704 2.112-0.704 3.456-1.728 0.896-0.704 2.112-0.704t1.92 0.64q1.152 0.96 1.152 2.176 0 1.152-1.024 1.92-2.176 1.728-5.44 2.816-3.2 1.088-6.144 1.088-5.248 0-9.408-2.24-4.16-2.304-6.528-6.336-2.304-4.032-2.304-9.152t2.176-9.152q2.24-4.096 6.144-6.336 3.968-2.304 8.96-2.304 4.928 0 8.512 2.176t5.504 6.08 1.92 8.96zm-15.936-11.712q-4.672 0-7.616 2.56-2.88 2.56-3.648 6.848h21.312q-0.576-4.288-3.2-6.848t-6.848-2.56z"/><path d="m479.9 360.24q-4.352 0-8.192-1.344t-6.016-3.52q-0.832-0.832-0.832-1.984 0-1.536 1.28-2.496 1.216-0.896 2.24-0.896 1.28 0 2.432 1.152 1.216 1.344 3.648 2.368 2.432 0.96 5.184 0.96 3.648 0 5.632-1.216 2.048-1.216 2.048-3.264 0-1.984-1.984-3.264-1.984-1.344-6.72-2.24-12.288-2.368-12.288-10.112 0-3.136 1.856-5.312t4.864-3.264 6.4-1.088q4.16 0 7.424 1.344 3.328 1.344 5.248 3.712 0.832 1.024 0.832 2.048 0 1.088-1.088 1.984-0.704 0.512-1.792 0.512-1.664 0-3.008-1.216-1.6-1.472-3.392-2.048-1.792-0.64-4.352-0.64-2.944 0-4.864 1.024-1.856 0.96-1.856 2.752 0 1.28 0.64 2.176 0.64 0.832 2.432 1.6 1.792 0.704 5.184 1.408 6.976 1.408 9.856 3.904 2.944 2.496 2.944 6.464 0 2.944-1.6 5.376-1.6 2.368-4.736 3.776-3.072 1.344-7.424 1.344z"/></g></svg>
