<?xml version="1.0" encoding="UTF-8"?>
<!-- Created with Inkscape (http://www.inkscape.org/) -->
<svg width="544" height="480" version="1.1" viewBox="0 0 544 480" xmlns="http://www.w3.org/2000/svg" xmlns:xlink="http://www.w3.org/1999/xlink"><defs><linearGradient id="linearGradient2325"><stop stop-color="#1a1a1a" offset="0"/><stop stop-color="#6b6b6b" offset="1"/></linearGradient><linearGradient id="linearGradient7582" x1="-396.04" x2="-362.29" y1="322.19" y2="356.13" gradientTransform="matrix(4.4292 0 0 4.4292 2031.5 -1200.2)" gradientUnits="userSpaceOnUse" spreadMethod="reflect" xlink:href="#linearGradient7580"/><linearGradient id="linearGradient7580"><stop stop-color="#efeced" offset="0"/><stop stop-color="#8c8d8c" offset="1"/></linearGradient><filter id="filter18301-3-6-3" x="-.07254" y="-.07254" width="1.1451" height="1.1756" color-interpolation-filters="sRGB"><feFlood flood-color="rgb(0,0,0)" flood-opacity=".63922" result="flood"/><feComposite in="flood" in2="SourceGraphic" operator="in" result="composite1"/><feGaussianBlur in="composite1" result="blur" stdDeviation="9.34521"/><feOffset dx="0" dy="9.43102" result="offset"/><feComposite in="SourceGraphic" in2="offset" result="composite2"/></filter><linearGradient id="linearGradient15527" x1="265.24" x2="320.16" y1="198.52" y2="250.86" gradientTransform="translate(-5.9759 18.474)" gradientUnits="userSpaceOnUse" xlink:href="#linearGradient7580"/><linearGradient id="linearGradient2327" x1="182.35" x2="308.65" y1="227.63" y2="325.88" gradientUnits="userSpaceOnUse" xlink:href="#linearGradient2325"/><linearGradient id="linearGradient2655" x1="327.92" x2="355.07" y1="283.09" y2="283.09" gradientUnits="userSpaceOnUse" xlink:href="#linearGradient2325"/><linearGradient id="linearGradient2663" x1="155.08" x2="166.93" y1="297.08" y2="297.08" gradientUnits="userSpaceOnUse" xlink:href="#linearGradient2325"/></defs><g><g transform="matrix(1.4631 0 0 1.4631 -33.896 -145.04)"><rect x="171.5" y="226.94" width="151.51" height="109.65" ry="13.941" fill="url(#linearGradient2327)" stroke-linecap="round" stroke-linejoin="round" stroke-opacity=".38742" stroke-width="8.3" style="paint-order:fill markers stroke"/><g transform="matrix(.91036 0 0 .91036 -46.309 -246.88)"><g transform="matrix(.3704 0 0 .3704 276.43 403.15)"><path transform="translate(-7.6454 17.968)" d="m287.17 221.91c0.58384 0.52595-0.42092 1.0465-0.87416 0.97037-1.2282-0.20625-1.5045-1.7513-1.0666-2.7187 0.78342-1.7304 3.0357-2.0459 4.5632-1.1628 2.2416 1.296 2.6021 4.3372 1.259 6.4078-1.7902 2.7597-5.6447 3.1647-8.2523 1.3552-3.2814-2.2771-3.7305-6.955-1.4514-10.097 2.7603-3.8052 8.2669-4.2982 11.941-1.5476 4.3302 3.2415 4.8671 9.5798 1.6438 13.786-3.7214 4.8561-10.893 5.4368-15.63 1.74-5.3825-4.2005-6.007-12.207-1.8362-17.475 4.679-5.9094 13.522-6.5776 19.319-1.9324 6.4366 5.157 7.1485 14.836 2.0286 21.164-5.6348 6.9639-16.151 7.7197-23.008 2.1248-7.4915-6.1122-8.291-17.466-2.221-24.853 6.5896-8.0192 18.781-8.8624 26.698-2.3172 8.547 7.0667 9.434 20.096 2.4135 28.542-7.5437 9.0749-21.412 10.006-30.387 2.5097-9.6029-8.0207-10.577-22.727-2.6059-32.231 8.4975-10.131 24.043-11.149 34.076-2.7021 10.659 8.9743 11.721 25.358 2.7983 35.92-9.451 11.187-26.674 12.293-37.765 2.8945-11.715-9.9277-12.865-27.989-2.9907-39.609 10.404-12.244 29.305-13.437 41.454-3.0869 12.772 10.881 14.009 30.62 3.1831 43.298-11.357 13.3-31.936 14.581-45.143 3.2793-13.829-11.834-15.153-33.252-3.3755-46.987 12.31-14.357 34.567-15.725 48.832-3.4717 14.885 12.787 16.298 35.883 3.5679 50.676-13.263 15.414-37.199 16.87-52.521 3.6641-15.942-13.74-17.442-38.515-3.7604-54.365 14.216-16.47 39.83-18.014 56.21-3.8566 16.999 14.693 18.586 41.146 3.9528 58.055-15.169 17.527-42.462 19.158-59.899 4.049-18.056-15.645-19.731-43.778-4.1452-61.744 16.122-18.584 45.093-20.303 63.588-4.2414 19.113 16.598 20.875 46.409 4.3376 65.433-17.074 19.641-47.725 21.447-67.277 4.4338-20.17-17.551-22.02-49.041-4.53-69.122 18.027-20.698 50.357-22.592 70.966-4.6262 21.226 18.503 23.164 51.672 4.7224 72.811-18.98 21.755-52.988 23.736-74.655 4.8186-22.283-19.456-24.309-54.304-4.9148-76.5 19.932-22.812 55.62-24.881 78.344-5.011 23.34 20.409 25.453 56.936 5.1072 80.189-20.885 23.869-58.252 26.026-82.033 5.2034-24.397-21.361-26.598-59.567-5.2996-83.878 21.837-24.926 60.883-27.17 85.722-5.3959 25.454 22.314 27.742 62.199 5.4921 87.567-22.79 25.983-63.515 28.315-89.412 5.5883-26.511-23.266-28.887-64.831-5.6845-91.256 23.743-27.04 66.147-29.459 93.101-5.7807 27.569 24.219 30.032 67.463 5.8769 94.945-24.695 28.097-68.779 30.604-96.79 5.9731-28.626-25.171-31.176-70.094-6.0693-98.634 25.648-29.154 71.41-31.749 100.48-6.1655 29.683 26.124 32.321 72.726 6.2617 102.32-26.6 30.211-74.042 32.893-104.17 6.3579-30.74-27.076-33.466-75.358-6.4541-106.01 27.553-31.268 76.674-34.038 107.86-6.5503 31.797 28.029 34.61 77.99 6.6465 109.7-28.505 32.325-79.306 35.183-111.55 6.7427-32.854-28.981-35.755-80.621-6.8389-113.39 29.458-33.382 81.937-36.327 115.23-6.9352 33.911 29.934 36.9 83.253 7.0314 117.08-30.41 34.44-84.569 37.472-118.92 7.1276-34.968-30.886-38.044-85.885-7.2238-120.77 31.362-35.497 87.201-38.617 122.61-7.32 36.025 31.839 39.189 88.517 7.4162 124.46-32.315 36.554-89.833 39.761-126.3 7.5124-37.082-32.791-40.334-91.149-7.6086-128.15 33.267-37.611 92.465-40.906 129.99-7.7048 38.139 33.744 41.479 93.78 7.801 131.84-34.22 38.668-95.096 42.051-133.68 7.8972-39.197-34.696-42.623-96.412-7.9934-135.52 35.172-39.725 97.728-43.196 137.37-8.0896 40.254 35.648 43.768 99.044 8.1858 139.21-36.125 40.782-100.36 44.34-141.06 8.282-41.311-36.601-44.913-101.68-8.3782-142.9 37.077-41.839 102.99-45.485 144.75-8.4744 42.368 37.553 46.057 104.31 8.5707 146.59-38.03 42.896-105.62 46.63-148.44 8.6669-43.425-38.506-47.202-106.94-8.7631-150.28 38.982-43.954 108.26-47.774 152.13-8.8593 25.837 22.919 39.385 57.619 36.03 91.98" fill="none" stroke="#000" stroke-width="4.8"/><g stroke-linejoin="round" stroke-miterlimit="4.3"><path d="m281.03 79.272a154.59 154.59 0 0 0-154.6 154.6 154.59 154.59 0 0 0 154.6 154.59 154.59 154.59 0 0 0 154.59-154.59 154.59 154.59 0 0 0-154.59-154.6zm0.20773 29.707c28.714 2.4834 32.815 23.661 29.205 44.439-3.43 12.282-7.2024 28.055-29.205 31.679-22.003-3.6238-25.775-19.397-29.205-31.679-3.6102-20.778 0.4908-41.956 29.205-44.439zm-81.603 46.801c9.1848 0.49554 18.333 5.6301 26.428 12.388 8.9212 9.1112 20.692 20.268 12.829 41.134-14.14 17.243-29.683 12.617-42.034 9.4466-19.8-7.2626-36.091-21.401-23.885-47.51 8.2539-11.813 17.477-15.954 26.662-15.459zm162.99 0.3632c9.1848-0.49554 18.408 3.6548 26.662 15.468 12.206 26.109-4.0765 40.247-23.876 47.51-12.351 3.1704-27.903 7.7876-42.043-9.4552-7.863-20.867 3.9165-32.023 12.838-41.134 8.0947-6.7578 17.235-11.892 26.419-12.388zm-150.97 89.527c8.8128-0.61198 18.196 1.6198 27.034 12.397 7.863 20.867-3.9078 32.023-12.829 41.134-16.189 13.516-36.582 20.554-53.09-3.071-12.206-26.109 4.0851-40.247 23.885-47.51 4.6317-1.1889 9.7127-2.5828 15-2.9499zm138.54 0.3632c5.2877 0.36718 10.369 1.761 15 2.9499 19.8 7.2626 36.091 21.401 23.885 47.51-16.508 23.625-36.9 16.587-53.09 3.071-8.9212-9.1112-20.692-20.259-12.829-41.126 8.8372-10.777 18.221-13.017 27.034-12.405zm-69.379 36.601c22.003 3.6238 25.775 19.397 29.205 31.679 3.6102 20.778-0.4908 41.955-29.205 44.439-28.714-2.4834-32.815-23.661-29.205-44.439 3.43-12.282 7.2024-28.055 29.205-31.679z" fill="url(#linearGradient7582)" filter="url(#filter18301-3-6-3)" stroke-width="210.93" style="paint-order:fill markers stroke"/><circle cx="281.03" cy="233.87" r="33.891" fill="url(#linearGradient15527)" stroke="#000" stroke-opacity=".38742" stroke-width="5" style="paint-order:fill markers stroke"/><path transform="matrix(3.5119 0 0 3.5119 1669.2 -903.01)" d="m-392.28 325.65-2.1114-0.28571-0.97892 1.8924-0.80824-1.9713-2.1283 0.0984 1.3031-1.6856-1.1494-1.794 2.1114 0.28571 0.97892-1.8924 0.80824 1.9713 2.1283-0.0984-1.3031 1.6856z" fill-opacity=".4785" stroke-width="47.622" style="paint-order:fill markers stroke"/></g></g></g><path d="m327.92 255.28 27.143-11.891v79.411l-27.143-12.378z" fill="url(#linearGradient2655)" stroke-linecap="round" stroke-linejoin="round" stroke-opacity=".38742" stroke-width="8.3" style="paint-order:fill markers stroke"/><path d="m155.08 282.65 11.841 7.0373v15.228l-11.841 6.5832z" fill="url(#linearGradient2663)" stroke-linecap="round" stroke-linejoin="round" stroke-opacity=".38742" stroke-width="8.3" style="paint-order:fill markers stroke"/><g transform="matrix(.80784 0 0 .80784 -126.46 -177.2)"><g transform="matrix(.3704 0 0 .3704 276.43 403.15)"><path transform="translate(-7.6454 17.968)" d="m287.17 221.91c0.58384 0.52595-0.42092 1.0465-0.87416 0.97037-1.2282-0.20625-1.5045-1.7513-1.0666-2.7187 0.78342-1.7304 3.0357-2.0459 4.5632-1.1628 2.2416 1.296 2.6021 4.3372 1.259 6.4078-1.7902 2.7597-5.6447 3.1647-8.2523 1.3552-3.2814-2.2771-3.7305-6.955-1.4514-10.097 2.7603-3.8052 8.2669-4.2982 11.941-1.5476 4.3302 3.2415 4.8671 9.5798 1.6438 13.786-3.7214 4.8561-10.893 5.4368-15.63 1.74-5.3825-4.2005-6.007-12.207-1.8362-17.475 4.679-5.9094 13.522-6.5776 19.319-1.9324 6.4366 5.157 7.1485 14.836 2.0286 21.164-5.6348 6.9639-16.151 7.7197-23.008 2.1248-7.4915-6.1122-8.291-17.466-2.221-24.853 6.5896-8.0192 18.781-8.8624 26.698-2.3172 8.547 7.0667 9.434 20.096 2.4135 28.542-7.5437 9.0749-21.412 10.006-30.387 2.5097-9.6029-8.0207-10.577-22.727-2.6059-32.231 8.4975-10.131 24.043-11.149 34.076-2.7021 10.659 8.9743 11.721 25.358 2.7983 35.92-9.451 11.187-26.674 12.293-37.765 2.8945-11.715-9.9277-12.865-27.989-2.9907-39.609 10.404-12.244 29.305-13.437 41.454-3.0869 12.772 10.881 14.009 30.62 3.1831 43.298-11.357 13.3-31.936 14.581-45.143 3.2793-13.829-11.834-15.153-33.252-3.3755-46.987 12.31-14.357 34.567-15.725 48.832-3.4717 14.885 12.787 16.298 35.883 3.5679 50.676-13.263 15.414-37.199 16.87-52.521 3.6641-15.942-13.74-17.442-38.515-3.7604-54.365 14.216-16.47 39.83-18.014 56.21-3.8566 16.999 14.693 18.586 41.146 3.9528 58.055-15.169 17.527-42.462 19.158-59.899 4.049-18.056-15.645-19.731-43.778-4.1452-61.744 16.122-18.584 45.093-20.303 63.588-4.2414 19.113 16.598 20.875 46.409 4.3376 65.433-17.074 19.641-47.725 21.447-67.277 4.4338-20.17-17.551-22.02-49.041-4.53-69.122 18.027-20.698 50.357-22.592 70.966-4.6262 21.226 18.503 23.164 51.672 4.7224 72.811-18.98 21.755-52.988 23.736-74.655 4.8186-22.283-19.456-24.309-54.304-4.9148-76.5 19.932-22.812 55.62-24.881 78.344-5.011 23.34 20.409 25.453 56.936 5.1072 80.189-20.885 23.869-58.252 26.026-82.033 5.2034-24.397-21.361-26.598-59.567-5.2996-83.878 21.837-24.926 60.883-27.17 85.722-5.3959 25.454 22.314 27.742 62.199 5.4921 87.567-22.79 25.983-63.515 28.315-89.412 5.5883-26.511-23.266-28.887-64.831-5.6845-91.256 23.743-27.04 66.147-29.459 93.101-5.7807 27.569 24.219 30.032 67.463 5.8769 94.945-24.695 28.097-68.779 30.604-96.79 5.9731-28.626-25.171-31.176-70.094-6.0693-98.634 25.648-29.154 71.41-31.749 100.48-6.1655 29.683 26.124 32.321 72.726 6.2617 102.32-26.6 30.211-74.042 32.893-104.17 6.3579-30.74-27.076-33.466-75.358-6.4541-106.01 27.553-31.268 76.674-34.038 107.86-6.5503 31.797 28.029 34.61 77.99 6.6465 109.7-28.505 32.325-79.306 35.183-111.55 6.7427-32.854-28.981-35.755-80.621-6.8389-113.39 29.458-33.382 81.937-36.327 115.23-6.9352 33.911 29.934 36.9 83.253 7.0314 117.08-30.41 34.44-84.569 37.472-118.92 7.1276-34.968-30.886-38.044-85.885-7.2238-120.77 31.362-35.497 87.201-38.617 122.61-7.32 36.025 31.839 39.189 88.517 7.4162 124.46-32.315 36.554-89.833 39.761-126.3 7.5124-37.082-32.791-40.334-91.149-7.6086-128.15 33.267-37.611 92.465-40.906 129.99-7.7048 38.139 33.744 41.479 93.78 7.801 131.84-34.22 38.668-95.096 42.051-133.68 7.8972-39.197-34.696-42.623-96.412-7.9934-135.52 35.172-39.725 97.728-43.196 137.37-8.0896 40.254 35.648 43.768 99.044 8.1858 139.21-36.125 40.782-100.36 44.34-141.06 8.282-41.311-36.601-44.913-101.68-8.3782-142.9 37.077-41.839 102.99-45.485 144.75-8.4744 42.368 37.553 46.057 104.31 8.5707 146.59-38.03 42.896-105.62 46.63-148.44 8.6669-43.425-38.506-47.202-106.94-8.7631-150.28 38.982-43.954 108.26-47.774 152.13-8.8593 25.837 22.919 39.385 57.619 36.03 91.98" fill="none" stroke="#000" stroke-width="4.8"/><g stroke-linejoin="round" stroke-miterlimit="4.3"><path d="m281.03 79.272a154.59 154.59 0 0 0-154.6 154.6 154.59 154.59 0 0 0 154.6 154.59 154.59 154.59 0 0 0 154.59-154.59 154.59 154.59 0 0 0-154.59-154.6zm0.20773 29.707c28.714 2.4834 32.815 23.661 29.205 44.439-3.43 12.282-7.2024 28.055-29.205 31.679-22.003-3.6238-25.775-19.397-29.205-31.679-3.6102-20.778 0.4908-41.956 29.205-44.439zm-81.603 46.801c9.1848 0.49554 18.333 5.6301 26.428 12.388 8.9212 9.1112 20.692 20.268 12.829 41.134-14.14 17.243-29.683 12.617-42.034 9.4466-19.8-7.2626-36.091-21.401-23.885-47.51 8.2539-11.813 17.477-15.954 26.662-15.459zm162.99 0.3632c9.1848-0.49554 18.408 3.6548 26.662 15.468 12.206 26.109-4.0765 40.247-23.876 47.51-12.351 3.1704-27.903 7.7876-42.043-9.4552-7.863-20.867 3.9165-32.023 12.838-41.134 8.0947-6.7578 17.235-11.892 26.419-12.388zm-150.97 89.527c8.8128-0.61198 18.196 1.6198 27.034 12.397 7.863 20.867-3.9078 32.023-12.829 41.134-16.189 13.516-36.582 20.554-53.09-3.071-12.206-26.109 4.0851-40.247 23.885-47.51 4.6317-1.1889 9.7127-2.5828 15-2.9499zm138.54 0.3632c5.2877 0.36718 10.369 1.761 15 2.9499 19.8 7.2626 36.091 21.401 23.885 47.51-16.508 23.625-36.9 16.587-53.09 3.071-8.9212-9.1112-20.692-20.259-12.829-41.126 8.8372-10.777 18.221-13.017 27.034-12.405zm-69.379 36.601c22.003 3.6238 25.775 19.397 29.205 31.679 3.6102 20.778-0.4908 41.955-29.205 44.439-28.714-2.4834-32.815-23.661-29.205-44.439 3.43-12.282 7.2024-28.055 29.205-31.679z" fill="url(#linearGradient7582)" filter="url(#filter18301-3-6-3)" stroke-width="210.93" style="paint-order:fill markers stroke"/><circle cx="281.03" cy="233.87" r="33.891" fill="url(#linearGradient15527)" stroke="#000" stroke-opacity=".38742" stroke-width="5" style="paint-order:fill markers stroke"/><path transform="matrix(3.5119 0 0 3.5119 1669.2 -903.01)" d="m-392.28 325.65-2.1114-0.28571-0.97892 1.8924-0.80824-1.9713-2.1283 0.0984 1.3031-1.6856-1.1494-1.794 2.1114 0.28571 0.97892-1.8924 0.80824 1.9713 2.1283-0.0984-1.3031 1.6856z" fill-opacity=".4785" stroke-width="47.622" style="paint-order:fill markers stroke"/></g></g></g></g><g transform="translate(-26.273 8.4293)" stroke-linecap="round" stroke-linejoin="round" stroke-opacity=".38742"><g transform="translate(-67.836 9.9487)" stroke-width="8.3"><path d="m180.57 197.29 25.959 168.7h97.061l25.959-168.7h-74.49z" fill="#d34141" style="paint-order:fill markers stroke"/><g fill="#fff"><path d="m194.8 197.53h16.886l14.266 163.67h-10.733zm121.44 0h-16.886l-14.266 163.67h10.733z" style="paint-order:fill markers stroke"/><path d="m228.02 197.53h16.886l3.4963 163.67h-10.733zm55.011 0h-16.886l-3.4963 163.67h10.733z" style="paint-order:fill markers stroke"/></g></g><g stroke-width="8.6938"><path d="m230.23 139.97c-4.8376 2.3e-4 -8.7592 3.9525-8.7598 8.8281 8e-3 1.8841 0.61358 3.7162 1.7285 5.2285-1.4497-1.098-3.2166-1.6957-5.0352-1.7031-4.6373-1.3e-4 -8.3966 3.7592-8.3965 8.3965-1.3e-4 4.6373 3.7592 8.3966 8.3965 8.3965 1.7787-8e-3 3.509-0.58018 4.9414-1.6348-0.0738 0.44024-0.1123 0.88566-0.11524 1.332-1.3e-4 4.6373 3.7592 8.3966 8.3965 8.3965 4.6373 1.3e-4 8.3966-3.7592 8.3965-8.3965-5e-3 -0.71917-0.10323-1.4347-0.29101-2.1289 1.2154 0.65848 2.5747 1.0067 3.957 1.0137 4.6365 1.3e-4 8.3955-3.758 8.3965-8.3945 1.3e-4 -4.6373-3.7592-8.3966-8.3965-8.3965-2.0391 2e-3 -4.008 0.74506-5.5391 2.0918 0.70123-1.288 1.0725-2.732 1.0801-4.2012-5.2e-4 -4.8756-3.9222-8.8279-8.7598-8.8281z" fill="#f9d180" style="paint-order:fill markers stroke"/><path d="m203.74 190.92c-4.8376 2.3e-4 -8.7592 3.9525-8.7598 8.8281 8e-3 1.8841 0.61358 3.7162 1.7285 5.2285-1.4497-1.098-3.2166-1.6957-5.0352-1.7031-4.6373-1.3e-4 -8.3966 3.7592-8.3965 8.3965-1.3e-4 4.6373 3.7592 8.3966 8.3965 8.3965 1.7787-8e-3 3.509-0.58018 4.9414-1.6348-0.0738 0.44024-0.1123 0.88566-0.11524 1.332-1.3e-4 4.6373 3.7592 8.3966 8.3965 8.3965 4.6373 1.3e-4 8.3966-3.7592 8.3965-8.3965-5e-3 -0.71917-0.10323-1.4347-0.29101-2.1289 1.2154 0.65848 2.5747 1.0067 3.957 1.0137 4.6365 1.3e-4 8.3955-3.758 8.3965-8.3945 1.3e-4 -4.6373-3.7592-8.3966-8.3965-8.3965-2.0391 2e-3 -4.008 0.74506-5.5391 2.0918 0.70123-1.288 1.0725-2.732 1.0801-4.2012-5.2e-4 -4.8756-3.9222-8.8279-8.7598-8.8281z" fill="#fbe7c2" style="paint-order:fill markers stroke"/><path d="m115.6 148.82c-4.8376 2.3e-4 -8.7592 3.9525-8.7598 8.8281 8e-3 1.8841 0.61358 3.7162 1.7285 5.2285-1.4497-1.098-3.2166-1.6957-5.0352-1.7031-4.6373-1.3e-4 -8.3966 3.7592-8.3965 8.3965-1.3e-4 4.6373 3.7592 8.3966 8.3965 8.3965 1.7787-8e-3 3.509-0.58018 4.9414-1.6348-0.0738 0.44024-0.1123 0.88566-0.11524 1.332-1.3e-4 4.6373 3.7592 8.3966 8.3965 8.3965 4.6373 1.3e-4 8.3966-3.7592 8.3965-8.3965-5e-3 -0.71917-0.10323-1.4347-0.29101-2.1289 1.2154 0.65848 2.5747 1.0067 3.957 1.0137 4.6365 1.3e-4 8.3955-3.758 8.3965-8.3945 1.3e-4 -4.6373-3.7592-8.3966-8.3965-8.3965-2.0391 2e-3 -4.008 0.74506-5.5391 2.0918 0.70123-1.288 1.0725-2.732 1.0801-4.2012-5.2e-4 -4.8756-3.9222-8.8279-8.7598-8.8281z" fill="#f6b137" style="paint-order:fill markers stroke"/><path d="m187.37 128.94c-4.8376 2.3e-4 -8.7592 3.9525-8.7598 8.8281 8e-3 1.8841 0.61358 3.7162 1.7285 5.2285-1.4497-1.098-3.2166-1.6957-5.0352-1.7031-4.6373-1.3e-4 -8.3966 3.7592-8.3965 8.3965-1.3e-4 4.6373 3.7592 8.3966 8.3965 8.3965 1.7787-8e-3 3.509-0.58018 4.9414-1.6348-0.0738 0.44024-0.1123 0.88566-0.11524 1.332-1.3e-4 4.6373 3.7592 8.3966 8.3965 8.3965 4.6373 1.3e-4 8.3966-3.7592 8.3965-8.3965-5e-3 -0.71917-0.10323-1.4347-0.29101-2.1289 1.2154 0.65848 2.5747 1.0067 3.957 1.0137 4.6365 1.3e-4 8.3955-3.758 8.3965-8.3945 1.3e-4 -4.6373-3.7592-8.3966-8.3965-8.3965-2.0391 2e-3 -4.008 0.74506-5.5391 2.0918 0.70123-1.288 1.0725-2.732 1.0801-4.2012-5.2e-4 -4.8756-3.9222-8.8279-8.7598-8.8281z" fill="#fcdda5" style="paint-order:fill markers stroke"/><path d="m194.28 131.72c-4.8376 2.3e-4 -8.7592 3.9525-8.7598 8.8281 8e-3 1.8841 0.61358 3.7162 1.7285 5.2285-1.4497-1.098-3.2166-1.6957-5.0352-1.7031-4.6373-1.3e-4 -8.3966 3.7592-8.3965 8.3965-1.3e-4 4.6373 3.7592 8.3966 8.3965 8.3965 1.7787-8e-3 3.509-0.58018 4.9414-1.6348-0.0738 0.44024-0.1123 0.88566-0.11524 1.332-1.3e-4 4.6373 3.7592 8.3966 8.3965 8.3965 4.6373 1.3e-4 8.3966-3.7592 8.3965-8.3965-5e-3 -0.71917-0.10323-1.4347-0.29101-2.1289 1.2154 0.65848 2.5747 1.0067 3.957 1.0137 4.6365 1.3e-4 8.3955-3.758 8.3965-8.3945 1.3e-4 -4.6373-3.7592-8.3966-8.3965-8.3965-2.0391 2e-3 -4.008 0.74506-5.5391 2.0918 0.70123-1.288 1.0725-2.732 1.0801-4.2012-5.2e-4 -4.8756-3.9222-8.8279-8.7598-8.8281z" fill="#f9d180" style="paint-order:fill markers stroke"/><path d="m120.86 173c-4.8376 2.3e-4 -8.7592 3.9525-8.7598 8.8281 8e-3 1.8841 0.61358 3.7162 1.7285 5.2285-1.4497-1.098-3.2166-1.6957-5.0352-1.7031-4.6373-1.3e-4 -8.3966 3.7592-8.3965 8.3965-1.3e-4 4.6373 3.7592 8.3966 8.3965 8.3965 1.7787-8e-3 3.509-0.58018 4.9414-1.6348-0.0738 0.44024-0.1123 0.88566-0.11524 1.332-1.3e-4 4.6373 3.7592 8.3966 8.3965 8.3965 4.6373 1.3e-4 8.3966-3.7592 8.3965-8.3965-5e-3 -0.71917-0.10323-1.4347-0.29101-2.1289 1.2154 0.65848 2.5747 1.0067 3.957 1.0137 4.6365 1.3e-4 8.3955-3.758 8.3965-8.3945 1.3e-4 -4.6373-3.7592-8.3966-8.3965-8.3965-2.0391 2e-3 -4.008 0.74506-5.5391 2.0918 0.70123-1.288 1.0725-2.732 1.0801-4.2012-5.2e-4 -4.8756-3.9222-8.8279-8.7598-8.8281z" fill="#fbe7c2" style="paint-order:fill markers stroke"/><path d="m168.08 180.03c-4.8376 2.3e-4 -8.7592 3.9525-8.7598 8.8281 8e-3 1.8841 0.61358 3.7162 1.7285 5.2285-1.4497-1.098-3.2166-1.6957-5.0352-1.7031-4.6373-1.3e-4 -8.3966 3.7592-8.3965 8.3965-1.3e-4 4.6373 3.7592 8.3966 8.3965 8.3965 1.7787-8e-3 3.509-0.58018 4.9414-1.6348-0.0738 0.44024-0.1123 0.88566-0.11524 1.332-1.3e-4 4.6373 3.7592 8.3966 8.3965 8.3965 4.6373 1.3e-4 8.3966-3.7592 8.3965-8.3965-5e-3 -0.71917-0.10323-1.4347-0.29101-2.1289 1.2154 0.65848 2.5747 1.0067 3.957 1.0137 4.6365 1.3e-4 8.3955-3.758 8.3965-8.3945 1.3e-4 -4.6373-3.7592-8.3966-8.3965-8.3965-2.0391 2e-3 -4.008 0.74506-5.5391 2.0918 0.70123-1.288 1.0725-2.732 1.0801-4.2012-5.2e-4 -4.8756-3.9222-8.8279-8.7598-8.8281z" fill="#f6b137" style="paint-order:fill markers stroke"/><path d="m131.1 143.95c-4.8376 2.3e-4 -8.7592 3.9525-8.7598 8.8281 8e-3 1.8841 0.61358 3.7162 1.7285 5.2285-1.4497-1.098-3.2166-1.6957-5.0352-1.7031-4.6373-1.3e-4 -8.3966 3.7592-8.3965 8.3965-1.3e-4 4.6373 3.7592 8.3966 8.3965 8.3965 1.7787-8e-3 3.509-0.58018 4.9414-1.6348-0.0738 0.44024-0.1123 0.88566-0.11524 1.332-1.3e-4 4.6373 3.7592 8.3966 8.3965 8.3965 4.6373 1.3e-4 8.3966-3.7592 8.3965-8.3965-5e-3 -0.71917-0.10323-1.4347-0.29101-2.1289 1.2154 0.65848 2.5747 1.0067 3.957 1.0137 4.6365 1.3e-4 8.3955-3.758 8.3965-8.3945 1.3e-4 -4.6373-3.7592-8.3966-8.3965-8.3965-2.0391 2e-3 -4.008 0.74506-5.5391 2.0918 0.70123-1.288 1.0725-2.732 1.0801-4.2012-5.2e-4 -4.8756-3.9222-8.8279-8.7598-8.8281z" fill="#fcdda5" style="paint-order:fill markers stroke"/><path d="m210.09 146.02c-4.8376 2.3e-4 -8.7592 3.9525-8.7598 8.8281 8e-3 1.8841 0.61358 3.7162 1.7285 5.2285-1.4497-1.098-3.2166-1.6957-5.0352-1.7031-4.6373-1.3e-4 -8.3966 3.7592-8.3965 8.3965-1.3e-4 4.6373 3.7592 8.3966 8.3965 8.3965 1.7787-8e-3 3.509-0.58018 4.9414-1.6348-0.0738 0.44024-0.1123 0.88566-0.11524 1.332-1.3e-4 4.6373 3.7592 8.3966 8.3965 8.3965 4.6373 1.3e-4 8.3966-3.7592 8.3965-8.3965-5e-3 -0.71917-0.10323-1.4347-0.29101-2.1289 1.2154 0.65848 2.5747 1.0067 3.957 1.0137 4.6365 1.3e-4 8.3955-3.758 8.3965-8.3945 1.3e-4 -4.6373-3.7592-8.3966-8.3965-8.3965-2.0391 2e-3 -4.008 0.74506-5.5391 2.0918 0.70123-1.288 1.0725-2.732 1.0801-4.2012-5.2e-4 -4.8756-3.9222-8.8279-8.7598-8.8281z" fill="#f9d180" style="paint-order:fill markers stroke"/><path d="m213.82 169.23c-4.8376 2.3e-4 -8.7592 3.9525-8.7598 8.8281 8e-3 1.8841 0.61358 3.7162 1.7285 5.2285-1.4497-1.098-3.2166-1.6957-5.0352-1.7031-4.6373-1.3e-4 -8.3966 3.7592-8.3965 8.3965-1.3e-4 4.6373 3.7592 8.3966 8.3965 8.3965 1.7787-8e-3 3.509-0.58018 4.9414-1.6348-0.0738 0.44024-0.1123 0.88566-0.11524 1.332-1.3e-4 4.6373 3.7592 8.3966 8.3965 8.3965 4.6373 1.3e-4 8.3966-3.7592 8.3965-8.3965-5e-3 -0.71917-0.10323-1.4347-0.29101-2.1289 1.2154 0.65848 2.5747 1.0067 3.957 1.0137 4.6365 1.3e-4 8.3955-3.758 8.3965-8.3945 1.3e-4 -4.6373-3.7592-8.3966-8.3965-8.3965-2.0391 2e-3 -4.008 0.74506-5.5391 2.0918 0.70123-1.288 1.0725-2.732 1.0801-4.2012-5.2e-4 -4.8756-3.9222-8.8279-8.7598-8.8281z" fill="#fbe7c2" style="paint-order:fill markers stroke"/><path d="m242.57 154.44c-4.8376 2.3e-4 -8.7592 3.9525-8.7598 8.8281 8e-3 1.8841 0.61358 3.7162 1.7285 5.2285-1.4497-1.098-3.2166-1.6957-5.0352-1.7031-4.6373-1.3e-4 -8.3966 3.7592-8.3965 8.3965-1.3e-4 4.6373 3.7592 8.3966 8.3965 8.3965 1.7787-8e-3 3.509-0.58018 4.9414-1.6348-0.0738 0.44024-0.1123 0.88566-0.11524 1.332-1.3e-4 4.6373 3.7592 8.3966 8.3965 8.3965 4.6373 1.3e-4 8.3966-3.7592 8.3965-8.3965-5e-3 -0.71917-0.10323-1.4347-0.29101-2.1289 1.2154 0.65848 2.5747 1.0067 3.957 1.0137 4.6365 1.3e-4 8.3955-3.758 8.3965-8.3945 1.3e-4 -4.6373-3.7592-8.3966-8.3965-8.3965-2.0391 2e-3 -4.008 0.74506-5.5391 2.0918 0.70123-1.288 1.0725-2.732 1.0801-4.2012-5.2e-4 -4.8756-3.9222-8.8279-8.7598-8.8281z" fill="#f6b137" style="paint-order:fill markers stroke"/><path d="m257.36 174.56c-4.8376 2.3e-4 -8.7592 3.9525-8.7598 8.8281 8e-3 1.8841 0.61358 3.7162 1.7285 5.2285-1.4497-1.098-3.2166-1.6957-5.0352-1.7031-4.6373-1.3e-4 -8.3966 3.7592-8.3965 8.3965-1.3e-4 4.6373 3.7592 8.3966 8.3965 8.3965 1.7787-8e-3 3.509-0.58018 4.9414-1.6348-0.0738 0.44024-0.1123 0.88566-0.11524 1.332-1.3e-4 4.6373 3.7592 8.3966 8.3965 8.3965 4.6373 1.3e-4 8.3966-3.7592 8.3965-8.3965-5e-3 -0.71917-0.10323-1.4347-0.29101-2.1289 1.2154 0.65848 2.5747 1.0067 3.957 1.0137 4.6365 1.3e-4 8.3955-3.758 8.3965-8.3945 1.3e-4 -4.6373-3.7592-8.3966-8.3965-8.3965-2.0391 2e-3 -4.008 0.74506-5.5391 2.0918 0.70123-1.288 1.0725-2.732 1.0801-4.2012-5.2e-4 -4.8756-3.9222-8.8279-8.7598-8.8281z" fill="#fcdda5" style="paint-order:fill markers stroke"/><path d="m110.45 177.62c-4.8376 2.3e-4 -8.7592 3.9525-8.7598 8.8281 8e-3 1.8841 0.61358 3.7162 1.7285 5.2285-1.4497-1.098-3.2166-1.6957-5.0352-1.7031-4.6373-1.3e-4 -8.3966 3.7592-8.3965 8.3965-1.3e-4 4.6373 3.7592 8.3966 8.3965 8.3965 1.7787-8e-3 3.509-0.58018 4.9414-1.6348-0.0738 0.44024-0.1123 0.88566-0.11524 1.332-1.3e-4 4.6373 3.7592 8.3966 8.3965 8.3965 4.6373 1.3e-4 8.3966-3.7592 8.3965-8.3965-5e-3 -0.71917-0.10323-1.4347-0.29101-2.1289 1.2154 0.65848 2.5747 1.0067 3.957 1.0137 4.6365 1.3e-4 8.3955-3.758 8.3965-8.3945 1.3e-4 -4.6373-3.7592-8.3966-8.3965-8.3965-2.0391 2e-3 -4.008 0.74506-5.5391 2.0918 0.70123-1.288 1.0725-2.732 1.0801-4.2012-5.2e-4 -4.8756-3.9222-8.8279-8.7598-8.8281z" fill="#f9d180" style="paint-order:fill markers stroke"/><path d="m171.58 155.82c-4.8376 2.3e-4 -8.7592 3.9525-8.7598 8.8281 8e-3 1.8841 0.61358 3.7162 1.7285 5.2285-1.4497-1.098-3.2166-1.6957-5.0352-1.7031-4.6373-1.3e-4 -8.3966 3.7592-8.3965 8.3965-1.3e-4 4.6373 3.7592 8.3966 8.3965 8.3965 1.7787-8e-3 3.509-0.58018 4.9414-1.6348-0.0738 0.44024-0.1123 0.88566-0.11524 1.332-1.3e-4 4.6373 3.7592 8.3966 8.3965 8.3965 4.6373 1.3e-4 8.3966-3.7592 8.3965-8.3965-5e-3 -0.71917-0.10323-1.4347-0.29101-2.1289 1.2154 0.65848 2.5747 1.0067 3.957 1.0137 4.6365 1.3e-4 8.3955-3.758 8.3965-8.3945 1.3e-4 -4.6373-3.7592-8.3966-8.3965-8.3965-2.0391 2e-3 -4.008 0.74506-5.5391 2.0918 0.70123-1.288 1.0725-2.732 1.0801-4.2012-5.2e-4 -4.8756-3.9222-8.8279-8.7598-8.8281z" fill="#fbe7c2" style="paint-order:fill markers stroke"/><path d="m163.11 143.84c-4.8376 2.3e-4 -8.7592 3.9525-8.7598 8.8281 8e-3 1.8841 0.61358 3.7162 1.7285 5.2285-1.4497-1.098-3.2166-1.6957-5.0352-1.7031-4.6373-1.3e-4 -8.3966 3.7592-8.3965 8.3965-1.3e-4 4.6373 3.7592 8.3966 8.3965 8.3965 1.7787-8e-3 3.509-0.58018 4.9414-1.6348-0.0738 0.44024-0.1123 0.88566-0.11524 1.332-1.3e-4 4.6373 3.7592 8.3966 8.3965 8.3965 4.6373 1.3e-4 8.3966-3.7592 8.3965-8.3965-5e-3 -0.71917-0.10323-1.4347-0.29101-2.1289 1.2154 0.65848 2.5747 1.0067 3.957 1.0137 4.6365 1.3e-4 8.3955-3.758 8.3965-8.3945 1.3e-4 -4.6373-3.7592-8.3966-8.3965-8.3965-2.0391 2e-3 -4.008 0.74506-5.5391 2.0918 0.70123-1.288 1.0725-2.732 1.0801-4.2012-5.2e-4 -4.8756-3.9222-8.8279-8.7598-8.8281z" fill="#f6b137" style="paint-order:fill markers stroke"/><path d="m143.16 178.58c-4.8376 2.3e-4 -8.7592 3.9525-8.7598 8.8281 8e-3 1.8841 0.61358 3.7162 1.7285 5.2285-1.4497-1.098-3.2166-1.6957-5.0352-1.7031-4.6373-1.3e-4 -8.3966 3.7592-8.3965 8.3965-1.3e-4 4.6373 3.7592 8.3966 8.3965 8.3965 1.7787-8e-3 3.509-0.58018 4.9414-1.6348-0.0738 0.44024-0.1123 0.88566-0.11524 1.332-1.3e-4 4.6373 3.7592 8.3966 8.3965 8.3965 4.6373 1.3e-4 8.3966-3.7592 8.3965-8.3965-5e-3 -0.71917-0.10323-1.4347-0.29101-2.1289 1.2154 0.65848 2.5747 1.0067 3.957 1.0137 4.6365 1.3e-4 8.3955-3.758 8.3965-8.3945 1.3e-4 -4.6373-3.7592-8.3966-8.3965-8.3965-2.0391 2e-3 -4.008 0.74506-5.5391 2.0918 0.70123-1.288 1.0725-2.732 1.0801-4.2012-5.2e-4 -4.8756-3.9222-8.8279-8.7598-8.8281z" fill="#fcdda5" style="paint-order:fill markers stroke"/><path d="m147.42 163.38c-4.8376 2.3e-4 -8.7592 3.9525-8.7598 8.8281 8e-3 1.8841 0.61358 3.7162 1.7285 5.2285-1.4497-1.098-3.2166-1.6957-5.0352-1.7031-4.6373-1.3e-4 -8.3966 3.7592-8.3965 8.3965-1.3e-4 4.6373 3.7592 8.3966 8.3965 8.3965 1.7787-8e-3 3.509-0.58018 4.9414-1.6348-0.0738 0.44024-0.1123 0.88566-0.11524 1.332-1.3e-4 4.6373 3.7592 8.3966 8.3965 8.3965 4.6373 1.3e-4 8.3966-3.7592 8.3965-8.3965-5e-3 -0.71917-0.10323-1.4347-0.29101-2.1289 1.2154 0.65848 2.5747 1.0067 3.957 1.0137 4.6365 1.3e-4 8.3955-3.758 8.3965-8.3945 1.3e-4 -4.6373-3.7592-8.3966-8.3965-8.3965-2.0391 2e-3 -4.008 0.74506-5.5391 2.0918 0.70123-1.288 1.0725-2.732 1.0801-4.2012-5.2e-4 -4.8756-3.9222-8.8279-8.7598-8.8281z" fill="#f9d180" style="paint-order:fill markers stroke"/><path d="m194.93 180.23c-4.8376 2.3e-4 -8.7592 3.9525-8.7598 8.8281 8e-3 1.8841 0.61358 3.7162 1.7285 5.2285-1.4497-1.098-3.2166-1.6957-5.0352-1.7031-4.6373-1.3e-4 -8.3966 3.7592-8.3965 8.3965-1.3e-4 4.6373 3.7592 8.3966 8.3965 8.3965 1.7787-8e-3 3.509-0.58018 4.9414-1.6348-0.0738 0.44024-0.1123 0.88566-0.11524 1.332-1.3e-4 4.6373 3.7592 8.3966 8.3965 8.3965 4.6373 1.3e-4 8.3966-3.7592 8.3965-8.3965-5e-3 -0.71917-0.10323-1.4347-0.29101-2.1289 1.2154 0.65848 2.5747 1.0067 3.957 1.0137 4.6365 1.3e-4 8.3955-3.758 8.3965-8.3945 1.3e-4 -4.6373-3.7592-8.3966-8.3965-8.3965-2.0391 2e-3 -4.008 0.74506-5.5391 2.0918 0.70123-1.288 1.0725-2.732 1.0801-4.2012-5.2e-4 -4.8756-3.9222-8.8279-8.7598-8.8281z" fill="#fbe7c2" style="paint-order:fill markers stroke"/><path d="m238.34 182.57c-4.8376 2.3e-4 -8.7592 3.9525-8.7598 8.8281 8e-3 1.8841 0.61358 3.7162 1.7285 5.2285-1.4497-1.098-3.2166-1.6957-5.0352-1.7031-4.6373-1.3e-4 -8.3966 3.7592-8.3965 8.3965-1.3e-4 4.6373 3.7592 8.3966 8.3965 8.3965 1.7787-8e-3 3.509-0.58018 4.9414-1.6348-0.0738 0.44024-0.1123 0.88566-0.11524 1.332-1.3e-4 4.6373 3.7592 8.3966 8.3965 8.3965 4.6373 1.3e-4 8.3966-3.7592 8.3965-8.3965-5e-3 -0.71917-0.10323-1.4347-0.29101-2.1289 1.2154 0.65848 2.5747 1.0067 3.957 1.0137 4.6365 1.3e-4 8.3955-3.758 8.3965-8.3945 1.3e-4 -4.6373-3.7592-8.3966-8.3965-8.3965-2.0391 2e-3 -4.008 0.74506-5.5391 2.0918 0.70123-1.288 1.0725-2.732 1.0801-4.2012-5.2e-4 -4.8756-3.9222-8.8279-8.7598-8.8281z" fill="#f6b137" style="paint-order:fill markers stroke"/><path d="m184.27 161.47c-4.8376 2.3e-4 -8.7592 3.9525-8.7598 8.8281 8e-3 1.8841 0.61358 3.7162 1.7285 5.2285-1.4497-1.098-3.2166-1.6957-5.0352-1.7031-4.6373-1.3e-4 -8.3966 3.7592-8.3965 8.3965-1.3e-4 4.6373 3.7592 8.3966 8.3965 8.3965 1.7787-8e-3 3.509-0.58018 4.9414-1.6348-0.0738 0.44024-0.1123 0.88566-0.11524 1.332-1.3e-4 4.6373 3.7592 8.3966 8.3965 8.3965 4.6373 1.3e-4 8.3966-3.7592 8.3965-8.3965-5e-3 -0.71917-0.10323-1.4347-0.29101-2.1289 1.2154 0.65848 2.5747 1.0067 3.957 1.0137 4.6365 1.3e-4 8.3955-3.758 8.3965-8.3945 1.3e-4 -4.6373-3.7592-8.3966-8.3965-8.3965-2.0391 2e-3 -4.008 0.74506-5.5391 2.0918 0.70123-1.288 1.0725-2.732 1.0801-4.2012-5.2e-4 -4.8756-3.9222-8.8279-8.7598-8.8281z" fill="#fcdda5" style="paint-order:fill markers stroke"/></g></g></g></svg>
