<?xml version="1.0" encoding="UTF-8"?>
<!-- Created with Inkscape (http://www.inkscape.org/) -->
<svg width="544" height="480" version="1.1" viewBox="0 0 544 480" xmlns="http://www.w3.org/2000/svg" xmlns:xlink="http://www.w3.org/1999/xlink"><defs><linearGradient id="linearGradient7984"><stop stop-color="#f40000" offset="0"/><stop offset="1"/></linearGradient><linearGradient id="linearGradient2325"><stop stop-color="#1a1a1a" offset="0"/><stop stop-color="#6b6b6b" offset="1"/></linearGradient><linearGradient id="linearGradient7582" x1="-396.04" x2="-362.29" y1="322.19" y2="356.13" gradientTransform="matrix(4.4292 0 0 4.4292 2031.5 -1200.2)" gradientUnits="userSpaceOnUse" spreadMethod="reflect" xlink:href="#linearGradient7580"/><linearGradient id="linearGradient7580"><stop stop-color="#efeced" offset="0"/><stop stop-color="#8c8d8c" offset="1"/></linearGradient><filter id="filter18301-3-6-3" x="-.07254" y="-.07254" width="1.1451" height="1.1756" color-interpolation-filters="sRGB"><feFlood flood-color="rgb(0,0,0)" flood-opacity=".63922" result="flood"/><feComposite in="flood" in2="SourceGraphic" operator="in" result="composite1"/><feGaussianBlur in="composite1" result="blur" stdDeviation="9.34521"/><feOffset dx="0" dy="9.43102" result="offset"/><feComposite in="SourceGraphic" in2="offset" result="composite2"/></filter><linearGradient id="linearGradient15527" x1="265.24" x2="320.16" y1="198.52" y2="250.86" gradientTransform="translate(-5.9759 18.474)" gradientUnits="userSpaceOnUse" xlink:href="#linearGradient7580"/><linearGradient id="linearGradient2327" x1="182.35" x2="308.65" y1="227.63" y2="325.88" gradientUnits="userSpaceOnUse" xlink:href="#linearGradient2325"/><linearGradient id="linearGradient2655" x1="327.92" x2="355.07" y1="283.09" y2="283.09" gradientUnits="userSpaceOnUse" xlink:href="#linearGradient2325"/><linearGradient id="linearGradient2663" x1="155.08" x2="166.93" y1="297.08" y2="297.08" gradientUnits="userSpaceOnUse" xlink:href="#linearGradient2325"/><linearGradient id="linearGradient7820" x1="25.301" x2="516.06" y1="301.78" y2="380.34" gradientUnits="userSpaceOnUse" xlink:href="#linearGradient7984"/></defs><g><g transform="matrix(1.0224 0 0 1.0224 22.663 -83.828)"><rect x="171.5" y="226.94" width="151.51" height="109.65" ry="13.941" fill="url(#linearGradient2327)" stroke-linecap="round" stroke-linejoin="round" stroke-opacity=".38742" stroke-width="8.3" style="paint-order:fill markers stroke"/><g transform="matrix(.91036 0 0 .91036 -46.309 -246.88)"><g transform="matrix(.3704 0 0 .3704 276.43 403.15)"><path transform="translate(-7.6454 17.968)" d="m287.17 221.91c0.58384 0.52595-0.42092 1.0465-0.87416 0.97037-1.2282-0.20625-1.5045-1.7513-1.0666-2.7187 0.78342-1.7304 3.0357-2.0459 4.5632-1.1628 2.2416 1.296 2.6021 4.3372 1.259 6.4078-1.7902 2.7597-5.6447 3.1647-8.2523 1.3552-3.2814-2.2771-3.7305-6.955-1.4514-10.097 2.7603-3.8052 8.2669-4.2982 11.941-1.5476 4.3302 3.2415 4.8671 9.5798 1.6438 13.786-3.7214 4.8561-10.893 5.4368-15.63 1.74-5.3825-4.2005-6.007-12.207-1.8362-17.475 4.679-5.9094 13.522-6.5776 19.319-1.9324 6.4366 5.157 7.1485 14.836 2.0286 21.164-5.6348 6.9639-16.151 7.7197-23.008 2.1248-7.4915-6.1122-8.291-17.466-2.221-24.853 6.5896-8.0192 18.781-8.8624 26.698-2.3172 8.547 7.0667 9.434 20.096 2.4135 28.542-7.5437 9.0749-21.412 10.006-30.387 2.5097-9.6029-8.0207-10.577-22.727-2.6059-32.231 8.4975-10.131 24.043-11.149 34.076-2.7021 10.659 8.9743 11.721 25.358 2.7983 35.92-9.451 11.187-26.674 12.293-37.765 2.8945-11.715-9.9277-12.865-27.989-2.9907-39.609 10.404-12.244 29.305-13.437 41.454-3.0869 12.772 10.881 14.009 30.62 3.1831 43.298-11.357 13.3-31.936 14.581-45.143 3.2793-13.829-11.834-15.153-33.252-3.3755-46.987 12.31-14.357 34.567-15.725 48.832-3.4717 14.885 12.787 16.298 35.883 3.5679 50.676-13.263 15.414-37.199 16.87-52.521 3.6641-15.942-13.74-17.442-38.515-3.7604-54.365 14.216-16.47 39.83-18.014 56.21-3.8566 16.999 14.693 18.586 41.146 3.9528 58.055-15.169 17.527-42.462 19.158-59.899 4.049-18.056-15.645-19.731-43.778-4.1452-61.744 16.122-18.584 45.093-20.303 63.588-4.2414 19.113 16.598 20.875 46.409 4.3376 65.433-17.074 19.641-47.725 21.447-67.277 4.4338-20.17-17.551-22.02-49.041-4.53-69.122 18.027-20.698 50.357-22.592 70.966-4.6262 21.226 18.503 23.164 51.672 4.7224 72.811-18.98 21.755-52.988 23.736-74.655 4.8186-22.283-19.456-24.309-54.304-4.9148-76.5 19.932-22.812 55.62-24.881 78.344-5.011 23.34 20.409 25.453 56.936 5.1072 80.189-20.885 23.869-58.252 26.026-82.033 5.2034-24.397-21.361-26.598-59.567-5.2996-83.878 21.837-24.926 60.883-27.17 85.722-5.3959 25.454 22.314 27.742 62.199 5.4921 87.567-22.79 25.983-63.515 28.315-89.412 5.5883-26.511-23.266-28.887-64.831-5.6845-91.256 23.743-27.04 66.147-29.459 93.101-5.7807 27.569 24.219 30.032 67.463 5.8769 94.945-24.695 28.097-68.779 30.604-96.79 5.9731-28.626-25.171-31.176-70.094-6.0693-98.634 25.648-29.154 71.41-31.749 100.48-6.1655 29.683 26.124 32.321 72.726 6.2617 102.32-26.6 30.211-74.042 32.893-104.17 6.3579-30.74-27.076-33.466-75.358-6.4541-106.01 27.553-31.268 76.674-34.038 107.86-6.5503 31.797 28.029 34.61 77.99 6.6465 109.7-28.505 32.325-79.306 35.183-111.55 6.7427-32.854-28.981-35.755-80.621-6.8389-113.39 29.458-33.382 81.937-36.327 115.23-6.9352 33.911 29.934 36.9 83.253 7.0314 117.08-30.41 34.44-84.569 37.472-118.92 7.1276-34.968-30.886-38.044-85.885-7.2238-120.77 31.362-35.497 87.201-38.617 122.61-7.32 36.025 31.839 39.189 88.517 7.4162 124.46-32.315 36.554-89.833 39.761-126.3 7.5124-37.082-32.791-40.334-91.149-7.6086-128.15 33.267-37.611 92.465-40.906 129.99-7.7048 38.139 33.744 41.479 93.78 7.801 131.84-34.22 38.668-95.096 42.051-133.68 7.8972-39.197-34.696-42.623-96.412-7.9934-135.52 35.172-39.725 97.728-43.196 137.37-8.0896 40.254 35.648 43.768 99.044 8.1858 139.21-36.125 40.782-100.36 44.34-141.06 8.282-41.311-36.601-44.913-101.68-8.3782-142.9 37.077-41.839 102.99-45.485 144.75-8.4744 42.368 37.553 46.057 104.31 8.5707 146.59-38.03 42.896-105.62 46.63-148.44 8.6669-43.425-38.506-47.202-106.94-8.7631-150.28 38.982-43.954 108.26-47.774 152.13-8.8593 25.837 22.919 39.385 57.619 36.03 91.98" fill="none" stroke="#000" stroke-width="4.8"/><g stroke-linejoin="round" stroke-miterlimit="4.3"><path d="m281.03 79.272a154.59 154.59 0 0 0-154.6 154.6 154.59 154.59 0 0 0 154.6 154.59 154.59 154.59 0 0 0 154.59-154.59 154.59 154.59 0 0 0-154.59-154.6zm0.20773 29.707c28.714 2.4834 32.815 23.661 29.205 44.439-3.43 12.282-7.2024 28.055-29.205 31.679-22.003-3.6238-25.775-19.397-29.205-31.679-3.6102-20.778 0.4908-41.956 29.205-44.439zm-81.603 46.801c9.1848 0.49554 18.333 5.6301 26.428 12.388 8.9212 9.1112 20.692 20.268 12.829 41.134-14.14 17.243-29.683 12.617-42.034 9.4466-19.8-7.2626-36.091-21.401-23.885-47.51 8.2539-11.813 17.477-15.954 26.662-15.459zm162.99 0.3632c9.1848-0.49554 18.408 3.6548 26.662 15.468 12.206 26.109-4.0765 40.247-23.876 47.51-12.351 3.1704-27.903 7.7876-42.043-9.4552-7.863-20.867 3.9165-32.023 12.838-41.134 8.0947-6.7578 17.235-11.892 26.419-12.388zm-150.97 89.527c8.8128-0.61198 18.196 1.6198 27.034 12.397 7.863 20.867-3.9078 32.023-12.829 41.134-16.189 13.516-36.582 20.554-53.09-3.071-12.206-26.109 4.0851-40.247 23.885-47.51 4.6317-1.1889 9.7127-2.5828 15-2.9499zm138.54 0.3632c5.2877 0.36718 10.369 1.761 15 2.9499 19.8 7.2626 36.091 21.401 23.885 47.51-16.508 23.625-36.9 16.587-53.09 3.071-8.9212-9.1112-20.692-20.259-12.829-41.126 8.8372-10.777 18.221-13.017 27.034-12.405zm-69.379 36.601c22.003 3.6238 25.775 19.397 29.205 31.679 3.6102 20.778-0.4908 41.955-29.205 44.439-28.714-2.4834-32.815-23.661-29.205-44.439 3.43-12.282 7.2024-28.055 29.205-31.679z" fill="url(#linearGradient7582)" filter="url(#filter18301-3-6-3)" stroke-width="210.93" style="paint-order:fill markers stroke"/><circle cx="281.03" cy="233.87" r="33.891" fill="url(#linearGradient15527)" stroke="#000" stroke-opacity=".38742" stroke-width="5" style="paint-order:fill markers stroke"/><path transform="matrix(3.5119 0 0 3.5119 1669.2 -903.01)" d="m-392.28 325.65-2.1114-0.28571-0.97892 1.8924-0.80824-1.9713-2.1283 0.0984 1.3031-1.6856-1.1494-1.794 2.1114 0.28571 0.97892-1.8924 0.80824 1.9713 2.1283-0.0984-1.3031 1.6856z" fill-opacity=".4785" stroke-width="47.622" style="paint-order:fill markers stroke"/></g></g></g><path d="m327.92 255.28 27.143-11.891v79.411l-27.143-12.378z" fill="url(#linearGradient2655)" stroke-linecap="round" stroke-linejoin="round" stroke-opacity=".38742" stroke-width="8.3" style="paint-order:fill markers stroke"/><path d="m155.08 282.65 11.841 7.0373v15.228l-11.841 6.5832z" fill="url(#linearGradient2663)" stroke-linecap="round" stroke-linejoin="round" stroke-opacity=".38742" stroke-width="8.3" style="paint-order:fill markers stroke"/><g transform="matrix(.80784 0 0 .80784 -126.46 -177.2)"><g transform="matrix(.3704 0 0 .3704 276.43 403.15)"><path transform="translate(-7.6454 17.968)" d="m287.17 221.91c0.58384 0.52595-0.42092 1.0465-0.87416 0.97037-1.2282-0.20625-1.5045-1.7513-1.0666-2.7187 0.78342-1.7304 3.0357-2.0459 4.5632-1.1628 2.2416 1.296 2.6021 4.3372 1.259 6.4078-1.7902 2.7597-5.6447 3.1647-8.2523 1.3552-3.2814-2.2771-3.7305-6.955-1.4514-10.097 2.7603-3.8052 8.2669-4.2982 11.941-1.5476 4.3302 3.2415 4.8671 9.5798 1.6438 13.786-3.7214 4.8561-10.893 5.4368-15.63 1.74-5.3825-4.2005-6.007-12.207-1.8362-17.475 4.679-5.9094 13.522-6.5776 19.319-1.9324 6.4366 5.157 7.1485 14.836 2.0286 21.164-5.6348 6.9639-16.151 7.7197-23.008 2.1248-7.4915-6.1122-8.291-17.466-2.221-24.853 6.5896-8.0192 18.781-8.8624 26.698-2.3172 8.547 7.0667 9.434 20.096 2.4135 28.542-7.5437 9.0749-21.412 10.006-30.387 2.5097-9.6029-8.0207-10.577-22.727-2.6059-32.231 8.4975-10.131 24.043-11.149 34.076-2.7021 10.659 8.9743 11.721 25.358 2.7983 35.92-9.451 11.187-26.674 12.293-37.765 2.8945-11.715-9.9277-12.865-27.989-2.9907-39.609 10.404-12.244 29.305-13.437 41.454-3.0869 12.772 10.881 14.009 30.62 3.1831 43.298-11.357 13.3-31.936 14.581-45.143 3.2793-13.829-11.834-15.153-33.252-3.3755-46.987 12.31-14.357 34.567-15.725 48.832-3.4717 14.885 12.787 16.298 35.883 3.5679 50.676-13.263 15.414-37.199 16.87-52.521 3.6641-15.942-13.74-17.442-38.515-3.7604-54.365 14.216-16.47 39.83-18.014 56.21-3.8566 16.999 14.693 18.586 41.146 3.9528 58.055-15.169 17.527-42.462 19.158-59.899 4.049-18.056-15.645-19.731-43.778-4.1452-61.744 16.122-18.584 45.093-20.303 63.588-4.2414 19.113 16.598 20.875 46.409 4.3376 65.433-17.074 19.641-47.725 21.447-67.277 4.4338-20.17-17.551-22.02-49.041-4.53-69.122 18.027-20.698 50.357-22.592 70.966-4.6262 21.226 18.503 23.164 51.672 4.7224 72.811-18.98 21.755-52.988 23.736-74.655 4.8186-22.283-19.456-24.309-54.304-4.9148-76.5 19.932-22.812 55.62-24.881 78.344-5.011 23.34 20.409 25.453 56.936 5.1072 80.189-20.885 23.869-58.252 26.026-82.033 5.2034-24.397-21.361-26.598-59.567-5.2996-83.878 21.837-24.926 60.883-27.17 85.722-5.3959 25.454 22.314 27.742 62.199 5.4921 87.567-22.79 25.983-63.515 28.315-89.412 5.5883-26.511-23.266-28.887-64.831-5.6845-91.256 23.743-27.04 66.147-29.459 93.101-5.7807 27.569 24.219 30.032 67.463 5.8769 94.945-24.695 28.097-68.779 30.604-96.79 5.9731-28.626-25.171-31.176-70.094-6.0693-98.634 25.648-29.154 71.41-31.749 100.48-6.1655 29.683 26.124 32.321 72.726 6.2617 102.32-26.6 30.211-74.042 32.893-104.17 6.3579-30.74-27.076-33.466-75.358-6.4541-106.01 27.553-31.268 76.674-34.038 107.86-6.5503 31.797 28.029 34.61 77.99 6.6465 109.7-28.505 32.325-79.306 35.183-111.55 6.7427-32.854-28.981-35.755-80.621-6.8389-113.39 29.458-33.382 81.937-36.327 115.23-6.9352 33.911 29.934 36.9 83.253 7.0314 117.08-30.41 34.44-84.569 37.472-118.92 7.1276-34.968-30.886-38.044-85.885-7.2238-120.77 31.362-35.497 87.201-38.617 122.61-7.32 36.025 31.839 39.189 88.517 7.4162 124.46-32.315 36.554-89.833 39.761-126.3 7.5124-37.082-32.791-40.334-91.149-7.6086-128.15 33.267-37.611 92.465-40.906 129.99-7.7048 38.139 33.744 41.479 93.78 7.801 131.84-34.22 38.668-95.096 42.051-133.68 7.8972-39.197-34.696-42.623-96.412-7.9934-135.52 35.172-39.725 97.728-43.196 137.37-8.0896 40.254 35.648 43.768 99.044 8.1858 139.21-36.125 40.782-100.36 44.34-141.06 8.282-41.311-36.601-44.913-101.68-8.3782-142.9 37.077-41.839 102.99-45.485 144.75-8.4744 42.368 37.553 46.057 104.31 8.5707 146.59-38.03 42.896-105.62 46.63-148.44 8.6669-43.425-38.506-47.202-106.94-8.7631-150.28 38.982-43.954 108.26-47.774 152.13-8.8593 25.837 22.919 39.385 57.619 36.03 91.98" fill="none" stroke="#000" stroke-width="4.8"/><g stroke-linejoin="round" stroke-miterlimit="4.3"><path d="m281.03 79.272a154.59 154.59 0 0 0-154.6 154.6 154.59 154.59 0 0 0 154.6 154.59 154.59 154.59 0 0 0 154.59-154.59 154.59 154.59 0 0 0-154.59-154.6zm0.20773 29.707c28.714 2.4834 32.815 23.661 29.205 44.439-3.43 12.282-7.2024 28.055-29.205 31.679-22.003-3.6238-25.775-19.397-29.205-31.679-3.6102-20.778 0.4908-41.956 29.205-44.439zm-81.603 46.801c9.1848 0.49554 18.333 5.6301 26.428 12.388 8.9212 9.1112 20.692 20.268 12.829 41.134-14.14 17.243-29.683 12.617-42.034 9.4466-19.8-7.2626-36.091-21.401-23.885-47.51 8.2539-11.813 17.477-15.954 26.662-15.459zm162.99 0.3632c9.1848-0.49554 18.408 3.6548 26.662 15.468 12.206 26.109-4.0765 40.247-23.876 47.51-12.351 3.1704-27.903 7.7876-42.043-9.4552-7.863-20.867 3.9165-32.023 12.838-41.134 8.0947-6.7578 17.235-11.892 26.419-12.388zm-150.97 89.527c8.8128-0.61198 18.196 1.6198 27.034 12.397 7.863 20.867-3.9078 32.023-12.829 41.134-16.189 13.516-36.582 20.554-53.09-3.071-12.206-26.109 4.0851-40.247 23.885-47.51 4.6317-1.1889 9.7127-2.5828 15-2.9499zm138.54 0.3632c5.2877 0.36718 10.369 1.761 15 2.9499 19.8 7.2626 36.091 21.401 23.885 47.51-16.508 23.625-36.9 16.587-53.09 3.071-8.9212-9.1112-20.692-20.259-12.829-41.126 8.8372-10.777 18.221-13.017 27.034-12.405zm-69.379 36.601c22.003 3.6238 25.775 19.397 29.205 31.679 3.6102 20.778-0.4908 41.955-29.205 44.439-28.714-2.4834-32.815-23.661-29.205-44.439 3.43-12.282 7.2024-28.055 29.205-31.679z" fill="url(#linearGradient7582)" filter="url(#filter18301-3-6-3)" stroke-width="210.93" style="paint-order:fill markers stroke"/><circle cx="281.03" cy="233.87" r="33.891" fill="url(#linearGradient15527)" stroke="#000" stroke-opacity=".38742" stroke-width="5" style="paint-order:fill markers stroke"/><path transform="matrix(3.5119 0 0 3.5119 1669.2 -903.01)" d="m-392.28 325.65-2.1114-0.28571-0.97892 1.8924-0.80824-1.9713-2.1283 0.0984 1.3031-1.6856-1.1494-1.794 2.1114 0.28571 0.97892-1.8924 0.80824 1.9713 2.1283-0.0984-1.3031 1.6856z" fill-opacity=".4785" stroke-width="47.622" style="paint-order:fill markers stroke"/></g></g></g></g><g transform="translate(1e-6 41.481)" fill="url(#linearGradient7820)" aria-label="Pirated Movies"><path d="m33.856 357.18q-1.408 0-2.368-0.96t-0.96-2.368v-43.328q0-1.472 0.96-2.368 0.96-0.96 2.368-0.96h12.8q4.736 0 8.448 2.112 3.776 2.112 5.824 5.888 2.112 3.776 2.112 8.576 0 4.672-2.112 8.32-2.048 3.648-5.824 5.696-3.712 2.048-8.448 2.048h-9.472v14.016q0 1.408-0.96 2.368-0.896 0.96-2.368 0.96zm12.8-23.488q4.352 0 7.168-2.752 2.816-2.816 2.816-7.168 0-4.544-2.816-7.488t-7.168-2.944h-9.472v20.352z"/><path d="m73.664 357.18q-1.408 0-2.368-0.896-0.896-0.96-0.896-2.368v-28.48q0-1.472 0.896-2.368 0.96-0.896 2.368-0.896 1.472 0 2.368 0.896t0.896 2.368v28.48q0 1.408-0.896 2.368-0.896 0.896-2.368 0.896zm0-40.704q-1.728 0-3.008-1.216-1.216-1.28-1.216-3.008t1.216-2.944q1.28-1.28 3.008-1.28t2.944 1.28q1.28 1.216 1.28 2.944t-1.28 3.008q-1.216 1.216-2.944 1.216z"/><path d="m106.24 321.79q3.392 0 5.312 1.024t1.92 2.56q0 0.448-0.064 0.64-0.576 2.048-2.56 2.048-0.32 0-0.96-0.128-2.56-0.448-4.16-0.448-4.608 0-7.424 2.112-2.816 2.112-2.816 5.696v18.688q0 1.536-0.832 2.368-0.768 0.832-2.368 0.832-1.536 0-2.368-0.768-0.832-0.832-0.832-2.432v-28.608q0-1.536 0.832-2.368t2.368-0.832q3.2 0 3.2 3.2v1.216q1.92-2.24 4.736-3.52 2.816-1.28 6.016-1.28z"/><path d="m133.5 321.92q4.928 0 8.896 2.368 4.032 2.304 6.336 6.4 2.368 4.032 2.368 9.024v14.272q0 1.408-0.96 2.368-0.896 0.896-2.304 0.896t-2.368-0.896q-0.896-0.96-0.896-2.368v-2.368q-2.24 2.752-5.44 4.288t-6.912 1.536q-4.608 0-8.384-2.304-3.712-2.304-5.888-6.336-2.112-4.096-2.112-9.088t2.304-9.024q2.304-4.096 6.336-6.4 4.096-2.368 9.024-2.368zm0 29.76q3.2 0 5.76-1.536 2.624-1.6 4.096-4.288 1.472-2.752 1.472-6.144t-1.472-6.144-4.096-4.288q-2.56-1.6-5.76-1.6t-5.824 1.6q-2.56 1.536-4.096 4.288-1.472 2.752-1.472 6.144t1.472 6.144q1.536 2.688 4.096 4.288 2.624 1.536 5.824 1.536z"/><path d="m175.74 350.78q1.152 0 1.92 0.896 0.832 0.896 0.832 2.304t-1.088 2.304q-1.024 0.896-2.688 0.896h-1.152q-3.136 0-5.76-1.6-2.56-1.664-4.032-4.48t-1.472-6.336v-15.808h-2.944q-1.344 0-2.176-0.768t-0.832-1.92q0-1.28 0.832-2.048t2.176-0.768h2.944v-9.216q0-1.408 0.896-2.304t2.304-0.896 2.304 0.896 0.896 2.304v9.216h5.44q1.344 0 2.176 0.768t0.832 2.048q0 1.152-0.832 1.92t-2.176 0.768h-5.44v15.808q0 2.56 1.408 4.288t3.456 1.728z"/><path d="m217.92 339.14q0 1.216-0.832 2.048-0.832 0.768-2.112 0.768h-24.32q0.704 4.48 4.032 7.232 3.392 2.752 8.256 2.752 1.92 0 3.968-0.704 2.112-0.704 3.456-1.728 0.896-0.704 2.112-0.704t1.92 0.64q1.152 0.96 1.152 2.176 0 1.152-1.024 1.92-2.176 1.728-5.44 2.816-3.2 1.088-6.144 1.088-5.248 0-9.408-2.24-4.16-2.304-6.528-6.336-2.304-4.032-2.304-9.152t2.176-9.152q2.24-4.096 6.144-6.336 3.968-2.304 8.96-2.304 4.928 0 8.512 2.176t5.504 6.08 1.92 8.96zm-15.936-11.712q-4.672 0-7.616 2.56-2.88 2.56-3.648 6.848h21.312q-0.576-4.288-3.2-6.848t-6.848-2.56z"/><path d="m255.17 307.2q1.472 0 2.368 0.896t0.896 2.368v29.184q0 4.992-2.368 9.088-2.304 4.032-6.336 6.4-3.968 2.304-8.896 2.304t-9.024-2.304q-4.032-2.368-6.336-6.4-2.304-4.096-2.304-9.088t2.112-9.024q2.176-4.096 5.888-6.4 3.776-2.304 8.384-2.304 3.712 0 6.912 1.536t5.44 4.288v-17.28q0-1.472 0.896-2.368 0.96-0.896 2.368-0.896zm-14.336 44.48q3.2 0 5.76-1.536 2.624-1.6 4.096-4.352t1.472-6.144-1.472-6.08q-1.472-2.752-4.096-4.288-2.56-1.6-5.76-1.6t-5.824 1.6q-2.56 1.536-4.096 4.288-1.472 2.688-1.472 6.08t1.472 6.144q1.536 2.752 4.096 4.352 2.624 1.536 5.824 1.536z"/><path d="m336.06 307.2q1.408 0 2.368 0.96t0.96 2.368v43.328q0 1.408-1.024 2.368-0.96 0.96-2.304 0.96-1.408 0-2.368-0.96t-0.96-2.368v-31.808l-15.488 31.552q-1.088 1.664-2.88 1.664-2.112 0-3.072-1.984l-15.296-30.656v31.232q0 1.408-0.96 2.368t-2.368 0.96-2.368-0.96-0.96-2.368v-43.328q0-1.408 0.96-2.368t2.368-0.96q1.92 0 2.944 1.792l19.008 38.08 18.496-38.08q1.024-1.792 2.944-1.792z"/><path d="m367.42 357.44q-5.12 0-9.152-2.24-4.032-2.304-6.272-6.336t-2.24-9.152q0-5.184 2.24-9.216t6.272-6.272q4.032-2.304 9.152-2.304 5.056 0 9.024 2.304 4.032 2.24 6.272 6.272 2.304 4.032 2.304 9.216 0 5.12-2.24 9.152t-6.272 6.336q-3.968 2.24-9.088 2.24zm0-5.76q3.264 0 5.824-1.536 2.624-1.536 4.032-4.224 1.472-2.752 1.472-6.208t-1.472-6.208q-1.408-2.752-4.032-4.288-2.56-1.536-5.824-1.536t-5.888 1.536q-2.56 1.536-4.032 4.288t-1.472 6.208 1.472 6.208q1.472 2.688 4.032 4.224 2.624 1.536 5.888 1.536z"/><path d="m419.78 322.62q0.832 0.384 1.28 1.088 0.448 0.64 0.448 1.472 0 0.576-0.32 1.216l-13.568 28.608q-0.96 2.112-2.944 2.112-1.088 0-1.792-0.448-0.704-0.512-1.28-1.664l-13.568-28.608q-0.256-0.512-0.256-1.152 0-1.728 1.792-2.624 0.576-0.32 1.344-0.32t1.472 0.448q0.704 0.384 1.088 1.152l11.136 24 11.008-24q0.384-0.768 1.088-1.152 0.768-0.448 1.6-0.448t1.472 0.32z"/><path d="m431.81 357.18q-1.408 0-2.368-0.896-0.896-0.96-0.896-2.368v-28.48q0-1.472 0.896-2.368 0.96-0.896 2.368-0.896 1.472 0 2.368 0.896t0.896 2.368v28.48q0 1.408-0.896 2.368-0.896 0.896-2.368 0.896zm0-40.704q-1.728 0-3.008-1.216-1.216-1.28-1.216-3.008t1.216-2.944q1.28-1.28 3.008-1.28t2.944 1.28q1.28 1.216 1.28 2.944t-1.28 3.008q-1.216 1.216-2.944 1.216z"/><path d="m478.66 339.14q0 1.216-0.832 2.048-0.832 0.768-2.112 0.768h-24.32q0.704 4.48 4.032 7.232 3.392 2.752 8.256 2.752 1.92 0 3.968-0.704 2.112-0.704 3.456-1.728 0.896-0.704 2.112-0.704t1.92 0.64q1.152 0.96 1.152 2.176 0 1.152-1.024 1.92-2.176 1.728-5.44 2.816-3.2 1.088-6.144 1.088-5.248 0-9.408-2.24-4.16-2.304-6.528-6.336-2.304-4.032-2.304-9.152t2.176-9.152q2.24-4.096 6.144-6.336 3.968-2.304 8.96-2.304 4.928 0 8.512 2.176t5.504 6.08 1.92 8.96zm-15.936-11.712q-4.672 0-7.616 2.56-2.88 2.56-3.648 6.848h21.312q-0.576-4.288-3.2-6.848t-6.848-2.56z"/><path d="m499.71 357.44q-4.352 0-8.192-1.344t-6.016-3.52q-0.832-0.832-0.832-1.984 0-1.536 1.28-2.496 1.216-0.896 2.24-0.896 1.28 0 2.432 1.152 1.216 1.344 3.648 2.368 2.432 0.96 5.184 0.96 3.648 0 5.632-1.216 2.048-1.216 2.048-3.264 0-1.984-1.984-3.264-1.984-1.344-6.72-2.24-12.288-2.368-12.288-10.112 0-3.136 1.856-5.312t4.864-3.264 6.4-1.088q4.16 0 7.424 1.344 3.328 1.344 5.248 3.712 0.832 1.024 0.832 2.048 0 1.088-1.088 1.984-0.704 0.512-1.792 0.512-1.664 0-3.008-1.216-1.6-1.472-3.392-2.048-1.792-0.64-4.352-0.64-2.944 0-4.864 1.024-1.856 0.96-1.856 2.752 0 1.28 0.64 2.176 0.64 0.832 2.432 1.6 1.792 0.704 5.184 1.408 6.976 1.408 9.856 3.904 2.944 2.496 2.944 6.464 0 2.944-1.6 5.376-1.6 2.368-4.736 3.776-3.072 1.344-7.424 1.344z"/></g></g></svg>
