<?xml version="1.0" encoding="UTF-8"?>
<!-- Created with Inkscape (http://www.inkscape.org/) -->
<svg width="544" height="480" version="1.1" viewBox="0 0 544 480" xmlns="http://www.w3.org/2000/svg" xmlns:xlink="http://www.w3.org/1999/xlink"><defs><linearGradient id="linearGradient4754" x1="178.79" x2="357.18" y1="140.49" y2="333.5" gradientTransform="translate(-1.1387e-6)" gradientUnits="userSpaceOnUse"><stop stop-color="#ff7f2a" offset="0"/><stop stop-color="#ff2ab4" offset="1"/></linearGradient><filter id="filter6018" x="-.093956" y="-.093956" width="1.1879" height="1.2274" color-interpolation-filters="sRGB"><feFlood flood-color="rgb(0,0,0)" flood-opacity=".63922" result="flood"/><feComposite in="flood" in2="SourceGraphic" operator="in" result="composite1"/><feGaussianBlur in="composite1" result="blur" stdDeviation="9.34521"/><feOffset dx="0" dy="9.43102" result="offset"/><feComposite in="SourceGraphic" in2="offset" result="composite2"/></filter></defs><g transform="matrix(.59661 0 0 .59661 109.72 -10.897)"><circle transform="matrix(1.229 0 0 1.229 -62.28 -56.032)" cx="272" cy="240" r="119.36" fill="url(#linearGradient4754)" filter="url(#filter6018)" style="paint-order:fill markers stroke"/><path d="m271.07 273.63 0.48045-124.62 5.9315 1.1892c-0.95279 10.314 1.2926 17.993 12.348 29.69 22.412 23.713 31.665 27.766 34.181 39.477 2.5166 11.711 1.0351 20.056-2.3663 27.701-3.4014 7.645-8.7227 14.591-13.886 23.505l-2.7499-2.8492s12.524-19.719 12.447-32.801c-0.0619-10.561-1.1969-15.504-9.2383-26.925-7.6552-10.872-30.926-15.084-30.926-15.084l-0.8 94.35s-2.4536 13.618-20.716 19.802c-13.27 4.493-30.563 2.293-34.648-4.0561-8.1716-12.698 6.5446-24.712 20.704-30.486 14.159-5.7737 29.238 1.1027 29.238 1.1027z" fill="#fff"/></g><g transform="translate(-2.8843)" fill="none" stroke-linecap="round"><path d="m70.47 409.11h408.83" stroke="#ffbebb" stroke-width="17.4"/><path d="m69.37 409.11h262.63" stroke="#ff615b" stroke-width="15.2"/></g><g transform="translate(-9.7206)" fill="#ff615b" stroke="#ff615b" stroke-linecap="round" stroke-linejoin="round"><path transform="matrix(.75029 0 0 .75817 77.642 109.78)" d="m233.36 323.42v-89.232l77.277 44.616z" stroke-width="14.9" style="paint-order:fill markers stroke"/><path d="m441.27 296.68v48.949-24.475zm-42.906 1.4616v46.026l42.906-23.013z" stroke-width="7.6453" style="paint-order:fill markers stroke"/><path d="m122.17 296.68v48.949-24.475zm42.906 1.4616v46.026l-42.906-23.013z" stroke-width="7.6453" style="paint-order:fill markers stroke"/></g></svg>
