<?xml version="1.0" encoding="UTF-8"?>
<!-- Created with Inkscape (http://www.inkscape.org/) -->
<svg id="SVGRoot" width="720px" height="576px" version="1.1" viewBox="0 0 720 576" xml:space="preserve" xmlns="http://www.w3.org/2000/svg"><defs><filter id="filter1524" x="-.087909" y="-.1239" width="1.1758" height="1.2478" color-interpolation-filters="sRGB"><feFlood flood-color="rgb(56,56,56)" flood-opacity=".49804" result="flood"/><feComposite in="flood" in2="SourceGraphic" operator="in" result="composite1"/><feGaussianBlur in="composite1" result="blur" stdDeviation="21.9436"/><feOffset dx="0" dy="0" result="offset"/><feComposite in="SourceGraphic" in2="offset" result="composite2"/></filter></defs><rect x=".89597" y=".89597" width="718.21" height="574.21" fill="#e3e8fe"/><rect x="60.46" y="75.477" width="599.08" height="425.05" ry="45.182" fill="#fff" filter="url(#filter1524)" stroke-width="0"/><rect x="90.129" y="96.532" width="539.73" height="382.94" ry="40.706" fill="none" stroke="#6d6d6d" stroke-dasharray="14.11201955, 14.11201955" stroke-linecap="round" stroke-linejoin="round" stroke-width="2.352" style="paint-order:normal"/><path transform="matrix(.99913 0 0 .99913 88.232 -132.17)" d="m270.45 492.75 0.78128-202.65 9.6455 1.9338c-1.5494 16.772 2.102 29.259 20.08 48.28 36.445 38.561 51.492 45.152 55.583 64.195 4.0924 19.044 1.6832 32.614-3.848 45.046-5.5312 12.432-14.184 23.727-22.581 38.223l-4.4717-4.6332s20.366-32.066 20.241-53.339c-0.10062-17.174-1.9463-25.212-15.023-43.784-12.448-17.679-50.29-24.529-50.29-24.529l-1.3009 153.43s-3.9899 22.145-33.687 32.201c-21.579 7.3063-49.7 3.7288-56.343-6.5958-13.288-20.649 10.642-40.185 33.668-49.575 23.025-9.3889 47.545 1.7932 47.545 1.7932z" fill="#7f95fe" stroke-width="1.6264"/></svg>
