<?xml version="1.0" encoding="UTF-8"?>
<!-- Created with Inkscape (http://www.inkscape.org/) -->
<svg width="544" height="480" version="1.1" viewBox="0 0 544 480" xmlns="http://www.w3.org/2000/svg" xmlns:xlink="http://www.w3.org/1999/xlink"><defs><linearGradient id="linearGradient66133" x1="43.183" x2="581.49" y1="359.09" y2="433.68" gradientUnits="userSpaceOnUse"><stop stop-color="#fcee21" offset="0"/><stop stop-color="#db9128" stop-opacity=".82745" offset="1"/></linearGradient></defs><g transform="matrix(1.1735 0 0 1.1735 -95.936 -107.96)"><path d="m276.01 342.44c-6.065-5.6504-2.1663-15.518 5.7407-14.531 2.8784 0.35963 2.8784 0.35963 3.7289-1.7661 0.4678-1.1692 1.2432-2.4516 1.7232-2.8499 0.99433-0.82522 1.1324-6.6203 0.51348-21.543-0.35546-8.5701-0.35546-8.5701-3.4381-9.6318-3.0826-1.0617-3.0826-1.0617-3.2477-4.2264-0.16507-3.1647-0.16507-3.1647-10.32-3.1647-10.155 0-10.155 0-10.155-19.264 0-21.366-0.30471-22.85-2.402-11.696-3.9488 21.002-3.939 20.914-2.6297 23.609 0.64842 1.3346 1.179 3.4336 1.179 4.6642 0 1.4042 0.40998 2.7588 1.1008 3.637 2.22 2.8223 0.80363 5.8561-2.204 4.7208-1.2412-0.46852-1.5082-0.44197-1.2895 0.12817 0.97493 2.5406-3.5145 4.2375-4.8094 1.8178-0.56898-1.0631-0.69026-1.0922-1.1475-0.27519-1.2618 2.2546-4.8597 0.58348-4.8597-2.2572 0-0.85622-0.30987-0.99615-1.7408-0.78613-1.2584 0.1847-1.9448-0.0234-2.4767-0.75091-1.0355-1.4161-0.96928-1.6267 1.1904-3.7864 1.1609-1.1609 1.9264-2.4661 1.9264-3.2848 0-2.407 1.0928-4.4012 3.7996-6.934 2.6307-2.4616 2.6508-2.5071 3.2706-7.4302 0.54968-4.3656 2.2819-20.898 2.2851-21.809 5.5e-4 -0.1892-0.74179-0.4926-1.6499-0.67423-3.4302-0.68603 0.49049-16.68 5.2102-21.255 1.8347-1.7782 1.8347-1.7782 0.7853-4.1506-1.7732-4.0086-1.8877-6.8802-0.46998-11.787 1.2682-4.3889 1.2682-4.3889-0.33989-8.1322-1.4168-3.2979-1.6092-4.398-1.6178-9.2471-9e-3 -5.0549-0.14366-5.7508-1.6512-8.531-1.8326-3.3798-2.2021-9.4004-0.87044-14.186 0.61684-2.2167 0.53762-2.6117-1.372-6.8409-2.0157-4.4643-2.0243-4.5153-1.6051-9.4808 0.47737-5.6548 0.47623-6.0142-0.0328-10.333-0.74099-6.2877 1.0388-7.9817 7.6888-7.3182 8.4758 0.84567 11.352 0.65508 15.554-1.0308 3.739-1.5001 4.2196-1.5617 9.3566-1.1995 7.9558 0.56101 10.506 0.42329 14.776-0.79802 4.5858-1.3114 7.6883-1.3934 10.368-0.27384 2.7423 1.1458 5.3601 1.0551 10.924-0.3786 4.7845-1.2329 4.7845-1.2329 10.188-0.0144 6.6403 1.4975 6.664 1.4976 11.641 0.0225 4.5105-1.3369 6.2327-1.1653 12.374 1.2328 3.2116 1.2541 3.2116 1.2541 6.7527-0.49206 11.375-5.6091 20.293 0.87033 15.277 11.099-1.4529 2.9625-1.4529 2.9625-0.2752 6.8399 1.6446 5.4144 1.5578 9.8769-0.27116 13.952-1.3453 2.9977-1.399 3.4068-0.75078 5.722 0.85032 3.037 0.4102 8.2133-1.1109 13.065-1.3172 4.2015-1.3536 5.7918-0.19898 8.6776 1.1724 2.93 0.81512 10.375-0.64037 13.346-0.98365 2.0077-0.98405 2.1586-0.0129 4.8592 1.2009 3.3396 0.98296 9.1595-0.44655 11.924-0.74904 1.4485-0.77864 1.7844-0.15724 1.7844 4.919 0 12.664 22.005 8.069 22.924-1.9024 0.38047-1.8812 0.23018-1.0941 7.7822 1.957 18.776 2.1042 19.432 4.9651 22.131 2.5032 2.3616 3.1282 3.6356 4.0714 8.299 0.16575 0.8196 0.88855 1.6933 1.7108 2.0679 2.554 1.1637 1.7414 4.2183-1.1222 4.2183-2.0967 0-2.2147 0.0917-2.4768 1.9264-0.30222 2.1155-2.5294 2.9778-4.1715 1.615-0.63829-0.52974-1.0066-0.48154-1.7988 0.23542-1.9565 1.7706-5.1774 0.19227-4.2959-2.1051 0.21878-0.57015-0.0482-0.59669-1.2895-0.12817-3.0283 1.143-4.4748-2.218-2.204-5.121 0.6736-0.86115 1.0809-2.2448 1.0885-3.6982 7e-3 -1.2772 0.52466-3.3053 1.1509-4.5068 1.1387-2.1846 1.1387-2.1846-1.5136-16.54-2.6523-14.356-2.6523-14.356-2.9275 4.782-0.27519 19.138-0.27519 19.138-10.87 19.287-10.595 0.14948-10.595 0.14948-10.595 2.8502 0 3.2712-0.71558 4.0963-4.2981 4.9557-2.9798 0.71483-5.0908 28.6-2.3353 30.847 0.55675 0.45407 1.1928 1.4448 1.4134 2.2016 0.71984 2.469 1.2538 2.7469 4.6047 2.3967 7.5156-0.78553 11.04 8.2582 5.5205 14.167-2.562 2.7426-11.787 1.6054-14.131-1.7422-0.7418-1.0591-0.89435-1.0936-1.3369-0.30283-0.9111 1.628-4.5502 0.64316-7.4623-2.0196-1.4552-1.3306-1.542-2.4507-0.40134-5.1807 0.66582-1.5935 0.7114-2.384 0.22286-3.8643-0.7983-2.4189-0.25309-4.4699 1.3502-5.0795 3.5059-1.333 2.9458-29.707-0.62138-31.477-2.6144-1.2968-2.6144-1.2968-2.7797-4.472-0.26038-4.9992-24.505-4.7342-24.767 0.27073-0.16462 3.1498-0.16462 3.1498-2.8958 4.4027-1.7543 0.80479-2.6305 1.5152-2.4497 1.9863 0.15478 0.40335 0.28298 6.9669 0.28489 14.586 3e-3 13.852 3e-3 13.852 1.6512 14.79 1.7695 1.0069 2.2255 3.2838 1.0847 5.4155-0.40833 0.76297-0.33271 1.6032 0.27519 3.0582 0.46102 1.1034 0.83822 2.5519 0.83822 3.219 0 2.7729-7.2748 6.7396-8.5566 4.6656-0.23773-0.38465-0.77885-0.21143-1.546 0.49495-3.0418 2.8006-11.223 3.8111-13.521 1.67zm8.4603-1.0733c1.4529-0.36584 3.0974-1.3346 4.2044-2.4767 1.9354-1.9969 3.2534-2.4154 3.2534-1.033 0 1.5036 1.6284 1.52 3.8664 0.039 2.4647-1.6311 2.5278-1.8898 1.3232-5.4252-0.64573-1.8951-0.71543-2.8168-0.27519-3.6394 1.5313-2.8612-0.0589-4.9029-2.2377-2.873-1.6513 1.5384-3.0032 1.447-4.6347-0.3135-1.552-1.6746-1.5352-1.6828-3.1572 1.5323-1.2142 2.4067-1.2142 2.4067-4.8812 2.4067-5.5157 0-8.2704 2.9556-7.0341 7.5471 1.2 4.4566 3.9185 5.6595 9.5727 4.2357zm65.209-0.84963c4.428-5.6293 1.5627-11.636-5.2049-10.911-3.4872 0.37346-5.2128-0.69824-5.2128-3.2376 0-1.7835-1.4951-2.1191-2.9516-0.66263-1.6884 1.6884-2.7404 1.7637-4.2034 0.30068-2.1434-2.1434-3.8016-0.63323-2.6876 2.4475 0.6024 1.6659 0.56845 2.3323-0.23265 4.5674-1.2275 3.4247-1.3098 3.175 1.6107 4.8865 2.5432 1.4904 2.5432 1.4904 3.5465 0.1608 1.0033-1.3296 1.0033-1.3296 2.8337 0.44399 3.6786 3.5644 10.424 4.6461 12.502 2.0046zm-56.214-19.646c0.16075-4.2213 0.16075-4.2213-1.5136-4.2213-1.6723 0-1.6743 4e-3 -1.6743 3.1798 0 6.5971 2.9398 7.5575 3.1879 1.0415zm42.756-0.7829c0.0138-3.1508 7e-3 -3.1632-1.6374-3.1632-1.8542 0-2.8525 5.9263-1.3112 7.7835 1.31 1.5784 2.9326-0.96418 2.9486-4.6203zm-42.641-19.606c0-5.6961-0.40924-6.9486-2.2703-6.9486-1.5824 0-1.5824 0-1.5824 5.2287 0 5.2287 0 5.2287 1.9264 5.2287 1.9264 0 1.9264 0 1.9264-3.5087zm42.93-1.72c0-5.2287 0-5.2287-1.6512-5.2287s-1.6512 0-1.6512 5.2287c0 5.2287 0 5.2287 1.6512 5.2287s1.6512 0 1.6512-5.2287zm-84.921-10.489c-0.42007-4.0701 0.64896-4.5878 3.2348-1.5668 1.0114 1.1816 1.8483 1.8772 1.8596 1.5458 0.0114-0.33148-0.47468-1.051-1.0801-1.5989-0.81245-0.73526-1.1008-1.6952-1.1008-3.6648 0-1.6171-0.43374-3.4779-1.1008-4.7224-1.4905-2.7809-1.4542-3.2668 1.376-18.427 2.9258-15.672 2.8048-13.988 1.0358-14.432-1.8708-0.46954-1.6958-0.90805-2.4064 6.0302-2.0819 20.327-2.4724 22.015-5.7069 24.666-1.8879 1.547-2.4695 2.4708-2.9986 4.7632-0.87014 3.7697-0.85462 3.8688 0.5819 3.7167 1.3638-0.14438 1.5521 0.97022 0.74506 4.4096-0.25938 1.1054-0.20947 1.7888 0.13065 1.7888 0.30272 0 0.7124-0.80494 0.9104-1.7888 0.63867-3.1732 0.88782-3.7151 1.7082-3.7151 0.86941 0 0.96246 0.18525 1.866 3.7151 0.83913 3.2781 1.3199 2.9122 0.94508-0.71927zm125.31-0.80581c0.45876-2.8689 2.2628-3.1264 2.8113-0.40127 0.61381 3.0498 0.89078 3.7414 1.3777 3.4405 0.25862-0.15983 0.24079-1.0906-0.0396-2.0683-1.0989-3.8316-0.34809-5.2821 1.7509-3.3826 1.0696 0.96795 1.121 1.4233-0.57354-5.0818-0.41712-1.6013-1.204-2.7351-2.6536-3.8236-3.3633-2.5254-3.487-2.9922-5.1432-19.402-1.3022-12.902-1.0234-11.814-2.9068-11.342-1.8143 0.45537-1.8888-0.61591 1.0935 15.731 2.5344 13.892 2.5344 13.892 1.376 16.687-0.63713 1.5372-1.1584 3.7426-1.1584 4.9008 0 1.26-0.46627 2.7608-1.1608 3.7362-0.63845 0.89662-1.0277 1.7634-0.86496 1.9261 0.16272 0.16273 0.87084-0.59149 1.5736-1.676 2.1208-3.273 3.3886-2.7068 3.0929 1.3813-0.27795 3.8427 0.78529 3.3754 1.4252-0.62642zm-80.652 2.7096c5.616-1.9578 2.1419-5.45-5.4217-5.45-9.4535 0-11.087 3.7457-2.4768 5.6794 2.1516 0.48322 6.1909 0.36594 7.8985-0.22933zm43.421-0.23026c2.8098-0.83443 4.2419-2.9331 3.1771-4.656-1.31-2.1196-14.652-0.49652-14.488 1.7624 0.26907 3.6985 4.7445 4.8434 11.311 2.8935zm24.909-15.127c0-7.155 0-7.155-20.502-7.0354-11.276 0.0658-17.344 0.19703-13.484 0.29164 7.0174 0.17202 7.0174 0.17202 7.0174 3.1827 0 3.0107 0 3.0107-9.5644 3.0107-7.8302 0-9.6886 0.14969-10.25 0.82559-0.96373 1.1612-1.4852 1.0495-3.8523-0.82529-1.679-1.3298-2.146-1.4903-2.4011-0.82558-1.1218 2.9234-21.816 0.84734-21.816-2.1885 0-3.0138 0-3.0138 9.219-3.179 5.0704-0.0908-0.87374-0.22066-13.209-0.2885-12.336-0.0678-22.429 0.0624-22.429 0.28943-3.2e-4 0.22704 4.9334 0.34106 10.964 0.25337 12.331-0.17928 12.162-0.24015 11.351 4.0819-0.35652 1.9004-0.35652 1.9004-11.336 1.7409-10.979-0.15951-10.979-0.15951-10.979 3.8308 5.5e-4 3.9903 5.5e-4 3.9903 50.636 3.9903 50.636 0 50.636 0 50.636-7.155zm-22.566-3.5775c0-3.0504 0-3.0504 10.87-2.9012 10.87 0.14923 10.87 0.14923 10.87 2.9012s0 2.7519-10.87 2.9012c-10.87 0.14923-10.87 0.14923-10.87-2.9012zm20.364-0.013c0-2.3044-18.726-2.9324-19.165-0.64284-0.4769 2.4827-0.0996 2.5822 9.7916 2.5822 9.3739 0 9.3739 0 9.3739-1.9394zm-41-4.6424c0.0306-1.2187-0.10123-1.962-0.29291-1.6519-0.19167 0.31014-0.80808-1.4484-1.3698-3.9078-1.0213-4.4716-1.0213-4.4716-4.0844-4.0713-1.6847 0.22017-3.3583 0.40811-3.719 0.41765-0.42662 0.0113-0.55471 0.61053-0.36645 1.7144 0.22836 1.339 0.15922 1.5228-0.32772 0.87144-0.47578-0.63647-0.54-0.32128-0.28035 1.376 0.18524 1.2108 0.1325 1.916-0.11718 1.567-0.25925-0.36235-0.45397 0.7265-0.45397 2.5385 0 8.3377 10.803 9.462 11.012 1.146zm-37.43 4.6554c0-1.6512 0-1.6512-9.4942-1.8018-9.4942-0.1506-9.4942-0.1506-9.4942 1.8018s0 1.9524 9.4942 1.8018c9.4942-0.15059 9.4942-0.15059 9.4942-1.8018zm26.277 0.55388c0.43956-2.2994-0.4992-2.5183-10.107-2.3566-9.5355 0.16053-10.077 0.33554-9.079 2.9356 0.63481 1.6543 18.864 1.1041 19.186-0.57905zm26.009-0.55388c0-2.8302-12.942-2.8309-15.685-1e-3 -1.8963 1.9565-1.8963 1.9565 6.8944 1.8043 8.7907-0.15202 8.7907-0.15202 8.7907-1.8032zm-27.795-6.5687c0-0.13157 0.36194-1.9598 0.80431-4.0628 1.729-8.2192 0.05-11.165-3.7942-6.6575-3.9215 4.5984-3.5613 4.5803-10.496 0.52696-5.6072-3.2775-5.6072-3.2775-9.4076-2.97-2.7394 0.2216-4.4918 0.062-6.2771-0.57182-2.4534-0.87096-2.5066-0.86373-5.6495 0.76847-3.5738 1.856-5.073 2.0116-7.9199 0.82213-1.0868-0.45407-2.0695-0.82558-2.1839-0.82558s-0.20798 2.9721-0.20798 6.6046c0 6.6046 0 6.6046 22.566 6.6046 12.411 0 22.566-0.10764 22.566-0.23921zm56.14-7.191c0-7.4302 0-7.4302-1.5136-7.4371-0.83246-4e-3 -3.6235-0.59064-6.2022-1.3042-6.5272-1.806-11.342-0.62689-19.603 4.8008-6.999 4.5984-6.9329 4.6015-11.542-0.54789-4.1813-4.6719-4.4332-4.5631-4.6593 2.0116-0.33515 9.7499 0.0244 9.907 22.672 9.907 20.848 0 20.848 0 20.848-7.4302zm-60.78-5.187c1.4929-1.642 2.2798-2.8258 1.7487-2.6306-0.53113 0.19516-3.5174 0.0697-6.6362-0.27883-8.3086-0.92845-8.7335-0.46361-2.8045 3.0679 2.6964 1.606 4.9194 2.8991 4.9401 2.8736 0.0207-0.0255 1.259-1.3899 2.7519-3.032zm15.137 1.4268c0.0377-1.1613 0.0527-1.1637 0.56091-0.0924 0.40596 0.85571 0.45862 0.68722 0.23651-0.75679-0.15714-1.0216-0.28571-2.4157-0.28571-3.0978 0-1.0703-0.50174-1.3663-3.6606-2.1598-4.3277-1.0871-4.3725-1.0541-4.759 3.5004-0.2088 2.4604-0.13114 3.2998 0.2546 2.7519 0.43732-0.62114 0.5048-0.55489 0.31814 0.31244-0.22163 1.0298 6e-3 1.089 3.5298 0.91801 3.4264-0.16625 3.7702-0.29055 3.8054-1.376zm16.931-2.0718c4.0356-2.5803 4.0356-2.5803 1.376-3.4194-4.7791-1.5078-12.291-1.5057-12.291 3e-3 0 0.89042 5.7 6.7158 6.2457 6.3831 0.3488-0.21272 2.4502-1.5479 4.6698-2.9671zm-63.437-1.9264c2.5732-1.508 2.2464-1.4939 10.812-0.46631 2.7544 0.33043 3.492 0.19742 5.9065-1.0651 3.0539-1.5969 6.1387-1.8271 11.915-0.88949 2.6275 0.42649 3.943 0.36708 6.0543-0.27339 3.1736-0.96276 7.3547-1.0591 10.313-0.23766 1.7364 0.48217 2.7788 0.38379 5.8645-0.55346 4.8346-1.4684 10.362-1.4855 14.953-0.0462 4.1815 1.3108 5.4079 1.3487 8.9427 0.27634 3.648-1.1066 6.4762-1.0314 11.06 0.29407 6.187 1.7893 7.5933 0.6952 6.3798-4.9633-0.87003-4.0568-0.74963-5.7219 0.53152-7.3506 1.5623-1.9861 1.8526-4.5907 0.82986-7.4446-1.188-3.3151-1.0884-4.7166 0.53214-7.4818 1.8221-3.1091 2.254-6.9999 1.1247-10.131-1.1687-3.2399-1.0932-5.8059 0.27706-9.4111 1.3045-3.4323 1.208-6.4268-0.34454-10.683-0.97119-2.6626-0.96666-2.7451 0.46937-8.531 1.5339-6.1803 1.7161-8.309 1.1474-13.409-0.28285-2.5372-0.125-3.6934 0.79674-5.836 1.885-4.3818 2.0191-6.6635 0.63587-10.82-1.5638-4.6991-1.5138-6.9728 0.23549-10.731 2.3648-5.0806 1.3096-8.4194-2.8717-9.086-1.1221-0.1789-2.4103-0.52387-2.8628-0.7666-0.45246-0.24273-1.1955-0.26162-1.6512-0.042-7.4886 3.6098-10.027 3.897-15.892 1.7984-3.9985-1.4306-4.1036-1.4388-7.4302-0.57441-1.8559 0.48221-4.7366 0.79037-6.4015 0.68481-2.7104-0.17185-2.7968-0.14637-0.82559 0.24356 1.9836 0.39237 2.0381 0.4441 0.55039 0.52245-0.90814 0.0478-3.9049-0.45213-6.6594-1.111-5.0082-1.198-5.0082-1.198-9.7495-9e-3 -6.1442 1.541-18.521 0.62163-13.822-1.0267 0.55288-0.19394-0.20849-0.35262-1.6919-0.35262-1.4835 0-2.2604 0.15322-1.7265 0.34048 1.3111 0.45992-8.1113 2.7798-11.265 2.7736-4.704-9e-3 -8.7986-0.72418-6.5472-1.1431 1.276-0.2374 0.34691-0.36434-2.7519-0.37599-3.0989-0.0117-4.2138 0.13118-3.3023 0.42307 1.2391 0.39683 1.2593 0.44612 0.20313 0.49552-0.64507 0.0302-2.8121 0.67187-4.8156 1.426-5.1827 1.9508-8.6617 2.2368-13.666 1.1235-6.4898-1.4438-8.1927 0.0279-6.9964 6.0466 0.53399 2.6865 0.55003 4.4764 0.0705 7.8673-0.67941 4.8042-0.47096 6.0541 1.7362 10.41 1.6826 3.3205 1.7474 4.3872 0.62332 10.262-0.94161 4.9208-0.63941 6.8211 1.7702 11.132 1.3486 2.4128 1.4701 3.1082 1.3519 7.737-0.11194 4.3844 0.0626 5.5431 1.2653 8.4006 1.6186 3.8457 1.742 6.3832 0.51162 10.526-1.2299 4.1415-0.80326 7.9857 1.34 12.075 1.966 3.7506 2.0971 4.9287 0.91944 8.2664-1.1172 3.1664-1.0377 4.1369 0.65362 7.9806 1.0294 2.3394 1.5472 4.6651 1.7757 7.9758 0.32262 4.6735 0.32262 4.6735 2.7994 5.8842 3.2236 1.5758 3.9995 1.5586 6.9207-0.15334zm1.4767-4.1302c-3.4612-1.2804-4.0201-8.4287-0.90284-11.546 2.5057-2.5057 5.2235-2.7343 7.3404-0.61744 4.8134 4.8134-0.28186 14.441-6.4375 12.163zm68.24-3.3334c-1.0459-1.0459-0.8299-4.0141 0.37127-5.1012 2.5591-2.316 5.6193 0.84261 3.8626 3.9867-0.90924 1.6273-3.1351 2.2132-4.2338 1.1145zm6.4709-7.619c-1.3627-1.3627-1.5219-6.3954-0.27833-8.8001 2.8273-5.4674 9.0874-3.9979 9.0825 2.1321-5e-3 5.8526-5.4759 9.9963-8.8042 6.668zm-81.324-0.0864c-0.94969-0.94969-0.8548-3.2777 0.19468-4.776 2.1424-3.0588 5.8939 0.34201 4.0392 3.6615-0.90924 1.6273-3.1351 2.2132-4.2338 1.1145zm34.892-7.4508c-0.21019-0.21019-0.22536-1.7681-0.0337-3.462 0.41125-3.635 0.44487-3.5979-5.2225-5.7683-7.9767-3.0548-20.061-12.958-25.096-20.567-1.3983-2.113-1.615-2.2434-2.4589-1.4797-2.2374 2.0248-3.4654 0.25275-1.3529-1.9523 2.5084-2.6182 8.4948-2.9054 8.4948-0.40753 0 0.97996-0.23829 1.0736-1.9264 0.75691-2.4801-0.46527-2.4444-0.29161 0.76926 3.7384 12.471 15.639 26.399 22.169 43.033 20.177 16.713-2.0017 28.395-9.7222 32.713-21.62 1.2191-3.3587 0.42831-5.1006-1.1536-2.541-0.56061 0.90709-1.8853 0.48729-1.8853-0.59746 0-1.4019 1.8836-2.3838 4.6926-2.4464 2.4357-0.0542 5.2144 1.3925 5.2144 2.7149 0 0.96833-1.7146 1.0797-2.6238 0.17047-0.48963-0.48964-0.69773-0.45691-0.87499 0.1376-3.6504 12.243-12.705 20.852-25.79 24.524-3.1842 0.89344-3.1842 0.89344-3.1842 4.6147 0 2.8856-0.19551 3.7963-0.8706 4.0554-1.2129 0.46544-21.975 0.42097-22.444-0.0481zm9.5553-4.021c0-2.2016 0-2.2016-2.3392-2.2091-1.2865-4e-3 -2.8697-0.14988-3.5182-0.32388-1.0616-0.28483-1.1991-0.0646-1.3799 2.2091-0.20086 2.5254-0.20086 2.5254 3.5182 2.5254 3.7191 0 3.7191 0 3.7191-2.2016zm11.558-0.59877c0-3.0575 0.14196-3.0161-6.1919-1.8048-3.9354 0.75263-1.9785 4.6051 2.3392 4.6051 3.8527 0 3.8527 0 3.8527-2.8003zm-45.682-22.811c0-0.46414 0.64475-2.1162 1.4328-3.6713 1.0358-2.044 1.3498-3.3386 1.1334-4.6723-0.21668-1.3352-0.11833-1.7393 0.35599-1.4628 0.36046 0.21017 0.18357-0.15579-0.3931-0.81325-1.1202-1.2771-1.7428-1.5992-1.1089-0.5736 0.23326 0.37743 0.0838 0.52163-0.38031 0.36693-0.42052-0.14018-0.76459-0.5851-0.76459-0.98872s-0.37152-0.83526-0.82559-0.95921c-0.73384-0.20033-0.73384-0.1546 0 0.41144 0.65028 0.50158 0.47497 0.54234-0.82558 0.19194-2.9502-0.79485-6.5585-0.53205-8.2819 0.60322-1.6251 1.0705-1.6251 1.0705-0.24912 1.3996 1.9842 0.47448 1.7766 1.9306-0.27519 1.9306-1.1782 0-1.6013-0.23651-1.4771-0.82558 0.14096-0.66841-7e-3 -0.6472-0.77972 0.11139-1.3062 1.2832-1.1972 3.9943 0.23869 5.9365 1.4218 1.9231 1.528 2.905 0.28766 2.6611-5.5948-1.1003-3.5208-11.44 2.7495-13.708 1.7329-0.62661 1.7329-0.62661 1.7329-6.2073 0-6.5775 1.651-10.949 5.7581-15.245 2.3371-2.4446 2.3371-2.4446 1.179-6.0612-1.4934-4.6637-1.4597-5.3774 0.28486-6.0407 1.9601-0.74521 2.5771-0.1139 3.7838 3.8716 0.55102 1.8199 1.1484 3.3075 1.3275 3.3058 0.1791-2e-3 1.1925-0.22533 2.252-0.49698 1.0595-0.27165 2.6128-0.64782 3.4517-0.83595 1.5253-0.34204 1.5253-0.34204 1.1561-4.7698-0.34316-4.1148 3.4988-7.2191 4.0232-3.2508 0.06 0.45407 0.26262 2.4515 0.45026 4.4388 0.34116 3.6132 0.34116 3.6132 2.9226 4.1839 1.4198 0.31388 2.9869 0.74703 3.4825 0.96256 0.72538 0.31549 1.1536-0.31235 2.1966-3.2207 1.1303-3.1515 1.4718-3.6115 2.6765-3.6041 2.8622 0.0174 3.0223 0.59867 1.4516 5.2704-1.4461 4.3012-1.4461 4.3012 0.1692 5.9782 0.88843 0.9224 2.4582 3.0821 3.4883 4.7992 1.8729 3.1222 1.8729 3.1222 3.0716 0.65484 0.6593-1.357 2.3349-3.682 3.7236-5.1666 2.5249-2.6993 2.5249-2.6993 1.367-6.128-1.3832-4.0957-1.4592-5.7334-0.28728-6.1832 2.2838-0.87637 2.8735-0.39162 4.1127 3.381 1.4923 4.5432 1.1098 4.1742 3.6317 3.5031 1.1646-0.30993 2.742-0.68912 3.5053-0.84264 1.3568-0.27289 1.3831-0.36992 1.182-4.3532-0.20573-4.0741-0.20573-4.0741 1.3642-4.3901 2.0716-0.41706 2.9438 0.76019 2.9534 3.9865 0.0124 4.1374 0.3313 4.6739 3.1894 5.3656 1.4202 0.34371 2.9955 0.78917 3.5006 0.9899 0.73442 0.29186 1.1639-0.30832 2.1439-2.996 1.3991-3.8372 1.6001-4.0406 3.5171-3.5595 1.7474 0.43859 1.7946 1.6058 0.24985 6.1802-1.1514 3.4096-1.1514 3.4096 1.3464 6.1878 3.5701 3.9708 4.9504 7.8515 4.9965 14.048 0.0372 4.9935 0.0372 4.9935 2.7246 5.6319 6.5176 1.5482 9.6577 10.575 4.3828 12.6-1.3997 0.53711-1.4663-0.29183-0.2506-3.1179 1.5611-3.6288 0.78515-5.3998-3.0776-7.0245-2.5506-1.0728-8.2355-2.1555-6.8625-1.307 0.4647 0.2872 0.23337 0.61839-0.74249 1.063-1.7979 0.81918-2.0765 0.81178-1.5851-0.0422 0.21775-0.37839 0.18392-0.49506-0.0752-0.25926-0.78531 0.71466-0.74504 1.9537 0.0737 2.2679 1.6354 0.62756 0.85539 2.0731-1.0175 1.8856-2.2907-0.22933-2.7323 1.8996-1.0022 4.8318 1.8149 3.076 1.3144 4.7409-0.74205 2.4685-0.934-1.0321-1.0098-1.0245-4.0756 0.40671-6.4269 3.0003-15.51 2.241-21.512-1.7984-2.6611-1.7908-2.6611-1.7908-4.1308 0.0511-1.4005 1.7552-3.6243 2.5169-3.6243 1.2414 0-0.33027 0.87211-1.6194 1.938-2.8646 3.6726-4.2906 3.7956-8.6434 0.24415-8.6434-2.0157 0-3.8076 1.7021-3.9113 3.7151-0.0429 0.83246-0.10477 2.1274-0.13759 2.8776-0.0729 1.6651-1.986 2.3272-1.986 0.68725 0-0.87145-0.40355-0.68402-2.3031 1.0696-5.6208 5.1891-17.169 7.1253-23.456 3.9328-2.3675-1.2021-2.3675-1.2021-2.9779 0.13759-0.67598 1.4836-2.0849 1.8187-2.0849 0.49584zm21.828-2.9931c21.55-9.931 8.8998-42.777-13.778-35.772-10.066 3.1091-19.814 24.128-11.228 24.21 5.2842 0.051 9.1166 5.0377 7.4313 9.6695-0.35402 0.97295-0.0757 1.3053 1.8027 2.1523 5.1087 2.3037 10.398 2.2165 15.772-0.26002zm-5.914-8.2472c-4.2994-1.3029-6.846-5.0792-6.4194-9.519 1.0046-10.455 16.128-10.955 17.786-0.58795 1.0246 6.4077-5.2277 11.967-11.366 10.107zm5.318-2.7186c4.8363-2.1965 5.3482-8.1436 0.99579-11.567-2.7638-2.174-3.8207-0.18942-1.2312 2.312 1.1707 1.1309 1.1084 0.91437 1.3014 4.5193 0.19138 3.574 0.22218 3.5471-3.0827 2.6898-4.4659-1.1584-5.7284-3.1268-4.0997-6.3917 1.8711-3.7507 0.79228-4.791-1.8489-1.7829-3.7882 4.3145-0.87376 10.619 5.1717 11.188 0.30271 0.0284 1.5599-0.40674 2.7937-0.96712zm37.954 12.298c5.0337-1.3111 6.6221-2.4261 6.4108-4.5002-0.30044-2.9502 2.4742-6.738 6.2073-8.4736 4.5651-2.1225 2.21-14.119-3.8725-19.725-11.414-10.521-29.172-4.5852-32.16 10.75-1 5.1326-0.245 8.0654 2.2054 8.5665 2.9524 0.60383 4.0422 2.3532 3.6333 5.8322-0.64765 5.5104 9.1871 9.7354 17.576 7.5505zm-12.577-9.8327c-10.009-3.6551-6.8693-18.149 3.7403-17.27 5.0937 0.42241 7.9918 3.725 7.9918 9.107 0 6.0138-6.0638 10.233-11.732 8.1626zm6.6046-2.8137c4.781-3.1326 3.0542-12.368-2.3125-12.368-0.57635 0 0.35766 2.4158 1.3832 3.5775 2.1047 2.3843 1.4467 9.6449-0.68123 7.517-0.35043-0.35043-1.1734-0.63714-1.8288-0.63714-3.0753 0-5.4249-4.5016-3.4041-6.5219 1.9485-1.9479 0.70278-3.9293-1.4204-2.2593-6.3633 5.0054 1.4716 15.142 8.2638 10.692zm-74.439-22.494c-0.69824-2.782-0.12626-3.8953 2.0958-4.0793 2.5452-0.21074 3.8003 1.6473 2.7177 4.0233-0.89573 1.9659-4.3242 2.0058-4.8136 0.056zm6.1287-10.553c-1.7219-1.7219-1.159-6.6565 1.0064-8.8219 3.1448-3.1448 6.3845-1.8463 6.3845 2.5591 0 5.0988-4.6309 9.0228-7.3909 6.2628zm6.0459-3.8179c2.114-5.5355-2.923-8.1738-5.4477-2.8534-1.2176 2.5658-1.1513 4.5457 0.19736 5.8943 1.6494 1.6494 3.9731 0.30357 5.2503-3.0409zm88.191 4.1007c-2.1428-1.2492-1.6523-6.9834 0.70516-8.2452 2.3654-1.2659 3.8134 0.21986 3.8134 3.9131 0 3.8584-2.0159 5.7911-4.5186 4.3321zm2.7968-1.2591c1.6402-1.9764 1.1261-6.4146-0.74308-6.4146-1.1564 0-2.4886 2.2165-2.4886 4.1403 0 2.6139 1.8622 3.9244 3.2317 2.2743zm-100.41 87.527c-2.1938-4.8812-2.594-7.5896-1.568-10.612 0.46541-1.3708 0.76262-2.9102 0.66047-3.4208-0.35608-1.7799-3.175 3.3257-4.8054 8.7034-2.6943 8.887-2.8607 8.0558 1.761 8.7947 2.1936 0.35072 4.2361 0.70731 4.5388 0.79244 1.0854 0.30517 0.91786-0.9102-0.58688-4.2583zm115.65 2.9873c2.2298-0.63277-2.883-16.305-5.6679-17.373-1.1992-0.46016-1.3524-0.11548-0.70526 1.5866 1.0897 2.8661 0.70436 7.2216-0.79668 9.0055-4.0522 4.8158 0.13625 8.7774 7.1699 6.7814z" stroke-width=".55039"/><g fill="#a1b30d" stroke-width="0"><path d="m274.01 245.32c-1.7079-0.86422-2.7069-2.8321-2.7069-5.3323 0-3.0365 0.91403-5.1621 2.8106-6.536 2.3305-1.6882 4.2014-1.5608 6.08 0.41411 2.4643 2.5905 2.4273 6.3447-0.0925 9.3955-1.8724 2.2669-4.1551 3.0384-6.0913 2.0587z" style="paint-order:stroke fill markers"/><path d="m267.89 234.87c-0.17111-0.0892-0.39791-0.2407-0.50399-0.33664-0.83813-0.75791-0.88417-2.8492-0.0947-4.2998 0.56156-1.0318 1.7134-1.7568 2.4933-1.5694 1.653 0.39724 2.5499 2.1848 2.0017 3.9897-0.1993 0.65613-0.31354 0.83929-0.86956 1.394-0.45015 0.44913-0.79192 0.69016-1.1516 0.81213-0.64112 0.21744-1.4689 0.22183-1.8752 0.01z" style="paint-order:stroke fill markers"/><path d="m349.53 235.07c-1.4317-0.96379-1.7219-1.8158-1.714-5.0333 8e-3 -3.1795 0.40336-4.2925 2.1449-6.034 2.1657-2.1657 5.2334-1.706 6.6376 0.99459 1.6799 3.2309-0.0847 8.5405-3.3664 10.129-1.4942 0.72332-2.5681 0.70698-3.702-0.0563z" style="paint-order:stroke fill markers"/><path d="m342.51 242.39c-1.2811-0.74668-1.0866-3.902 0.31822-5.1608 0.94011-0.84244 1.763-0.93528 2.6684-0.30107 1.3103 0.91773 1.5374 2.5944 0.59095 4.3627-0.59805 1.1175-2.5285 1.7106-3.5776 1.0991z" style="paint-order:stroke fill markers"/></g><g stroke-width="0"><path d="m265.89 249.46c-1.7866-0.97092-2.2897-1.9999-2.7434-5.6113-0.30562-2.4323-1.1662-6.1633-1.9125-8.2912-1.089-3.1051-1.18-4.5656-0.46077-7.399 0.78031-3.0742 0.624-4.2488-1.2101-9.0934-2.0006-5.2844-2.053-5.8479-1.0451-11.245 0.92543-4.9556 0.88269-6.2474-0.33447-10.109-0.76753-2.4349-1.3955-6.5728-1.3955-9.1954 0-3.2134-0.58023-5.9057-1.7792-8.256-1.5743-3.0859-1.7155-4.3317-1.226-10.816 0.476-6.3054 0.32676-7.7721-1.0693-10.509-1.366-2.6776-1.6018-4.7629-1.4918-13.193l0.13063-10.013 7.6882 0.29199c7.4151 0.28162 15.034-1.1764 17.358-3.3217 1.132-1.0451 4.4349-0.90773 5.1277 0.21333 0.8021 1.2978 13.26 0.46636 17.095-1.141 2.4766-1.038 3.116-1.0543 4.0052-0.10236 1.2787 1.3688 9.7416 1.4887 15.209 0.21551 2.7317-0.63617 5.0674-0.60218 8.5213 0.12401 3.639 0.76512 6.3044 0.77431 11.333 0.0391 5.5206-0.80722 7.1542-0.75679 10.191 0.31456 4.8411 1.708 7.76 1.6078 12.495-0.42892 3.5224-1.5153 4.3298-1.585 7.2633-0.6272 3.9723 1.297 4.5986 3.7348 2.4231 9.4312-1.3207 3.4582-1.322 4.0646-0.0205 9.3795 1.2663 5.1712 1.2752 6.0115 0.0993 9.3416-0.714 2.0219-1.2922 6.3955-1.2922 9.7742 0 3.3632-0.57702 8.603-1.2823 11.644-0.96806 4.1742-1.0717 6.2873-0.4228 8.6236 1.127 4.0579 1.094 8.0029-0.1005 11.99-0.75694 2.5264-0.72605 4.2492 0.14101 7.8636 1.0349 4.314 0.98093 4.9405-0.7952 9.2257-1.6832 4.0611-1.7947 5.0374-0.95581 8.369 0.79393 3.153 0.72312 4.2491-0.43172 6.6828-1.0479 2.2082-1.2477 4.0931-0.82765 7.8061 0.64208 5.6752 0.0812 6.2264-5.1414 5.053-1.8327-0.41177-7.4297-0.76517-12.438-0.78532-5.0082-0.0202-11.928-0.0657-15.378-0.10125-3.4496-0.0356-10.6 0.17729-15.889 0.47292-5.2894 0.29564-12.667 0.49164-16.395 0.43556-4.5483-0.0684-7.8398 0.34183-10.007 1.2472-2.4388 1.019-4.5834 1.2158-8.7617 0.80407-4.2711-0.42085-6.1271-0.23767-8.1404 0.80344-3.116 1.6113-3.3326 1.6146-6.1331 0.0927zm13.901-4.8083c3.1075-2.673 3.7034-7.781 1.2682-10.87-1.8352-2.3281-4.4436-2.9136-6.6796-1.4994-0.92713 0.58639-1.4765 0.17662-2.2594-1.6854-1.3607-3.2361-4.1724-3.3198-5.3823-0.16037-1.1284 2.9466 0.0379 4.8575 2.8452 4.6615 1.923-0.13424 2.0479 0.0549 1.4387 2.1792-0.93269 3.2521-0.12773 6.576 1.9439 8.0271 2.4469 1.7139 4.2775 1.5389 6.8252-0.65259zm66.311-2.4657c2.6623-2.6623 0.0613-7.4202-3.1244-5.7152-1.6809 0.89962-2.438 4.8917-1.1685 6.1612 0.88756 0.88755 3.1995 0.64735 4.2928-0.446zm7.74-6.5477c1.9777-1.0584 4.135-5.0716 4.135-7.6921 0-5.4032-5.8634-7.6232-9.1382-3.4599-2.4595 3.1267-2.3913 8.9485 0.12538 10.711 2.1908 1.5345 2.7412 1.5842 4.8778 0.44076zm-28.46-9.1741c0.43527-0.68993 0.79717-2.4483 0.80421-3.9074 0.0112-2.3235 0.40228-2.7791 3.1488-3.6683 4.7543-1.5392 11.072-4.8823 14.631-7.7424 3.5861-2.8819 8.2217-9.4975 9.8438-14.049 0.82036-2.3017 1.4471-2.9278 2.6228-2.6203 2.1061 0.55076 2.0471-1.9722-0.0727-3.1067-0.88962-0.47613-2.599-0.86569-3.7985-0.86569-1.1995 0-2.673-0.4597-3.2745-1.0216-0.88869-0.83016-0.70635-1.2224 0.97318-2.0938 1.6307-0.84603 2.7631-0.86361 5.3675-0.0833 4.4681 1.3387 5.7631 3.3026 4.6244 7.0128-0.48522 1.581-0.61297 3.1438-0.28389 3.4729 1.2081 1.2081 3.452-1.2644 3.6948-4.0712 0.30378-3.5114-2.2214-7.0834-6.1756-8.7355-2.5835-1.0794-2.7474-1.4161-3.3098-6.7979-0.6219-5.9518-1.7488-8.8915-5.1492-13.433-1.7959-2.3985-1.9448-3.0879-1.1557-5.3515 1.2831-3.6806 1.1232-6.2677-0.42411-6.8614-1.8378-0.70524-2.6832-0.0176-4.0759 3.3155-1.2613 3.0188-2.3154 3.3902-5.8294 2.0542-1.7294-0.6575-2.1451-1.3736-2.1451-3.6948 0-4.1538-0.74852-5.5248-3.0164-5.5248-1.8456 0-2.0012 0.32717-2.0012 4.2076 0 4.3218-0.0726 4.4114-4.3212 5.3382-2.0263 0.442-2.3386 0.16131-3.4106-3.0662-0.84373-2.5402-1.6987-3.629-2.9999-3.8204-2.4488-0.36024-3.0468 1.5658-1.9001 6.1197 0.91186 3.6213 0.85023 3.8472-2.106 7.72-1.6749 2.1942-3.3446 3.9896-3.7103 3.9896s-1.8572-1.6457-3.3142-3.6571c-2.5444-3.5125-2.609-3.8007-1.6325-7.2884 1.1978-4.2783 0.67944-6.198-1.6738-6.198-1.2092 0-2.095 0.97343-3.044 3.3451-1.4053 3.5122-2.1953 3.8627-5.7019 2.5295-1.4801-0.56275-2.1451-1.4377-2.1451-2.8224 0-4.3299-1.0264-7.2335-2.557-7.2335-1.7278 0-2.7562 2.5385-2.6126 6.4491 0.0885 2.4106-0.21526 2.7726-2.9637 3.5315-3.4967 0.96548-3.672 0.86975-4.8847-2.6673-1.1154-3.2535-3.2456-4.7645-4.6862-3.324-0.78693 0.78692-0.8112 2.0442-0.10458 5.4169 0.85422 4.0772 0.78389 4.5421-0.98063 6.4828-3.8632 4.249-4.8799 6.7552-5.472 13.488-0.56172 6.3888-0.72967 6.816-3.6145 9.194-4.0118 3.3068-5.5634 8.1306-3.586 11.148 1.4944 2.2808 3.8649 2.8768 3.8649 0.97171 0-0.9109 3.4112-2.6669 3.7802-1.946 0.0495 0.0967 1.5712 2.0294 3.3816 4.2948 4.6385 5.8044 14.76 13.639 21.898 16.952 6.0077 2.7877 6.0629 2.8431 6.0629 6.0718 0 4.0712 0.19049 4.13 12.785 3.9444 7.7388-0.11403 10.028-0.41493 10.65-1.3996zm-63.994-64.811c0-2.2192-0.31376-2.539-2.7179-2.7708-2.5011-0.24115-2.7179-0.0689-2.7179 2.1604 0 3.0317 0.63699 3.6789 3.3138 3.3668 1.7452-0.20352 2.122-0.69286 2.122-2.7563zm6.7758-10.045c1.6897-1.6897 2.0501-2.7766 1.8436-5.5596-0.31607-4.2598-2.1382-5.7262-5.1275-4.1264-3.4312 1.8363-4.8921 6.7162-3.0443 10.169 1.1914 2.2262 3.8198 2.0257 6.3282-0.48271zm92.271 0.90768c0.54437-0.65593 0.87269-2.8198 0.7296-4.8085-0.23152-3.2178-0.48767-3.6159-2.3261-3.6159-1.3587 0-2.435 0.71568-3.1439 2.0907-2.3395 4.5376 1.7246 9.9677 4.7404 6.3338z" fill="#fcee21" style="paint-order:stroke fill markers"/><path d="m293.35 185.64c-3.0216-1.5057-4.5696-4.5414-3.7355-7.3254 0.46771-1.5611 2.6574-4.2515 3.4602-4.2515 0.68654 0 0.62534 0.41875-0.42639 2.9176-1.0901 2.59-0.9547 4.1562 0.4552 5.2653 1.118 0.87943 5.5973 2.3015 6.3452 2.0145 0.4136-0.15871 0.52924-0.89853 0.52924-3.3858 0-3.1158-0.0262-3.2141-1.2465-4.6747-1.2663-1.5157-1.6297-2.8491-0.77638-2.8491 0.77515 0 3.3134 2.3815 3.9355 3.6925 0.72608 1.5301 0.74847 4.209 0.0466 5.5664-0.63376 1.2256-2.3204 2.5614-4.2285 3.349-1.8324 0.75639-2.2646 0.72478-4.3586-0.31872z" fill="#00a0c6" style="paint-order:stroke fill markers"/><path d="m324.73 185.61c-2.3192-1.2037-3.8279-3.1722-4.2806-5.5851-0.31806-1.6954 0.9057-4.3392 2.4406-5.2726 1.9087-1.1607 2.4374 0.0978 0.88901 2.116-1.8264 2.3804 0.52577 6.8077 3.6169 6.8077 0.40838 0 1.1582 0.27239 1.6663 0.6053 0.89437 0.58602 0.94634 0.57751 1.6308-0.2671 1.0671-1.3167 0.74464-5.4613-0.5807-7.464-0.52712-0.79653-1.1084-1.8429-1.2918-2.3252-0.29789-0.7835-0.24072-0.87699 0.53623-0.87699 0.51015 0 1.3587 0.48902 2.0526 1.183 3.2346 3.2346 2.4046 9.061-1.5867 11.138-1.2708 0.6612-3.7611 0.63257-5.0927-0.0586z" fill="#00a0c6" style="paint-order:stroke fill markers"/><path d="m304.82 217.34c-9.9136-2.0491-27.775-14.302-25.262-17.33 0.8774-1.0572 1.66-1.0371 5.2181 0.1343 5.7871 1.9052 14.373 0.44825 19.768-3.3545 2.127-1.4993 3.8673-2.2808 3.8673-1.7367 0 0.66339 0.44365 0.62108 1.3468-0.12844 0.74071-0.61475 1.3468-2.0495 1.3468-3.1882 0-2.5607 2.2923-4.9899 4.0663-4.3092 1.9333 0.74186 1.6194 3.0498-0.92382 6.7925-1.2345 1.8168-2.2446 3.7287-2.2446 4.2487 0 1.4216 1.8906 1.1379 3.7737-0.5663 1.5706-1.4214 1.9071-1.3968 5.6277 0.41076 5.7526 2.7948 11.84 3.3744 17.662 1.6817 2.6748-0.77758 5.824-1.1625 6.9983-0.85543 1.9211 0.50237 2.0686 0.3416 1.4719-1.6036-1.4487-4.7225-1.5973-6.2022-0.6229-6.2022 0.55138 0 1.0025 0.80806 1.0025 1.7957 0 0.9976 0.59856 1.7957 1.3468 1.7957 2.0028 0 1.646 1.8701-1.2185 6.3869-6.1213 9.6523-17.66 15.419-32.9 16.442-3.4567 0.23206-8.103 0.0461-10.325-0.41318z" fill="#fcee21" style="paint-order:stroke fill markers"/><path d="m275.35 197.46c-1.0875-1.3842-1.9773-2.6286-1.9773-2.7652 0-0.13663 0.77841-0.24842 1.7298-0.24842 1.5436 0 1.7152-0.10141 1.594-0.94218-0.47203-3.2742-7.683-2.1526-9.6887 1.5071-0.59428 1.0844-0.58526 1.2304 0.10783 1.7466 0.64121 0.47756 0.65971 0.6004 0.12154 0.80692-0.77434 0.29713-2.2665-1.6666-2.6238-3.4531-0.15444-0.7722 4e-3 -1.7278 0.41151-2.4798 0.36452-0.67295 0.67043-0.98445 0.67979-0.69222 0.0107 0.33366 0.64951 0.53131 1.7172 0.53131 1.4422 0 1.7002-0.13504 1.7002-0.8899 0-0.53243-0.3415-0.97921-0.85012-1.1122-1.3328-0.34854-1.0107-0.84163 1.0684-1.6356 2.1833-0.8338 6.5005-0.61782 8.0587 0.40315 0.49344 0.32331 1.247 0.65736 1.6744 0.74233 1.0317 0.20504 1.2246 2.9541 0.36883 5.2552-0.3478 0.93512-0.96599 2.6098-1.3738 3.7216l-0.74139 2.0214z" fill="#fcee21" style="paint-order:stroke fill markers"/></g><g fill="#a1b30d" stroke-width="0"><path d="m264.1 151.83c-0.35666-0.17139-0.8998-0.73706-1.207-1.2571-1.6616-2.8129 1.951-8.7925 4.4908-7.4333 0.71908 0.38483 1.574 1.8743 1.574 2.7422 0 1.3135-0.98887 3.7685-1.9436 4.8253-1.144 1.2663-1.9607 1.581-2.9141 1.1228z" style="paint-order:stroke fill markers"/><path d="m257.14 163.64c-0.77872-0.70328-1.1882-2.5845-0.75909-3.4877 0.3896-0.82005 1.4256-1.292 2.5235-1.1495 1.9708 0.25569 2.349 0.66137 2.349 2.5192 0 0.75571-0.11103 1.1786-0.40879 1.5572-0.95433 1.2132-2.6911 1.4762-3.7047 0.56081z" style="paint-order:stroke fill markers"/><path d="m357.37 151.3c-0.98729-0.98729-0.71092-4.1663 0.46438-5.3416 1.0114-1.0114 1.0736-1.0169 1.707-0.15065 0.88188 1.206 0.83181 3.6605-0.10186 4.9935-0.86509 1.2351-1.2423 1.326-2.0695 0.4987z" style="paint-order:stroke fill markers"/></g><g fill="#de9329" stroke-width="0"><path d="m274.82 281.25c-9.6063-0.55696-10.867-1.002-10.867-3.8372v-2.4509h10.338c9.4564 0 10.432-0.17504 11.437-2.0529 0.60429-1.1291 0.85615-2.685 0.5597-3.4576-0.35346-0.9211 0.13044-1.4046 1.4057-1.4046 1.4077 0 1.9447 0.67151 1.9447 2.4316 0 2.0162 0.70145 2.6205 4.106 3.5372 2.2583 0.60809 7.5714 0.97431 11.807 0.81382 4.2356-0.1605 7.9562-0.0366 8.2681 0.27526 0.61385 0.61385 18.363 0.0414 22.002-0.70959 1.7053-0.35196 2.2227-1.1442 2.2227-3.4035 0-2.2862 0.44187-2.9448 1.9758-2.9448s1.9757 0.65859 1.9757 2.9448c0 3.7777 2.2981 4.4136 13.439 3.7185 8.138-0.50771 8.2943-0.4748 8.2943 1.7463 0 4.2515-3.5444 4.6433-44.454 4.9141-20.918 0.13846-40.923 0.0842-44.454-0.12053z" style="paint-order:stroke fill markers"/><path d="m288.87 290.42c-1.2721-0.21237-3.7131-1.0456-4.6555-1.5892-0.72447-0.41786-1.4701-1.2425-1.4722-1.628-3.3e-4 -0.0629 0.21965-0.36523 0.48884-0.67182 0.99927-1.1381 3.1852-1.6128 7.4271-1.6128 2.3481 0 3.3129 0.0644 4.2451 0.28343 2.377 0.55844 3.9914 1.6386 3.9914 2.6706 0 1.0137-1.7134 2.091-3.9639 2.4923-1.3562 0.24183-4.7579 0.27294-6.0608 0.0554z" style="paint-order:stroke fill markers"/><path d="m331.47 290.45c-1.339-0.44357-2.1089-1.0354-2.582-1.9847-0.46618-0.93549-0.51519-1.5768-0.14854-1.9435 1.134-1.134 5.3466-2.0438 9.5792-2.069 3.7723-0.0224 4.7194 0.39821 4.7171 2.0948-3e-3 2.2836-3.463 3.9734-8.4755 4.1393-1.8332 0.0607-2.2996 0.0249-3.0902-0.23699z" style="paint-order:stroke fill markers"/></g><g stroke-width="0"><path d="m266.22 272.86c-0.92993-0.19926-1.1486-0.51093-1.1486-1.6369 0-1.1955 0.30312-1.504 1.6434-1.6727 1.217-0.15319 14.231 0.0501 15.526 0.24252 1.3079 0.19433 1.6227 0.47562 1.6227 1.45 0 0.96652-0.27432 1.212-1.6013 1.4331-1.2588 0.2097-15.177 0.36931-16.042 0.18398z" style="paint-order:stroke fill markers"/><path d="m295.3 273.23c-1.6138-0.1258-3.3589-0.41746-3.7701-0.63008-0.53342-0.27584-0.91673-1.4536-0.64084-1.9691 0.30182-0.56397 1.5931-0.81988 4.9707-0.98515 4.0253-0.19696 10.813-0.1957 12.182 2e-3 1.3817 0.19986 1.8263 0.41381 2.0669 0.99463 0.25723 0.621 0.0349 1.2572-0.53474 1.5303-0.58539 0.28056-2.391 0.60976-4.5179 0.82368-1.8376 0.18483-8.3734 0.34126-9.7558 0.23349z" style="paint-order:stroke fill markers"/><path d="m320.05 272.85c-0.54183-0.23782-0.44336-0.52266 0.48383-1.3996 1.3153-1.244 3.1228-1.8109 6.87-2.1548 3.5018-0.32138 7.3425 0.25372 8.3371 1.2484 0.50855 0.50856 0.56708 1.3172 0.12432 1.7179-0.16377 0.14822-0.72153 0.34091-1.2395 0.42823-1.312 0.22117-14.116 0.3616-14.576 0.15985z" style="paint-order:stroke fill markers"/><path d="m347.36 273c-2.8056-0.12569-3.3584-0.22065-3.8273-0.65748-0.47818-0.44548-0.45196-1.4688 0.0505-1.9713 0.75013-0.75013 3.0624-1.0825 7.5351-1.083 4.7195-5.5e-4 8.9788 0.52312 10.446 1.2844 0.55733 0.28923 0.58956 0.34869 0.58956 1.0878 0 0.7103-0.0437 0.80277-0.47799 1.0109-0.87858 0.42109-8.3992 0.59378-14.316 0.32872z" style="paint-order:stroke fill markers"/></g><g stroke-width="0"><path d="m250.54 287.66c-0.54911-2.0016-0.89703-2.5483-1.6216-2.5483-0.69102 0-1.1242 0.58137-1.7261 2.3166l-0.80356 2.3166 0.10857-2.5483c0.0992-2.3286 0.0187-2.5611-0.93392-2.6964-2.172-0.30847-0.90178-4.9255 2.237-8.1309 3.2946-3.3646 3.7399-5.1196 5.5339-21.812 0.51886-4.8279 1.0319-8.8666 1.14-8.9747 0.10815-0.10815 0.72186-0.0648 1.3638 0.0963 0.97229 0.24402 1.1298 0.50477 0.94309 1.5614-0.12326 0.69768-1.16 6.4329-2.3039 12.745-2.3307 12.861-2.5203 15.946-1.1634 18.937 0.50406 1.1109 0.92106 3.0174 0.92666 4.2368 0.01 2.1123-0.0359 2.1924-0.96622 1.6946-1.3463-0.72051-1.7274-0.15549-1.8929 2.8066l-0.14237 2.5483z" fill="#fcee21" style="paint-order:stroke fill markers"/><path d="m375.69 287.76c-0.0509-3.1293-0.75244-4.0264-2.2056-2.8204-0.69116 0.57362-0.72679 0.38788-0.41222-2.149 0.18938-1.5273 0.6574-3.5066 1.04-4.3985 1.07-2.4941 0.81449-5.7321-1.4625-18.533-1.1559-6.4982-2.102-12.27-2.1026-12.826-1e-3 -0.9704 1.5891-1.9547 2.1889-1.3549 0.14669 0.14669 0.84959 5.5227 1.562 11.947 1.6884 15.225 1.7674 15.529 4.8216 18.584 2.366 2.366 2.66 2.9541 3.7559 7.512 0.30162 1.2545 0.25953 1.3285-0.43176 0.75898-1.1704-0.96418-2.1668-0.31022-2.1746 1.4273l-7e-3 1.5204-0.58397-1.1542c-0.32117-0.63482-0.9143-1.2178-1.318-1.2956-0.73649-0.14183-1.2066 0.74468-2.1588 4.0714-0.43812 1.5306-0.46684 1.4582-0.51149-1.2887z" fill="#fcee21" style="paint-order:stroke fill markers"/><path d="m312.64 269.96c-2.0583-2.0583-2.2238-3.4288-1.0818-8.9578l0.7535-3.6481h5.9744l1.2824 4.3059c1.6452 5.5241 1.6146 7.0928-0.17085 8.7701-2.0426 1.9189-4.5424 1.745-6.7575-0.47013z" fill="#fc0019" style="paint-order:stroke fill markers"/><path d="m311.71 252.65c-0.22632-1.2064-0.23092-2.9129-0.0102-3.7923 0.36664-1.4608 0.60302-1.5624 2.7376-1.1772 3.2917 0.59402 4.413 1.2965 4.6664 2.9234 0.40758 2.6166-1.2223 4.2396-4.2575 4.2396-2.616 0-2.7412-0.0876-3.1363-2.1934z" fill="#fc0019" style="paint-order:stroke fill markers"/><path d="m277.01 340.04c-0.81098-0.86858-1.6153-2.6948-1.8029-4.0937-0.49426-3.685 1.4268-5.4254 6.6392-6.0152 3.6228-0.40987 4.034-0.61567 5.2087-2.6066 1.4189-2.4048 1.8932-2.5955 3.035-1.2198 0.87967 1.0599 4.1147 1.2756 4.7091 0.31394 0.21343-0.34533 0.82003-0.62787 1.348-0.62787 0.76832 0 0.87719 0.48985 0.54538 2.4538-0.22801 1.3496-0.11799 3.5279 0.24449 4.8408 0.58011 2.101 0.49721 2.5592-0.69188 3.825-1.5954 1.6982-3.3463 1.8577-4.1732 0.38008-0.64792-1.1578-0.99068-1.0002-5.2522 2.4135-1.1019 0.88271-2.8702 1.4577-5.023 1.6333-2.9208 0.23823-3.4993 0.0815-4.7866-1.2972z" style="paint-order:stroke fill markers"/><path d="m341.59 340.79c-0.85301-0.34043-2.4588-1.3114-3.5684-2.1578-2.3551-1.7963-2.614-1.8376-3.948-0.63034-0.88153 0.79777-1.2573 0.74799-3.084-0.40859-1.9364-1.2261-2.0455-1.4732-1.5781-3.5769 0.27614-1.2429 0.44431-3.5874 0.37373-5.21-0.13848-3.1836 0.50946-4.1834 1.7457-2.6939 1.0198 1.2288 3.6916 1.1928 5.0852-0.0684 1.2952-1.1722 2.4435-0.69007 2.4435 1.0259 0 1.7796 2.472 3.0844 5.7203 3.0192 3.5541-0.0713 5.1862 0.7669 6.1841 3.1761 0.9641 2.3275-0.0311 5.8682-2.0462 7.2796-1.5146 1.0609-4.9926 1.1772-7.328 0.2452z" style="paint-order:stroke fill markers"/></g></g><g transform="translate(-37.312 .19044)" fill="url(#linearGradient66133)" aria-label="Watch Spongebob"><path d="m101.87 370.35q1.0667 0 1.6 0.64t0.53333 1.7067q0 0.8-0.21333 1.4933l-10.72 35.573q-0.37333 1.0133-1.12 1.6533-0.69333 0.58666-1.6533 0.58666-0.96 0-1.7067-0.58666-0.74667-0.64-1.0667-1.6l-7.9467-30.72-8.0533 30.667q-0.37333 1.0133-1.12 1.6533-0.69333 0.58666-1.6533 0.58666-0.96 0-1.7067-0.58666-0.74667-0.58667-1.0667-1.6l-10.72-35.627q-0.21333-0.69333-0.21333-1.44 0-1.12 0.58667-1.76 0.64-0.64 1.7067-0.64 0.96 0 1.6533 0.53334 0.74667 0.53333 1.0667 1.5467l8.7467 30.4 8.0533-30.08q0.21333-0.8 0.96-1.3333t1.7067-0.53333q0.90667 0 1.6533 0.48t0.96 1.3333l8.16 30.347 8.8533-30.88q0.26667-0.96 0.90667-1.3867 0.69333-0.42667 1.8133-0.42667z"/><path d="m116.75 382.62q4.1067 0 7.4133 1.9733 3.36 1.92 5.28 5.3333 1.9733 3.36 1.9733 7.52v11.893q0 1.1733-0.8 1.9733-0.74666 0.74667-1.92 0.74667-1.1733 0-1.9733-0.74667-0.74666-0.8-0.74666-1.9733v-1.9733q-1.8667 2.2933-4.5333 3.5733-2.6667 1.28-5.76 1.28-3.84 0-6.9867-1.92-3.0933-1.92-4.9067-5.28-1.76-3.4133-1.76-7.5733t1.92-7.52q1.92-3.4133 5.28-5.3333 3.4133-1.9733 7.52-1.9733zm0 24.8q2.6667 0 4.8-1.28 2.1867-1.3333 3.4133-3.5733 1.2267-2.2933 1.2267-5.12 0-2.8267-1.2267-5.12-1.2267-2.2933-3.4133-3.5733-2.1333-1.3333-4.8-1.3333-2.6667 0-4.8533 1.3333-2.1333 1.28-3.4133 3.5733-1.2267 2.2933-1.2267 5.12 0 2.8267 1.2267 5.12 1.28 2.24 3.4133 3.5733 2.1867 1.28 4.8533 1.28z"/><path d="m151.95 406.67q0.96 0 1.6 0.74667 0.69334 0.74667 0.69334 1.92t-0.90667 1.92q-0.85333 0.74666-2.24 0.74666h-0.96q-2.6133 0-4.8-1.3333-2.1333-1.3867-3.36-3.7333-1.2267-2.3467-1.2267-5.28v-13.173h-2.4533q-1.12 0-1.8133-0.64-0.69334-0.64-0.69334-1.6 0-1.0667 0.69334-1.7067 0.69333-0.64 1.8133-0.64h2.4533v-7.68q0-1.1733 0.74667-1.92 0.74666-0.74667 1.92-0.74667 1.1733 0 1.92 0.74667 0.74667 0.74667 0.74667 1.92v7.68h4.5333q1.12 0 1.8133 0.64 0.69334 0.64 0.69334 1.7067 0 0.96-0.69334 1.6-0.69333 0.64-1.8133 0.64h-4.5333v13.173q0 2.1333 1.1733 3.5733 1.1733 1.44 2.88 1.44z"/><path d="m174.14 412.22q-4.2133 0-7.5733-1.92t-5.28-5.28q-1.8667-3.4133-1.8667-7.5733 0-4.2667 1.8133-7.6267 1.8667-3.4133 5.1733-5.28 3.3067-1.92 7.4667-1.92 6.2933 0 10.453 4.8 0.53333 0.58667 0.53333 1.3867 0 1.1733-1.1733 1.9733-0.53333 0.37333-1.2267 0.37333-1.2267 0-2.08-0.96-1.3333-1.44-2.9333-2.08-1.5467-0.69333-3.5733-0.69333-4.1067 0-6.6667 2.7733-2.56 2.72-2.56 7.2533 0 2.88 1.1733 5.1733 1.2267 2.24 3.36 3.52 2.1867 1.28 4.96 1.28 3.6267 0 5.8667-1.8667 1.0133-0.74666 1.9733-0.74666 0.74667 0 1.3867 0.48 1.0133 0.85333 1.0133 1.92 0 0.8-0.64 1.44-3.84 3.5733-9.6 3.5733z"/><path d="m207.47 382.57q3.68 0 6.6133 1.6t4.5867 4.6933q1.6533 3.04 1.6533 7.36v13.12q0 1.1733-0.8 1.9733-0.74667 0.74667-1.92 0.74667t-1.9733-0.74667q-0.74667-0.8-0.74667-1.9733v-13.12q0-4.32-2.3467-6.5067-2.2933-2.24-6.1333-2.24-2.24 0-4.1067 0.90667-1.8133 0.90667-2.88 2.4533-1.0133 1.5467-1.0133 3.4667v15.04q0 1.1733-0.74666 1.9733-0.74667 0.74667-1.9733 0.74667-1.1733 0-1.9733-0.74667-0.74666-0.8-0.74666-1.9733v-36.267q0-1.2267 0.74666-1.9733 0.8-0.74667 1.9733-0.74667 1.2267 0 1.9733 0.74667 0.74666 0.74667 0.74666 1.9733v13.067q1.7067-1.7067 4.0533-2.6133 2.3467-0.96 5.0133-0.96z"/><path d="m258.78 412.54q-5.1733 0-9.44-2.3467-4.2133-2.3467-5.8133-6.1333-0.26666-0.64-0.26666-1.0667 0-0.8 0.58666-1.3867 0.58667-0.64 1.6-0.85333 0.16-0.0533 0.53333-0.0533 0.85334 0 1.6 0.53334 0.8 0.48 1.1733 1.3333 0.95999 2.08 3.7867 3.52 2.8267 1.44 6.24 1.44 4 0 6.7733-1.8133 2.7733-1.8667 2.7733-5.0667 0-3.04-2.3467-5.1733-2.3467-2.1867-7.1467-2.6667-6.6133-0.63999-10.4-3.84-3.7867-3.2533-3.7867-8.1067 0-3.4133 1.92-5.8667 1.9733-2.5067 5.3333-3.7867 3.4133-1.3333 7.6267-1.3333 4.5867 0 7.7333 1.8667 3.1467 1.8667 5.3333 5.3333 0.64 1.0133 0.64 1.92 0 1.1733-1.0667 1.92-0.58666 0.37333-1.3867 0.37333t-1.4933-0.37333q-0.69334-0.42667-1.0667-1.12-1.44-2.4-3.6267-3.6267-2.1333-1.28-5.44-1.28-4.0533 0-6.56 1.6-2.5067 1.5467-2.5067 4.5333 0 2.7733 2.24 4.64 2.24 1.8667 8 2.4533 6.4 0.64 9.92 3.8933 3.52 3.2 3.52 8.48 0 3.84-2.08 6.6133-2.08 2.72-5.5467 4.1067-3.4133 1.3333-7.36 1.3333z"/><path d="m296.38 382.62q4.1067 0 7.4667 1.9733 3.4133 1.92 5.3333 5.3333 1.92 3.36 1.92 7.52t-1.8133 7.5733q-1.76 3.36-4.9067 5.28-3.0933 1.92-6.9333 1.92-3.0933 0-5.76-1.28-2.6667-1.28-4.5333-3.5733v14.4q0 1.2267-0.74667 1.9733-0.74666 0.74667-1.9733 0.74667-1.1733 0-1.9733-0.74667-0.74667-0.74667-0.74667-1.9733v-24.32q0-4.16 1.92-7.52 1.9733-3.4133 5.28-5.3333 3.36-1.9733 7.4667-1.9733zm0 24.8q2.6667 0 4.8-1.28 2.1867-1.3333 3.4133-3.5733 1.28-2.2933 1.28-5.12 0-2.8267-1.28-5.12-1.2267-2.2933-3.4133-3.5733-2.1333-1.3333-4.8-1.3333-2.6667 0-4.8533 1.3333-2.1333 1.28-3.36 3.5733-1.2267 2.2933-1.2267 5.12 0 2.8267 1.2267 5.12 1.2267 2.24 3.36 3.5733 2.1867 1.28 4.8533 1.28z"/><path d="m332.43 412.22q-4.2667 0-7.6267-1.8667-3.36-1.92-5.2267-5.28-1.8667-3.36-1.8667-7.6267 0-4.32 1.8667-7.68 1.8667-3.36 5.2267-5.2267 3.36-1.92 7.6267-1.92 4.2133 0 7.52 1.92 3.36 1.8667 5.2267 5.2267 1.92 3.36 1.92 7.68 0 4.2667-1.8667 7.6267-1.8667 3.36-5.2267 5.28-3.3067 1.8667-7.5733 1.8667zm0-4.8q2.72 0 4.8533-1.28 2.1867-1.28 3.36-3.52 1.2267-2.2933 1.2267-5.1733t-1.2267-5.1733q-1.1733-2.2933-3.36-3.5733-2.1333-1.28-4.8533-1.28t-4.9067 1.28q-2.1333 1.28-3.36 3.5733-1.2267 2.2933-1.2267 5.1733t1.2267 5.1733q1.2267 2.24 3.36 3.52 2.1867 1.28 4.9067 1.28z"/><path d="m369.71 382.57q3.68 0 6.6133 1.6 2.9333 1.6 4.5867 4.6933 1.6533 3.04 1.6533 7.36v13.12q0 1.1733-0.8 1.9733-0.74667 0.74667-1.92 0.74667t-1.9733-0.74667q-0.74667-0.8-0.74667-1.9733v-13.12q0-4.32-2.3467-6.5067-2.2933-2.24-6.1333-2.24-2.24 0-4.1067 0.90667-1.8133 0.90667-2.88 2.4533-1.0133 1.5467-1.0133 3.4667v15.04q0 1.1733-0.74666 1.9733-0.74667 0.74667-1.9733 0.74667-1.1733 0-1.9733-0.74667-0.74666-0.8-0.74666-1.9733v-23.787q0-1.2267 0.74666-1.9733 0.8-0.74666 1.9733-0.74666 1.2267 0 1.9733 0.74666 0.74666 0.74667 0.74666 1.9733v0.58666q1.7067-1.7067 4.0533-2.6133 2.3467-0.96 5.0133-0.96z"/><path d="m404.81 382.62q4.2133 0 7.52 1.92 3.36 1.8667 5.2267 5.2267 1.92 3.36 1.92 7.68v11.52q0 4.2133-1.8667 7.68-1.8667 3.4667-5.28 5.44-3.36 2.0267-7.6267 2.0267-3.84 0-7.1467-1.5467-3.3067-1.4933-5.5467-4.32-0.58666-0.74667-0.58666-1.4933 0-1.12 1.12-1.92 0.74666-0.48 1.4933-0.48 1.3333 0 2.1867 1.12 1.44 1.8667 3.6267 2.8267 2.1867 1.0133 4.96 1.0133 2.6133 0 4.7467-1.28 2.1333-1.2267 3.4133-3.68 1.28-2.4 1.28-5.76v-2.6133q-1.6533 2.9333-4.3733 4.5867-2.72 1.6533-6.1333 1.6533-3.9467 0-7.0933-1.8667-3.0933-1.92-4.8533-5.28-1.7067-3.36-1.7067-7.6267 0-4.32 1.8667-7.68 1.8667-3.36 5.2267-5.2267 3.36-1.92 7.6267-1.92zm0 24.8q2.72 0 4.8533-1.28 2.1867-1.28 3.36-3.52 1.2267-2.2933 1.2267-5.1733t-1.2267-5.1733q-1.1733-2.2933-3.36-3.5733-2.1333-1.28-4.8533-1.28-2.72 0-4.9067 1.28-2.1333 1.28-3.36 3.5733-1.2267 2.2933-1.2267 5.1733t1.2267 5.1733q1.2267 2.24 3.36 3.52 2.1867 1.28 4.9067 1.28z"/><path d="m453.77 396.97q0 1.0133-0.69334 1.7067-0.69333 0.64-1.76 0.64h-20.267q0.58667 3.7333 3.36 6.0267 2.8267 2.2933 6.88 2.2933 1.6 0 3.3067-0.58666 1.76-0.58667 2.88-1.44 0.74666-0.58667 1.76-0.58667 1.0133 0 1.6 0.53333 0.96 0.8 0.96 1.8133 0 0.96-0.85334 1.6-1.8133 1.44-4.5333 2.3467-2.6667 0.90667-5.12 0.90667-4.3733 0-7.84-1.8667-3.4667-1.92-5.44-5.28-1.92-3.36-1.92-7.6267 0-4.2667 1.8133-7.6267 1.8667-3.4133 5.12-5.28 3.3067-1.92 7.4667-1.92 4.1067 0 7.0933 1.8133 2.9867 1.8133 4.5867 5.0667t1.6 7.4667zm-13.28-9.76q-3.8933 0-6.3467 2.1333-2.4 2.1333-3.04 5.7067h17.76q-0.48-3.5733-2.6667-5.7067-2.1867-2.1333-5.7067-2.1333z"/><path d="m476.43 382.62q3.84 0 6.9333 1.92 3.1467 1.92 4.9067 5.3333 1.8133 3.36 1.8133 7.52t-1.92 7.5733q-1.92 3.36-5.3333 5.3333-3.36 1.92-7.4667 1.92t-7.4667-1.92q-3.3067-1.9733-5.28-5.3333-1.92-3.4133-1.92-7.5733v-24.32q0-1.2267 0.74667-1.9733 0.8-0.74667 1.9733-0.74667 1.2267 0 1.9733 0.74667 0.74667 0.74667 0.74667 1.9733v14.4q1.8667-2.2933 4.5333-3.5733 2.6667-1.28 5.76-1.28zm-1.0667 24.8q2.6667 0 4.8-1.28 2.1867-1.3333 3.4133-3.6267 1.28-2.2933 1.28-5.12 0-2.8267-1.28-5.0667-1.2267-2.2933-3.4133-3.5733-2.1333-1.3333-4.8-1.3333-2.6667 0-4.8533 1.3333-2.1333 1.28-3.36 3.5733-1.2267 2.24-1.2267 5.0667 0 2.8267 1.2267 5.12 1.2267 2.2933 3.36 3.6267 2.1867 1.28 4.8533 1.28z"/><path d="m511.42 412.22q-4.2667 0-7.6267-1.8667-3.36-1.92-5.2267-5.28-1.8667-3.36-1.8667-7.6267 0-4.32 1.8667-7.68 1.8667-3.36 5.2267-5.2267 3.36-1.92 7.6267-1.92 4.2133 0 7.52 1.92 3.36 1.8667 5.2267 5.2267 1.92 3.36 1.92 7.68 0 4.2667-1.8667 7.6267-1.8667 3.36-5.2267 5.28-3.3067 1.8667-7.5733 1.8667zm0-4.8q2.72 0 4.8533-1.28 2.1867-1.28 3.36-3.52 1.2267-2.2933 1.2267-5.1733t-1.2267-5.1733q-1.1733-2.2933-3.36-3.5733-2.1333-1.28-4.8533-1.28-2.72 0-4.9067 1.28-2.1333 1.28-3.36 3.5733-1.2267 2.2933-1.2267 5.1733t1.2267 5.1733q1.2267 2.24 3.36 3.52 2.1867 1.28 4.9067 1.28z"/><path d="m549.93 382.62q3.84 0 6.9333 1.92 3.1467 1.92 4.9067 5.3333 1.8133 3.36 1.8133 7.52t-1.92 7.5733q-1.92 3.36-5.3333 5.3333-3.36 1.92-7.4667 1.92-4.1067 0-7.4667-1.92-3.3067-1.9733-5.28-5.3333-1.92-3.4133-1.92-7.5733v-24.32q0-1.2267 0.74666-1.9733 0.8-0.74667 1.9733-0.74667 1.2267 0 1.9733 0.74667 0.74666 0.74667 0.74666 1.9733v14.4q1.8667-2.2933 4.5333-3.5733 2.6667-1.28 5.76-1.28zm-1.0667 24.8q2.6667 0 4.8-1.28 2.1867-1.3333 3.4133-3.6267 1.28-2.2933 1.28-5.12 0-2.8267-1.28-5.0667-1.2267-2.2933-3.4133-3.5733-2.1333-1.3333-4.8-1.3333-2.6667 0-4.8533 1.3333-2.1333 1.28-3.36 3.5733-1.2267 2.24-1.2267 5.0667 0 2.8267 1.2267 5.12 1.2267 2.2933 3.36 3.6267 2.1867 1.28 4.8533 1.28z"/></g></svg>
