<?xml version="1.0" encoding="UTF-8"?>
<!-- Created with Inkscape (http://www.inkscape.org/) -->
<svg width="544" height="480" version="1.1" viewBox="0 0 544 480" xmlns="http://www.w3.org/2000/svg" xmlns:xlink="http://www.w3.org/1999/xlink"><defs><linearGradient id="linearGradient2178"><stop stop-color="#050505" offset="0"/><stop stop-color="#a6a6a6" offset="1"/></linearGradient><linearGradient id="linearGradient10100" x1="24.836" x2="730.42" y1="23.617" y2="600.64" gradientTransform="matrix(.41551 0 0 .41551 149.92 145.63)" gradientUnits="userSpaceOnUse" spreadMethod="reflect" xlink:href="#linearGradient2178"/><linearGradient id="linearGradient3838" x1="24.212" x2="476.43" y1="36.839" y2="480.22" gradientTransform="matrix(.37372 0 0 .32607 162.71 152.58)" gradientUnits="userSpaceOnUse" xlink:href="#linearGradient2178"/><linearGradient id="linearGradient24372" x1="55.04" x2="493.75" y1="332.13" y2="390.71" gradientUnits="userSpaceOnUse"><stop stop-color="#050505" offset="0"/><stop stop-color="#5b5b5b" offset="1"/></linearGradient></defs><g transform="matrix(1.1173 0 0 1.1173 -21.358 -93.48)"><path d="m173.16 155.45c-7.157 0-12.918 5.7613-12.918 12.918v147.34c0 7.157 5.7613 12.918 12.918 12.918h178.77c7.157 0 12.918-5.7613 12.918-12.918v-147.34c0-7.157-5.7613-12.918-12.918-12.918zm-1.4007 9.1413h12.57c1.7768 0 3.2072 1.4305 3.2072 3.2072v3.9084c0 1.7768-1.4305 3.2072-3.2072 3.2072h-12.57c-1.7768 0-3.2072-1.4305-3.2072-3.2072v-3.9084c0-1.7768 1.4305-3.2072 3.2072-3.2072zm28.167 0h12.571c1.7768 0 3.2064 1.4305 3.2064 3.2072v3.9084c0 1.7768-1.4297 3.2072-3.2064 3.2072h-12.571c-1.7768 0-3.2064-1.4305-3.2064-3.2072v-3.9084c0-1.7768 1.4297-3.2072 3.2064-3.2072zm28.168 0h12.57c1.7768 0 3.2072 1.4305 3.2072 3.2072v3.9084c0 1.7768-1.4305 3.2072-3.2072 3.2072h-12.57c-1.7768 0-3.2072-1.4305-3.2072-3.2072v-3.9084c0-1.7768 1.4305-3.2072 3.2072-3.2072zm28.167 0h12.571c1.7768 0 3.2064 1.4305 3.2064 3.2072v3.9084c0 1.7768-1.4296 3.2072-3.2064 3.2072h-12.571c-1.7768 0-3.2064-1.4305-3.2064-3.2072v-3.9084c0-1.7768 1.4297-3.2072 3.2064-3.2072zm28.168 0h12.57c1.7768 0 3.2072 1.4305 3.2072 3.2072v3.9084c0 1.7768-1.4305 3.2072-3.2072 3.2072h-12.57c-1.7768 0-3.2072-1.4305-3.2072-3.2072v-3.9084c0-1.7768 1.4305-3.2072 3.2072-3.2072zm28.167 0h12.571c1.7768 0 3.2064 1.4305 3.2064 3.2072v3.9084c0 1.7768-1.4297 3.2072-3.2064 3.2072h-12.571c-1.7768 0-3.2064-1.4305-3.2064-3.2072v-3.9084c0-1.7768 1.4297-3.2072 3.2064-3.2072zm28.168 0h12.57c1.7768 0 3.2072 1.4305 3.2072 3.2072v3.9084c0 1.7768-1.4305 3.2072-3.2072 3.2072h-12.57c-1.7768 0-3.2072-1.4305-3.2072-3.2072v-3.9084c0-1.7768 1.4305-3.2072 3.2072-3.2072zm-78.218 50.224a27.224 27.224 0 0 1 27.223 27.223 27.224 27.224 0 0 1-27.223 27.223 27.224 27.224 0 0 1-27.223-27.223 27.224 27.224 0 0 1 27.223-27.223zm-90.788 94.348h12.57c1.7768-1e-5 3.2072 1.4305 3.2072 3.2072v3.9084c0 1.7768-1.4305 3.2072-3.2072 3.2072h-12.57c-1.7768 1e-5 -3.2072-1.4305-3.2072-3.2072v-3.9084c0-1.7768 1.4305-3.2072 3.2072-3.2072zm28.167 0h12.571c1.7768-1e-5 3.2064 1.4305 3.2064 3.2072v3.9084c0 1.7768-1.4297 3.2072-3.2064 3.2072h-12.571c-1.7768 1e-5 -3.2064-1.4305-3.2064-3.2072v-3.9084c0-1.7768 1.4297-3.2072 3.2064-3.2072zm28.168 0h12.57c1.7768-1e-5 3.2072 1.4305 3.2072 3.2072v3.9084c0 1.7768-1.4305 3.2072-3.2072 3.2072h-12.57c-1.7768 1e-5 -3.2072-1.4305-3.2072-3.2072v-3.9084c0-1.7768 1.4305-3.2072 3.2072-3.2072zm28.167 0h12.571c1.7768-1e-5 3.2064 1.4305 3.2064 3.2072v3.9084c0 1.7768-1.4296 3.2072-3.2064 3.2072h-12.571c-1.7768 1e-5 -3.2064-1.4305-3.2064-3.2072v-3.9084c0-1.7768 1.4297-3.2072 3.2064-3.2072zm28.168 0h12.57c1.7768-1e-5 3.2072 1.4305 3.2072 3.2072v3.9084c0 1.7768-1.4305 3.2072-3.2072 3.2072h-12.57c-1.7768 1e-5 -3.2072-1.4305-3.2072-3.2072v-3.9084c0-1.7768 1.4305-3.2072 3.2072-3.2072zm28.167 0h12.571c1.7768-1e-5 3.2064 1.4305 3.2064 3.2072v3.9084c0 1.7768-1.4297 3.2072-3.2064 3.2072h-12.571c-1.7768 1e-5 -3.2064-1.4305-3.2064-3.2072v-3.9084c0-1.7768 1.4297-3.2072 3.2064-3.2072zm28.168 0h12.57c1.7768-1e-5 3.2072 1.4305 3.2072 3.2072v3.9084c0 1.7768-1.4305 3.2072-3.2072 3.2072h-12.57c-1.7768 1e-5 -3.2072-1.4305-3.2072-3.2072v-3.9084c0-1.7768 1.4305-3.2072 3.2072-3.2072z" fill="url(#linearGradient10100)" style="paint-order:fill markers stroke"/><path d="m249.92 258.03v-29.096l28.88 14.548z" fill="url(#linearGradient3838)" stroke="url(#linearGradient3838)" stroke-linecap="round" stroke-linejoin="round" stroke-width="5.2013" style="paint-order:fill markers stroke"/></g><g fill="url(#linearGradient24372)" aria-label="Funny Videos"><path d="m51.712 375.97q-1.408 0-2.368-0.96t-0.96-2.368v-43.328q0-1.472 0.96-2.368 0.96-0.96 2.368-0.96h28.928q1.472 0 2.368 0.896 0.896 0.832 0.896 2.24 0 1.344-0.896 2.176t-2.368 0.832h-25.6v15.552h18.368q1.408 0 2.304 0.896 0.96 0.832 0.96 2.176t-0.96 2.24q-0.896 0.832-2.304 0.832h-18.368v18.816q0 1.408-0.96 2.368t-2.368 0.96z"/><path d="m120.64 340.9q1.472 0 2.368 0.896t0.896 2.368v28.544q0 1.408-0.896 2.368-0.896 0.896-2.368 0.896-1.408 0-2.368-0.896-0.896-0.96-0.896-2.368v-0.704q-2.048 2.048-4.864 3.2-2.816 1.088-6.016 1.088-4.416 0-7.936-1.92-3.52-1.92-5.504-5.568-1.984-3.712-1.984-8.896v-15.744q0-1.408 0.896-2.304 0.96-0.96 2.368-0.96t2.304 0.96q0.96 0.896 0.96 2.304v15.744q0 5.184 2.752 7.872 2.816 2.624 7.424 2.624 2.688 0 4.864-1.088 2.24-1.088 3.456-2.944 1.28-1.856 1.28-4.16v-18.048q0-1.472 0.896-2.368 0.96-0.896 2.368-0.896z"/><path d="m152.83 340.64q4.416 0 7.936 1.92t5.504 5.632q1.984 3.648 1.984 8.832v15.744q0 1.408-0.96 2.368-0.896 0.896-2.304 0.896t-2.368-0.896q-0.896-0.96-0.896-2.368v-15.744q0-5.184-2.816-7.808-2.752-2.688-7.36-2.688-2.688 0-4.928 1.088-2.176 1.088-3.456 2.944-1.216 1.856-1.216 4.16v18.048q0 1.408-0.896 2.368-0.896 0.896-2.368 0.896-1.408 0-2.368-0.896-0.896-0.96-0.896-2.368v-28.544q0-1.472 0.896-2.368 0.96-0.896 2.368-0.896 1.472 0 2.368 0.896t0.896 2.368v0.704q2.048-2.048 4.864-3.136 2.816-1.152 6.016-1.152z"/><path d="m196.48 340.64q4.416 0 7.936 1.92t5.504 5.632q1.984 3.648 1.984 8.832v15.744q0 1.408-0.96 2.368-0.896 0.896-2.304 0.896t-2.368-0.896q-0.896-0.96-0.896-2.368v-15.744q0-5.184-2.816-7.808-2.752-2.688-7.36-2.688-2.688 0-4.928 1.088-2.176 1.088-3.456 2.944-1.216 1.856-1.216 4.16v18.048q0 1.408-0.896 2.368-0.896 0.896-2.368 0.896-1.408 0-2.368-0.896-0.896-0.96-0.896-2.368v-28.544q0-1.472 0.896-2.368 0.96-0.896 2.368-0.896 1.472 0 2.368 0.896t0.896 2.368v0.704q2.048-2.048 4.864-3.136 2.816-1.152 6.016-1.152z"/><path d="m249.47 341.28q1.984 0.768 1.984 2.496 0 0.64-0.384 1.536l-19.584 44.032q-0.768 1.984-2.496 1.984-0.64 0-1.536-0.384-1.92-0.832-1.92-2.496 0-0.768 0.384-1.536l6.4-14.4-14.4-27.328q-0.32-0.576-0.32-1.344 0-0.832 0.512-1.536t1.344-1.088q0.576-0.256 1.28-0.256 1.792 0 2.688 1.792l11.712 23.296 10.304-23.232q0.832-1.856 2.496-1.856 0.832 0 1.536 0.32z"/><path d="m313.09 325.99q1.408 0 2.176 0.768 0.832 0.768 0.832 1.984 0 0.768-0.384 1.664l-18.944 43.456q-0.832 2.112-3.008 2.112-2.048 0-3.008-2.112l-18.752-42.88q-0.512-1.344-0.512-2.24 0-1.28 0.768-1.984 0.832-0.768 2.24-0.768 2.24 0 3.072 1.984l16.128 38.656 16.384-38.656q0.448-1.152 1.152-1.536 0.704-0.448 1.856-0.448z"/><path d="m327.04 375.97q-1.408 0-2.368-0.896-0.896-0.96-0.896-2.368v-28.48q0-1.472 0.896-2.368 0.96-0.896 2.368-0.896 1.472 0 2.368 0.896t0.896 2.368v28.48q0 1.408-0.896 2.368-0.896 0.896-2.368 0.896zm0-40.704q-1.728 0-3.008-1.216-1.216-1.28-1.216-3.008t1.216-2.944q1.28-1.28 3.008-1.28t2.944 1.28q1.28 1.216 1.28 2.944t-1.28 3.008q-1.216 1.216-2.944 1.216z"/><path d="m372.67 325.99q1.472 0 2.368 0.896t0.896 2.368v29.184q0 4.992-2.368 9.088-2.304 4.032-6.336 6.4-3.968 2.304-8.896 2.304t-9.024-2.304q-4.032-2.368-6.336-6.4-2.304-4.096-2.304-9.088t2.112-9.024q2.176-4.096 5.888-6.4 3.776-2.304 8.384-2.304 3.712 0 6.912 1.536t5.44 4.288v-17.28q0-1.472 0.896-2.368 0.96-0.896 2.368-0.896zm-14.336 44.48q3.2 0 5.76-1.536 2.624-1.6 4.096-4.352t1.472-6.144-1.472-6.08q-1.472-2.752-4.096-4.288-2.56-1.6-5.76-1.6t-5.824 1.6q-2.56 1.536-4.096 4.288-1.472 2.688-1.472 6.08t1.472 6.144q1.536 2.752 4.096 4.352 2.624 1.536 5.824 1.536z"/><path d="m418.88 357.92q0 1.216-0.832 2.048-0.832 0.768-2.112 0.768h-24.32q0.704 4.48 4.032 7.232 3.392 2.752 8.256 2.752 1.92 0 3.968-0.704 2.112-0.704 3.456-1.728 0.896-0.704 2.112-0.704t1.92 0.64q1.152 0.96 1.152 2.176 0 1.152-1.024 1.92-2.176 1.728-5.44 2.816-3.2 1.088-6.144 1.088-5.248 0-9.408-2.24-4.16-2.304-6.528-6.336-2.304-4.032-2.304-9.152t2.176-9.152q2.24-4.096 6.144-6.336 3.968-2.304 8.96-2.304 4.928 0 8.512 2.176t5.504 6.08 1.92 8.96zm-15.936-11.712q-4.672 0-7.616 2.56-2.88 2.56-3.648 6.848h21.312q-0.576-4.288-3.2-6.848t-6.848-2.56z"/><path d="m441.79 376.23q-5.12 0-9.152-2.24-4.032-2.304-6.272-6.336t-2.24-9.152q0-5.184 2.24-9.216t6.272-6.272q4.032-2.304 9.152-2.304 5.056 0 9.024 2.304 4.032 2.24 6.272 6.272 2.304 4.032 2.304 9.216 0 5.12-2.24 9.152t-6.272 6.336q-3.968 2.24-9.088 2.24zm0-5.76q3.264 0 5.824-1.536 2.624-1.536 4.032-4.224 1.472-2.752 1.472-6.208t-1.472-6.208q-1.408-2.752-4.032-4.288-2.56-1.536-5.824-1.536t-5.888 1.536q-2.56 1.536-4.032 4.288t-1.472 6.208 1.472 6.208q1.472 2.688 4.032 4.224 2.624 1.536 5.888 1.536z"/><path d="m481.86 376.23q-4.352 0-8.192-1.344t-6.016-3.52q-0.832-0.832-0.832-1.984 0-1.536 1.28-2.496 1.216-0.896 2.24-0.896 1.28 0 2.432 1.152 1.216 1.344 3.648 2.368 2.432 0.96 5.184 0.96 3.648 0 5.632-1.216 2.048-1.216 2.048-3.264 0-1.984-1.984-3.264-1.984-1.344-6.72-2.24-12.288-2.368-12.288-10.112 0-3.136 1.856-5.312t4.864-3.264 6.4-1.088q4.16 0 7.424 1.344 3.328 1.344 5.248 3.712 0.832 1.024 0.832 2.048 0 1.088-1.088 1.984-0.704 0.512-1.792 0.512-1.664 0-3.008-1.216-1.6-1.472-3.392-2.048-1.792-0.64-4.352-0.64-2.944 0-4.864 1.024-1.856 0.96-1.856 2.752 0 1.28 0.64 2.176 0.64 0.832 2.432 1.6 1.792 0.704 5.184 1.408 6.976 1.408 9.856 3.904 2.944 2.496 2.944 6.464 0 2.944-1.6 5.376-1.6 2.368-4.736 3.776-3.072 1.344-7.424 1.344z"/></g></svg>
