<?xml version="1.0" encoding="UTF-8"?>
<!-- Created with Inkscape (http://www.inkscape.org/) -->
<svg width="544" height="480" version="1.1" viewBox="0 0 544 480" xmlns="http://www.w3.org/2000/svg" xmlns:xlink="http://www.w3.org/1999/xlink"><defs><linearGradient id="linearGradient4754" x1="178.79" x2="357.18" y1="140.49" y2="333.5" gradientTransform="translate(-1.1387e-6)" gradientUnits="userSpaceOnUse" xlink:href="#linearGradient4752-3-6"/><linearGradient id="linearGradient4752-3-6"><stop stop-color="#ff7f2a" offset="0"/><stop stop-color="#ff2ab4" offset="1"/></linearGradient><filter id="filter6018" x="-.093956" y="-.093956" width="1.1879" height="1.2274" color-interpolation-filters="sRGB"><feFlood flood-color="rgb(0,0,0)" flood-opacity=".63922" result="flood"/><feComposite in="flood" in2="SourceGraphic" operator="in" result="composite1"/><feGaussianBlur in="composite1" result="blur" stdDeviation="9.34521"/><feOffset dx="0" dy="9.43102" result="offset"/><feComposite in="SourceGraphic" in2="offset" result="composite2"/></filter><linearGradient id="linearGradient10100" x1="24.836" x2="517.27" y1="23.617" y2="440.4" gradientTransform="translate(.94846 7.9917)" gradientUnits="userSpaceOnUse" xlink:href="#linearGradient4752-3-6"/><linearGradient id="linearGradient62516" x1=".22515" x2="522.28" y1="15.685" y2="515.71" gradientUnits="userSpaceOnUse" xlink:href="#linearGradient4752-3-6"/></defs><g transform="matrix(.59661 0 0 .59661 -622.31 15.103)"><circle transform="matrix(1.229 0 0 1.229 -62.28 -56.032)" cx="272" cy="240" r="119.36" fill="url(#linearGradient4754)" filter="url(#filter6018)" style="paint-order:fill markers stroke"/><path d="m271.07 273.63 0.48045-124.62 5.9315 1.1892c-0.95279 10.314 1.2926 17.993 12.348 29.69 22.412 23.713 31.665 27.766 34.181 39.477 2.5166 11.711 1.0351 20.056-2.3663 27.701-3.4014 7.645-8.7227 14.591-13.886 23.505l-2.7499-2.8492s12.524-19.719 12.447-32.801c-0.0619-10.561-1.1969-15.504-9.2383-26.925-7.6552-10.872-30.926-15.084-30.926-15.084l-0.8 94.35s-2.4536 13.618-20.716 19.802c-13.27 4.493-30.563 2.293-34.648-4.0561-8.1716-12.698 6.5446-24.712 20.704-30.486 14.159-5.7737 29.238 1.1027 29.238 1.1027z" fill="#fff"/></g><path d="m56.875 31.609c-17.224 0-31.09 13.865-31.09 31.09v354.6c0 17.224 13.865 31.09 31.09 31.09h430.25c17.224 0 31.09-13.865 31.09-31.09v-354.6c0-17.224-13.865-31.09-31.09-31.09h-430.25zm215.12 142.87a65.518 65.518 0 0 1 65.518 65.518 65.518 65.518 0 0 1-65.518 65.518 65.518 65.518 0 0 1-65.518-65.518 65.518 65.518 0 0 1 65.518-65.518z" fill="url(#linearGradient10100)" style="paint-order:fill markers stroke"/><path transform="matrix(.89942 0 0 .78473 31.727 24.701)" d="m233.36 323.42v-89.232l77.277 44.616z" fill="url(#linearGradient62516)" stroke="url(#linearGradient62516)" stroke-linecap="round" stroke-linejoin="round" stroke-width="14.9" style="paint-order:fill markers stroke"/><g transform="translate(0 -1.2613)" fill="#fff"><rect x="45.785" y="402.81" width="45.689" height="24.845" ry="7.7186" style="paint-order:stroke fill markers"/><rect x="452.53" y="402.81" width="45.689" height="24.845" ry="7.7186" style="paint-order:stroke fill markers"/><rect x="113.58" y="402.81" width="45.689" height="24.845" ry="7.7186" style="paint-order:stroke fill markers"/><rect x="181.37" y="402.81" width="45.689" height="24.845" ry="7.7186" style="paint-order:stroke fill markers"/><rect x="249.16" y="402.81" width="45.689" height="24.845" ry="7.7186" style="paint-order:stroke fill markers"/><rect x="316.95" y="402.81" width="45.689" height="24.845" ry="7.7186" style="paint-order:stroke fill markers"/><rect x="384.74" y="402.81" width="45.689" height="24.845" ry="7.7186" style="paint-order:stroke fill markers"/></g><g transform="translate(0 -349.2)" fill="#fff"><rect x="45.785" y="402.81" width="45.689" height="24.845" ry="7.7186" style="paint-order:stroke fill markers"/><rect x="452.53" y="402.81" width="45.689" height="24.845" ry="7.7186" style="paint-order:stroke fill markers"/><rect x="113.58" y="402.81" width="45.689" height="24.845" ry="7.7186" style="paint-order:stroke fill markers"/><rect x="181.37" y="402.81" width="45.689" height="24.845" ry="7.7186" style="paint-order:stroke fill markers"/><rect x="249.16" y="402.81" width="45.689" height="24.845" ry="7.7186" style="paint-order:stroke fill markers"/><rect x="316.95" y="402.81" width="45.689" height="24.845" ry="7.7186" style="paint-order:stroke fill markers"/><rect x="384.74" y="402.81" width="45.689" height="24.845" ry="7.7186" style="paint-order:stroke fill markers"/></g></svg>
