<?xml version="1.0" encoding="UTF-8"?>
<!-- Created with Inkscape (http://www.inkscape.org/) -->
<svg id="SVGRoot" width="720px" height="576px" version="1.1" viewBox="0 0 720 576" xml:space="preserve" xmlns="http://www.w3.org/2000/svg" xmlns:xlink="http://www.w3.org/1999/xlink"><defs><filter id="filter1524" x="-.087909" y="-.1239" width="1.1758" height="1.2478" color-interpolation-filters="sRGB"><feFlood flood-color="rgb(56,56,56)" flood-opacity=".49804" result="flood"/><feComposite in="flood" in2="SourceGraphic" operator="in" result="composite1"/><feGaussianBlur in="composite1" result="blur" stdDeviation="21.9436"/><feOffset dx="0" dy="0" result="offset"/><feComposite in="SourceGraphic" in2="offset" result="composite2"/></filter><linearGradient id="linearGradient2178"><stop stop-color="#050505" offset="0"/><stop stop-color="#a6a6a6" offset="1"/></linearGradient><linearGradient id="linearGradient10100" x1="24.836" x2="730.42" y1="23.617" y2="600.64" gradientTransform="matrix(.41551 0 0 .41551 149.92 145.63)" gradientUnits="userSpaceOnUse" spreadMethod="reflect" xlink:href="#linearGradient2178"/><linearGradient id="linearGradient3838" x1="24.212" x2="476.43" y1="36.839" y2="480.22" gradientTransform="matrix(.37372 0 0 .32607 162.71 152.58)" gradientUnits="userSpaceOnUse" xlink:href="#linearGradient2178"/></defs><rect x=".89597" y=".89597" width="718.21" height="574.21" fill="#e3e8fe"/><rect x="60.46" y="75.477" width="599.08" height="425.05" ry="45.182" fill="#fff" filter="url(#filter1524)" stroke-width="0"/><rect x="90.129" y="96.532" width="539.73" height="382.94" ry="40.706" fill="none" stroke="#6d6d6d" stroke-dasharray="14.11201955, 14.11201955" stroke-linecap="round" stroke-linejoin="round" stroke-width="2.352" style="paint-order:normal"/><g transform="matrix(1.4438 0 0 1.4438 -19.08 -61.464)"><path d="m173.16 155.45c-7.157 0-12.918 5.7613-12.918 12.918v147.34c0 7.157 5.7613 12.918 12.918 12.918h178.77c7.157 0 12.918-5.7613 12.918-12.918v-147.34c0-7.157-5.7613-12.918-12.918-12.918zm-1.4007 9.1413h12.57c1.7768 0 3.2072 1.4305 3.2072 3.2072v3.9084c0 1.7768-1.4305 3.2072-3.2072 3.2072h-12.57c-1.7768 0-3.2072-1.4305-3.2072-3.2072v-3.9084c0-1.7768 1.4305-3.2072 3.2072-3.2072zm28.167 0h12.571c1.7768 0 3.2064 1.4305 3.2064 3.2072v3.9084c0 1.7768-1.4297 3.2072-3.2064 3.2072h-12.571c-1.7768 0-3.2064-1.4305-3.2064-3.2072v-3.9084c0-1.7768 1.4297-3.2072 3.2064-3.2072zm28.168 0h12.57c1.7768 0 3.2072 1.4305 3.2072 3.2072v3.9084c0 1.7768-1.4305 3.2072-3.2072 3.2072h-12.57c-1.7768 0-3.2072-1.4305-3.2072-3.2072v-3.9084c0-1.7768 1.4305-3.2072 3.2072-3.2072zm28.167 0h12.571c1.7768 0 3.2064 1.4305 3.2064 3.2072v3.9084c0 1.7768-1.4296 3.2072-3.2064 3.2072h-12.571c-1.7768 0-3.2064-1.4305-3.2064-3.2072v-3.9084c0-1.7768 1.4297-3.2072 3.2064-3.2072zm28.168 0h12.57c1.7768 0 3.2072 1.4305 3.2072 3.2072v3.9084c0 1.7768-1.4305 3.2072-3.2072 3.2072h-12.57c-1.7768 0-3.2072-1.4305-3.2072-3.2072v-3.9084c0-1.7768 1.4305-3.2072 3.2072-3.2072zm28.167 0h12.571c1.7768 0 3.2064 1.4305 3.2064 3.2072v3.9084c0 1.7768-1.4297 3.2072-3.2064 3.2072h-12.571c-1.7768 0-3.2064-1.4305-3.2064-3.2072v-3.9084c0-1.7768 1.4297-3.2072 3.2064-3.2072zm28.168 0h12.57c1.7768 0 3.2072 1.4305 3.2072 3.2072v3.9084c0 1.7768-1.4305 3.2072-3.2072 3.2072h-12.57c-1.7768 0-3.2072-1.4305-3.2072-3.2072v-3.9084c0-1.7768 1.4305-3.2072 3.2072-3.2072zm-78.218 50.224a27.224 27.224 0 0 1 27.223 27.223 27.224 27.224 0 0 1-27.223 27.223 27.224 27.224 0 0 1-27.223-27.223 27.224 27.224 0 0 1 27.223-27.223zm-90.788 94.348h12.57c1.7768-1e-5 3.2072 1.4305 3.2072 3.2072v3.9084c0 1.7768-1.4305 3.2072-3.2072 3.2072h-12.57c-1.7768 1e-5 -3.2072-1.4305-3.2072-3.2072v-3.9084c0-1.7768 1.4305-3.2072 3.2072-3.2072zm28.167 0h12.571c1.7768-1e-5 3.2064 1.4305 3.2064 3.2072v3.9084c0 1.7768-1.4297 3.2072-3.2064 3.2072h-12.571c-1.7768 1e-5 -3.2064-1.4305-3.2064-3.2072v-3.9084c0-1.7768 1.4297-3.2072 3.2064-3.2072zm28.168 0h12.57c1.7768-1e-5 3.2072 1.4305 3.2072 3.2072v3.9084c0 1.7768-1.4305 3.2072-3.2072 3.2072h-12.57c-1.7768 1e-5 -3.2072-1.4305-3.2072-3.2072v-3.9084c0-1.7768 1.4305-3.2072 3.2072-3.2072zm28.167 0h12.571c1.7768-1e-5 3.2064 1.4305 3.2064 3.2072v3.9084c0 1.7768-1.4296 3.2072-3.2064 3.2072h-12.571c-1.7768 1e-5 -3.2064-1.4305-3.2064-3.2072v-3.9084c0-1.7768 1.4297-3.2072 3.2064-3.2072zm28.168 0h12.57c1.7768-1e-5 3.2072 1.4305 3.2072 3.2072v3.9084c0 1.7768-1.4305 3.2072-3.2072 3.2072h-12.57c-1.7768 1e-5 -3.2072-1.4305-3.2072-3.2072v-3.9084c0-1.7768 1.4305-3.2072 3.2072-3.2072zm28.167 0h12.571c1.7768-1e-5 3.2064 1.4305 3.2064 3.2072v3.9084c0 1.7768-1.4297 3.2072-3.2064 3.2072h-12.571c-1.7768 1e-5 -3.2064-1.4305-3.2064-3.2072v-3.9084c0-1.7768 1.4297-3.2072 3.2064-3.2072zm28.168 0h12.57c1.7768-1e-5 3.2072 1.4305 3.2072 3.2072v3.9084c0 1.7768-1.4305 3.2072-3.2072 3.2072h-12.57c-1.7768 1e-5 -3.2072-1.4305-3.2072-3.2072v-3.9084c0-1.7768 1.4305-3.2072 3.2072-3.2072z" fill="url(#linearGradient10100)" style="paint-order:fill markers stroke"/><path d="m249.92 258.03v-29.096l28.88 14.548z" fill="url(#linearGradient3838)" stroke="url(#linearGradient3838)" stroke-linecap="round" stroke-linejoin="round" stroke-width="5.2013" style="paint-order:fill markers stroke"/></g></svg>
