<?xml version="1.0" encoding="UTF-8"?>
<!-- Created with Inkscape (http://www.inkscape.org/) -->
<svg width="544" height="480" version="1.1" viewBox="0 0 544 480" xmlns="http://www.w3.org/2000/svg" xmlns:xlink="http://www.w3.org/1999/xlink"><defs><linearGradient id="linearGradient11007" x1="509.96" x2="42.112" y1="377.92" y2="334.24" gradientUnits="userSpaceOnUse"><stop stop-color="#784421" offset="0"/><stop stop-color="#c87137" offset="1"/></linearGradient></defs><g transform="matrix(.73526 0 0 .73526 78.028 31.991)"><rect x="106.97" y="63.168" width="313.8" height="219.13" fill="#afe"/><path d="m103.86 293.9s60.907-128.44 87.092-127.84c26.186 0.59728 81.308 133.99 81.308 133.99z" fill="#784421"/><path d="m433.49 283.9s-53.576-161.34-95.541-156.92-94.619 146.03-94.619 146.03z" fill="#c87137"/><path d="m109.24 45.893a15.102 15.102 0 0 0-15.1 15.1v226.35a15.102 15.102 0 0 0 15.1 15.1h307.62a15.102 15.102 0 0 0 15.1-15.1v-226.35a15.102 15.102 0 0 0-15.1-15.1zm15.1 30.199h277.42v196.15h-277.42z" color="#000000" fill="#f95" fill-rule="evenodd" stroke-linejoin="round" style="-inkscape-stroke:none"/><circle cx="207.67" cy="128.49" r="29.816" fill="#fd5"/></g><g fill="url(#linearGradient11007)" aria-label="Download Wallpapers"><path d="m36.373 369.93q-0.93867 0-1.5787-0.64t-0.64-1.5787v-28.885q0-0.98133 0.64-1.5787 0.64-0.64001 1.5787-0.64001h7.7227q4.8213 0 8.576 2.1333 3.7547 2.1333 5.8453 5.9307 2.0907 3.7547 2.0907 8.576 0 4.8213-2.0907 8.6187-2.0907 3.7973-5.8453 5.9307-3.7547 2.1333-8.576 2.1333zm7.7227-3.9253q3.5413 0 6.3147-1.6213 2.816-1.6213 4.352-4.5227 1.5787-2.944 1.5787-6.6133 0-3.6693-1.5787-6.5707-1.536-2.9013-4.352-4.5227-2.7733-1.6213-6.3147-1.6213h-5.504v25.472z"/><path d="m77.717 370.1q-3.4133 0-6.1013-1.4933-2.688-1.536-4.1813-4.224-1.4933-2.688-1.4933-6.1013 0-3.456 1.4933-6.144 1.4933-2.688 4.1813-4.1813 2.688-1.536 6.1013-1.536 3.3707 0 6.016 1.536 2.688 1.4933 4.1813 4.1813 1.536 2.688 1.536 6.144 0 3.4133-1.4933 6.1013-1.4933 2.688-4.1813 4.224-2.6453 1.4933-6.0587 1.4933zm0-3.84q2.176 0 3.8827-1.024 1.7493-1.024 2.688-2.816 0.98133-1.8347 0.98133-4.1387t-0.98133-4.1387q-0.93867-1.8347-2.688-2.8587-1.7067-1.024-3.8827-1.024-2.176 0-3.9253 1.024-1.7067 1.024-2.688 2.8587t-0.98133 4.1387 0.98133 4.1387q0.98133 1.792 2.688 2.816 1.7493 1.024 3.9253 1.024z"/><path d="m119.45 346.59q0.896 0 1.3227 0.46934 0.46933 0.46933 0.46933 1.28 0 0.68266-0.21333 1.2373l-6.3147 18.944q-0.21333 0.59733-0.768 1.024-0.55466 0.384-1.2373 0.384-0.72533 0-1.3227-0.384-0.55467-0.42667-0.72533-1.024l-4.1813-15.488-4.3947 15.488q-0.21333 0.59733-0.81067 1.024-0.55466 0.384-1.2373 0.384-0.68267 0-1.28-0.384-0.55467-0.42667-0.768-1.024l-6.3147-18.944q-0.17067-0.55467-0.17067-1.1947 0-1.792 1.792-1.792 0.81067 0 1.3227 0.46934 0.55467 0.46933 0.896 1.4933l4.608 14.379 4.352-14.72q0.21333-0.72534 0.72533-1.152 0.55467-0.46934 1.408-0.46934 0.81067 0 1.3227 0.46934 0.55467 0.42666 0.768 1.152l3.84 15.019 4.6933-14.677q0.59733-1.9627 2.2187-1.9627z"/><path d="m137.32 346.38q2.944 0 5.2907 1.28t3.6693 3.7547q1.3227 2.432 1.3227 5.888v10.496q0 0.93867-0.64 1.5787-0.59733 0.59733-1.536 0.59733-0.93866 0-1.5787-0.59733-0.59733-0.64-0.59733-1.5787v-10.496q0-3.456-1.8773-5.2053-1.8347-1.792-4.9067-1.792-1.792 0-3.2853 0.72534-1.4507 0.72533-2.304 1.9627-0.81067 1.2373-0.81067 2.7733v12.032q0 0.93867-0.59733 1.5787-0.59734 0.59733-1.5787 0.59733-0.93867 0-1.5787-0.59733-0.59733-0.64-0.59733-1.5787v-19.029q0-0.98133 0.59733-1.5787 0.64-0.59734 1.5787-0.59734 0.98133 0 1.5787 0.59734 0.59733 0.59733 0.59733 1.5787v0.46934q1.3653-1.3653 3.2427-2.0907 1.8773-0.768 4.0107-0.768z"/><path d="m160.36 369.93q-1.8347 0-3.328-0.98134-1.4507-1.024-2.2613-2.816-0.81067-1.8347-0.81067-4.096v-23.296q0-0.93867 0.59733-1.536 0.59734-0.59734 1.536-0.59734 0.93867 0 1.536 0.59734 0.59733 0.59733 0.59733 1.536v23.296q0 1.5787 0.59733 2.6027 0.59734 1.024 1.536 1.024h1.0667q0.85334 0 1.3653 0.59733 0.55466 0.59733 0.55466 1.536t-0.81066 1.536q-0.81067 0.59734-2.0907 0.59734z"/><path d="m176.92 370.1q-3.4133 0-6.1013-1.4933-2.688-1.536-4.1813-4.224-1.4933-2.688-1.4933-6.1013 0-3.456 1.4933-6.144 1.4933-2.688 4.1813-4.1813 2.688-1.536 6.1013-1.536 3.3707 0 6.016 1.536 2.688 1.4933 4.1813 4.1813 1.536 2.688 1.536 6.144 0 3.4133-1.4933 6.1013-1.4933 2.688-4.1813 4.224-2.6453 1.4933-6.0587 1.4933zm0-3.84q2.176 0 3.8827-1.024 1.7493-1.024 2.688-2.816 0.98133-1.8347 0.98133-4.1387t-0.98133-4.1387q-0.93867-1.8347-2.688-2.8587-1.7067-1.024-3.8827-1.024t-3.9253 1.024q-1.7067 1.024-2.688 2.8587t-0.98133 4.1387 0.98133 4.1387q0.98133 1.792 2.688 2.816 1.7493 1.024 3.9253 1.024z"/><path d="m205.72 346.42q3.2853 0 5.9307 1.5787 2.688 1.536 4.224 4.2667 1.5787 2.688 1.5787 6.016v9.5147q0 0.93867-0.64 1.5787-0.59734 0.59733-1.536 0.59733-0.93867 0-1.5787-0.59733-0.59734-0.64-0.59734-1.5787v-1.5787q-1.4933 1.8347-3.6267 2.8587-2.1333 1.024-4.608 1.024-3.072 0-5.5893-1.536-2.4747-1.536-3.9253-4.224-1.408-2.7307-1.408-6.0587 0-3.328 1.536-6.016 1.536-2.7307 4.224-4.2667 2.7307-1.5787 6.016-1.5787zm0 19.84q2.1333 0 3.84-1.024 1.7493-1.0667 2.7307-2.8587 0.98133-1.8347 0.98133-4.096 0-2.2613-0.98133-4.096-0.98134-1.8347-2.7307-2.8587-1.7067-1.0667-3.84-1.0667-2.1333 0-3.8827 1.0667-1.7067 1.024-2.7307 2.8587-0.98134 1.8347-0.98134 4.096 0 2.2613 0.98134 4.096 1.024 1.792 2.7307 2.8587 1.7493 1.024 3.8827 1.024z"/><path d="m244.07 336.61q0.98133 0 1.5787 0.59734 0.59733 0.59733 0.59733 1.5787v19.456q0 3.328-1.5787 6.0587-1.536 2.688-4.224 4.2667-2.6453 1.536-5.9307 1.536-3.2853 0-6.016-1.536-2.688-1.5787-4.224-4.2667-1.536-2.7307-1.536-6.0587t1.408-6.016q1.4507-2.7307 3.9253-4.2667 2.5173-1.536 5.5893-1.536 2.4747 0 4.608 1.024 2.1333 1.024 3.6267 2.8587v-11.52q0-0.98134 0.59733-1.5787 0.64-0.59734 1.5787-0.59734zm-9.5573 29.653q2.1333 0 3.84-1.024 1.7493-1.0667 2.7307-2.9013 0.98133-1.8347 0.98133-4.096 0-2.2613-0.98133-4.0533-0.98133-1.8347-2.7307-2.8587-1.7067-1.0667-3.84-1.0667-2.1333 0-3.8827 1.0667-1.7067 1.024-2.7307 2.8587-0.98133 1.792-0.98133 4.0533 0 2.2613 0.98133 4.096 1.024 1.8347 2.7307 2.9013 1.7493 1.024 3.8827 1.024z"/><path d="m300.44 336.61q0.85334 0 1.28 0.51201 0.42667 0.512 0.42667 1.3653 0 0.64-0.17067 1.1947l-8.576 28.459q-0.29867 0.81067-0.896 1.3227-0.55467 0.46934-1.3227 0.46934t-1.3653-0.46934q-0.59733-0.512-0.85333-1.28l-6.3573-24.576-6.4427 24.533q-0.29867 0.81067-0.896 1.3227-0.55467 0.46934-1.3227 0.46934t-1.3653-0.46934q-0.59733-0.46933-0.85334-1.28l-8.576-28.501q-0.17067-0.55467-0.17067-1.152 0-0.896 0.46934-1.408 0.512-0.51201 1.3653-0.51201 0.768 0 1.3227 0.42667 0.59733 0.42667 0.85333 1.2373l6.9973 24.32 6.4427-24.064q0.17067-0.64 0.768-1.0667 0.59734-0.42667 1.3653-0.42667 0.72533 0 1.3227 0.384 0.59734 0.384 0.768 1.0667l6.528 24.277 7.0827-24.704q0.21333-0.768 0.72534-1.1093 0.55466-0.34134 1.4507-0.34134z"/><path d="m312.34 346.42q3.2853 0 5.9307 1.5787 2.688 1.536 4.224 4.2667 1.5787 2.688 1.5787 6.016v9.5147q0 0.93867-0.64001 1.5787-0.59733 0.59733-1.536 0.59733-0.93866 0-1.5787-0.59733-0.59734-0.64-0.59734-1.5787v-1.5787q-1.4933 1.8347-3.6267 2.8587-2.1333 1.024-4.608 1.024-3.072 0-5.5893-1.536-2.4747-1.536-3.9253-4.224-1.408-2.7307-1.408-6.0587 0-3.328 1.536-6.016 1.536-2.7307 4.224-4.2667 2.7307-1.5787 6.016-1.5787zm0 19.84q2.1333 0 3.84-1.024 1.7493-1.0667 2.7307-2.8587 0.98134-1.8347 0.98134-4.096 0-2.2613-0.98134-4.096-0.98133-1.8347-2.7307-2.8587-1.7067-1.0667-3.84-1.0667-2.1333 0-3.8827 1.0667-1.7067 1.024-2.7307 2.8587-0.98133 1.8347-0.98133 4.096 0 2.2613 0.98133 4.096 1.024 1.792 2.7307 2.8587 1.7493 1.024 3.8827 1.024z"/><path d="m336.11 369.93q-1.8347 0-3.328-0.98134-1.4507-1.024-2.2613-2.816-0.81066-1.8347-0.81066-4.096v-23.296q0-0.93867 0.59733-1.536 0.59733-0.59734 1.536-0.59734t1.536 0.59734q0.59734 0.59733 0.59734 1.536v23.296q0 1.5787 0.59733 2.6027 0.59733 1.024 1.536 1.024h1.0667q0.85333 0 1.3653 0.59733 0.55467 0.59733 0.55467 1.536t-0.81067 1.536q-0.81067 0.59734-2.0907 0.59734z"/><path d="m348.91 369.93q-1.8347 0-3.328-0.98134-1.4507-1.024-2.2613-2.816-0.81067-1.8347-0.81067-4.096v-23.296q0-0.93867 0.59734-1.536 0.59733-0.59734 1.536-0.59734t1.536 0.59734q0.59733 0.59733 0.59733 1.536v23.296q0 1.5787 0.59734 2.6027 0.59733 1.024 1.536 1.024h1.0667q0.85333 0 1.3653 0.59733 0.55467 0.59733 0.55467 1.536t-0.81067 1.536q-0.81067 0.59734-2.0907 0.59734z"/><path d="m367.89 346.42q3.2853 0 5.9733 1.5787 2.7307 1.536 4.2667 4.2667 1.536 2.688 1.536 6.016 0 3.328-1.4507 6.0587-1.408 2.688-3.9253 4.224-2.4747 1.536-5.5467 1.536-2.4747 0-4.608-1.024-2.1333-1.024-3.6267-2.8587v11.52q0 0.98134-0.59734 1.5787-0.59733 0.59733-1.5787 0.59733-0.93867 0-1.5787-0.59733-0.59734-0.59733-0.59734-1.5787v-19.456q0-3.328 1.536-6.016 1.5787-2.7307 4.224-4.2667 2.688-1.5787 5.9733-1.5787zm0 19.84q2.1333 0 3.84-1.024 1.7493-1.0667 2.7307-2.8587 1.024-1.8347 1.024-4.096 0-2.2613-1.024-4.096-0.98134-1.8347-2.7307-2.8587-1.7067-1.0667-3.84-1.0667-2.1333 0-3.8827 1.0667-1.7067 1.024-2.688 2.8587-0.98134 1.8347-0.98134 4.096 0 2.2613 0.98134 4.096 0.98133 1.792 2.688 2.8587 1.7493 1.024 3.8827 1.024z"/><path d="m396.74 346.42q3.2853 0 5.9307 1.5787 2.688 1.536 4.224 4.2667 1.5787 2.688 1.5787 6.016v9.5147q0 0.93867-0.64 1.5787-0.59734 0.59733-1.536 0.59733-0.93867 0-1.5787-0.59733-0.59734-0.64-0.59734-1.5787v-1.5787q-1.4933 1.8347-3.6267 2.8587-2.1333 1.024-4.608 1.024-3.072 0-5.5893-1.536-2.4747-1.536-3.9253-4.224-1.408-2.7307-1.408-6.0587 0-3.328 1.536-6.016 1.536-2.7307 4.224-4.2667 2.7307-1.5787 6.016-1.5787zm0 19.84q2.1333 0 3.84-1.024 1.7493-1.0667 2.7307-2.8587 0.98133-1.8347 0.98133-4.096 0-2.2613-0.98133-4.096-0.98134-1.8347-2.7307-2.8587-1.7067-1.0667-3.84-1.0667-2.1333 0-3.8827 1.0667-1.7067 1.024-2.7307 2.8587-0.98134 1.8347-0.98134 4.096 0 2.2613 0.98134 4.096 1.024 1.792 2.7307 2.8587 1.7493 1.024 3.8827 1.024z"/><path d="m426.69 346.42q3.2853 0 5.9733 1.5787 2.7307 1.536 4.2667 4.2667 1.536 2.688 1.536 6.016 0 3.328-1.4507 6.0587-1.408 2.688-3.9253 4.224-2.4747 1.536-5.5467 1.536-2.4747 0-4.608-1.024-2.1333-1.024-3.6267-2.8587v11.52q0 0.98134-0.59734 1.5787-0.59733 0.59733-1.5787 0.59733-0.93866 0-1.5787-0.59733-0.59734-0.59733-0.59734-1.5787v-19.456q0-3.328 1.536-6.016 1.5787-2.7307 4.224-4.2667 2.688-1.5787 5.9733-1.5787zm0 19.84q2.1333 0 3.84-1.024 1.7493-1.0667 2.7307-2.8587 1.024-1.8347 1.024-4.096 0-2.2613-1.024-4.096-0.98134-1.8347-2.7307-2.8587-1.7067-1.0667-3.84-1.0667-2.1333 0-3.8827 1.0667-1.7067 1.024-2.688 2.8587-0.98133 1.8347-0.98133 4.096 0 2.2613 0.98133 4.096 0.98134 1.792 2.688 2.8587 1.7493 1.024 3.8827 1.024z"/><path d="m465.9 357.9q0 0.81066-0.55467 1.3653-0.55466 0.512-1.408 0.512h-16.213q0.46933 2.9867 2.688 4.8213 2.2613 1.8347 5.504 1.8347 1.28 0 2.6453-0.46934 1.408-0.46933 2.304-1.152 0.59733-0.46933 1.408-0.46933t1.28 0.42667q0.768 0.64 0.768 1.4507 0 0.768-0.68266 1.28-1.4507 1.152-3.6267 1.8773-2.1333 0.72533-4.096 0.72533-3.4987 0-6.272-1.4933-2.7733-1.536-4.352-4.224-1.536-2.688-1.536-6.1013 0-3.4133 1.4507-6.1013 1.4933-2.7307 4.096-4.224 2.6453-1.536 5.9733-1.536 3.2853 0 5.6747 1.4507 2.3893 1.4507 3.6693 4.0533t1.28 5.9733zm-10.624-7.808q-3.1147 0-5.0773 1.7067-1.92 1.7067-2.432 4.5653h14.208q-0.384-2.8587-2.1333-4.5653-1.7493-1.7067-4.5653-1.7067z"/><path d="m482.88 346.34q2.2613 0 3.5413 0.68267 1.28 0.68267 1.28 1.7067 0 0.29866-0.0427 0.42666-0.384 1.3653-1.7067 1.3653-0.21333 0-0.64-0.0853-1.7067-0.29866-2.7733-0.29866-3.072 0-4.9493 1.408-1.8773 1.408-1.8773 3.7973v12.459q0 1.024-0.55466 1.5787-0.512 0.55467-1.5787 0.55467-1.024 0-1.5787-0.512-0.55467-0.55467-0.55467-1.6213v-19.072q0-1.024 0.55467-1.5787t1.5787-0.55467q2.1333 0 2.1333 2.1333v0.81066q1.28-1.4933 3.1573-2.3467 1.8773-0.85334 4.0107-0.85334z"/><path d="m500.67 370.1q-2.9013 0-5.4613-0.896t-4.0107-2.3467q-0.55466-0.55466-0.55466-1.3227 0-1.024 0.85333-1.664 0.81067-0.59733 1.4933-0.59733 0.85334 0 1.6213 0.768 0.81067 0.896 2.432 1.5787 1.6213 0.64 3.456 0.64 2.432 0 3.7547-0.81067 1.3653-0.81066 1.3653-2.176 0-1.3227-1.3227-2.176-1.3227-0.896-4.48-1.4933-8.192-1.5787-8.192-6.7413 0-2.0907 1.2373-3.5413 1.2373-1.4507 3.2427-2.176 2.0053-0.72533 4.2667-0.72533 2.7733 0 4.9493 0.896 2.2187 0.896 3.4987 2.4747 0.55467 0.68267 0.55467 1.3653 0 0.72533-0.72534 1.3227-0.46933 0.34133-1.1947 0.34133-1.1093 0-2.0053-0.81067-1.0667-0.98133-2.2613-1.3653-1.1947-0.42667-2.9013-0.42667-1.9627 0-3.2427 0.68267-1.2373 0.64-1.2373 1.8347 0 0.85333 0.42666 1.4507 0.42667 0.55467 1.6213 1.0667 1.1947 0.46934 3.456 0.93867 4.6507 0.93867 6.5707 2.6027 1.9627 1.664 1.9627 4.3093 0 1.9627-1.0667 3.584-1.0667 1.5787-3.1573 2.5173-2.048 0.896-4.9493 0.896z"/></g></svg>
