<?xml version="1.0" encoding="UTF-8"?>
<!-- Created with Inkscape (http://www.inkscape.org/) -->
<svg id="SVGRoot" width="720px" height="576px" version="1.1" viewBox="0 0 720 576" xml:space="preserve" xmlns="http://www.w3.org/2000/svg"><defs><filter id="filter1524" x="-.087909" y="-.1239" width="1.1758" height="1.2478" color-interpolation-filters="sRGB"><feFlood flood-color="rgb(56,56,56)" flood-opacity=".49804" result="flood"/><feComposite in="flood" in2="SourceGraphic" operator="in" result="composite1"/><feGaussianBlur in="composite1" result="blur" stdDeviation="21.9436"/><feOffset dx="0" dy="0" result="offset"/><feComposite in="SourceGraphic" in2="offset" result="composite2"/></filter></defs><rect x=".89597" y=".89597" width="718.21" height="574.21" fill="#e3e8fe"/><rect x="60.46" y="75.477" width="599.08" height="425.05" ry="45.182" fill="#fff" filter="url(#filter1524)" stroke-width="0"/><rect x="90.129" y="96.532" width="539.73" height="382.94" ry="40.706" fill="none" stroke="#6d6d6d" stroke-dasharray="14.11201955, 14.11201955" stroke-linecap="round" stroke-linejoin="round" stroke-width="2.352" style="paint-order:normal"/><g transform="matrix(1.3561 0 0 1.3561 -8.861 70.953)"><g transform="matrix(.73526 0 0 .73526 78.028 31.991)"><rect x="106.97" y="63.168" width="313.8" height="219.13" fill="#afe"/><path d="m103.86 293.9s60.907-128.44 87.092-127.84c26.186 0.59728 81.308 133.99 81.308 133.99z" fill="#784421"/><path d="m433.49 283.9s-53.576-161.34-95.541-156.92-94.619 146.03-94.619 146.03z" fill="#c87137"/><path d="m109.24 45.893a15.102 15.102 0 0 0-15.1 15.1v226.35a15.102 15.102 0 0 0 15.1 15.1h307.62a15.102 15.102 0 0 0 15.1-15.1v-226.35a15.102 15.102 0 0 0-15.1-15.1zm15.1 30.199h277.42v196.15h-277.42z" color="#000000" fill="#f95" fill-rule="evenodd" stroke-linejoin="round" style="-inkscape-stroke:none"/><circle cx="207.67" cy="128.49" r="29.816" fill="#fd5"/></g></g></svg>
