<?xml version="1.0" encoding="UTF-8"?>
<!-- Created with Inkscape (http://www.inkscape.org/) -->
<svg width="544" height="480" version="1.1" viewBox="0 0 544 480" xmlns="http://www.w3.org/2000/svg"><g fill="#f00"><path d="m196.73 91.697c-21.898 0-39.527 17.627-39.527 39.525v82.143c0 21.898 17.629 39.527 39.527 39.527h150.54c21.898 0 39.527-17.629 39.527-39.527v-82.143c0-21.898-17.629-39.525-39.527-39.525h-150.54zm50.053 44.494 66.457 39.166-67.148 37.971 0.69141-77.137z" stroke-linecap="round" stroke-linejoin="round" stroke-width="7.4813" style="paint-order:stroke fill markers"/><g aria-label="Youtube Download"><path d="m46.374 324.01q1.0133 0 1.6533 0.74667 0.69333 0.74667 0.69333 1.8133 0 0.90667-0.53333 1.76l-14.347 22.133v12.427q0 1.1733-0.8 1.9733-0.8 0.8-1.9733 0.8-1.12 0-1.92-0.8-0.8-0.8-0.8-1.9733v-12.427l-14.24-22.133q-0.58667-0.90666-0.58667-1.7067 0-1.12 0.8-1.8667 0.85333-0.74667 1.9733-0.74667 0.85333 0 1.3867 0.37334 0.53333 0.37333 1.0667 1.1733l12.48 19.787 12.693-20q0.85333-1.3333 2.4533-1.3333z"/><path d="m61.68 365.88q-4.2667 0-7.6267-1.8667-3.36-1.92-5.2267-5.28-1.8667-3.36-1.8667-7.6267 0-4.32 1.8667-7.68 1.8667-3.36 5.2267-5.2267 3.36-1.92 7.6267-1.92 4.2133 0 7.52 1.92 3.36 1.8667 5.2267 5.2267 1.92 3.36 1.92 7.68 0 4.2667-1.8667 7.6267-1.8667 3.36-5.2267 5.28-3.3067 1.8667-7.5733 1.8667zm0-4.8q2.72 0 4.8533-1.28 2.1867-1.28 3.36-3.52 1.2267-2.2933 1.2267-5.1733t-1.2267-5.1733q-1.1733-2.2933-3.36-3.5733-2.1333-1.28-4.8533-1.28-2.72 0-4.9067 1.28-2.1333 1.28-3.36 3.5733t-1.2267 5.1733 1.2267 5.1733q1.2267 2.24 3.36 3.52 2.1867 1.28 4.9067 1.28z"/><path d="m108.51 336.44q1.2267 0 1.9733 0.74667 0.74666 0.74667 0.74666 1.9733v23.787q0 1.1733-0.74666 1.9733-0.74667 0.74666-1.9733 0.74666-1.1733 0-1.9733-0.74666-0.74667-0.8-0.74667-1.9733v-0.58666q-1.7067 1.7067-4.0533 2.6667-2.3467 0.90667-5.0133 0.90667-3.68 0-6.6133-1.6-2.9333-1.6-4.5867-4.64-1.6533-3.0933-1.6533-7.4133v-13.12q0-1.1733 0.74667-1.92 0.8-0.8 1.9733-0.8 1.1733 0 1.92 0.8 0.8 0.74667 0.8 1.92v13.12q0 4.32 2.2933 6.56 2.3467 2.1867 6.1867 2.1867 2.24 0 4.0533-0.90667 1.8667-0.90667 2.88-2.4533 1.0667-1.5467 1.0667-3.4667v-15.04q0-1.2267 0.74667-1.9733 0.8-0.74667 1.9733-0.74667z"/><path d="m133.25 360.33q0.96 0 1.6 0.74667 0.69333 0.74667 0.69333 1.92t-0.90666 1.92q-0.85334 0.74666-2.24 0.74666h-0.96q-2.6133 0-4.8-1.3333-2.1333-1.3867-3.36-3.7333-1.2267-2.3467-1.2267-5.28v-13.173h-2.4533q-1.12 0-1.8133-0.64-0.69333-0.64-0.69333-1.6 0-1.0667 0.69333-1.7067 0.69334-0.64 1.8133-0.64h2.4533v-7.68q0-1.1733 0.74666-1.92 0.74667-0.74667 1.92-0.74667 1.1733 0 1.92 0.74667 0.74667 0.74667 0.74667 1.92v7.68h4.5333q1.12 0 1.8133 0.64t0.69333 1.7067q0 0.96-0.69333 1.6t-1.8133 0.64h-4.5333v13.173q0 2.1333 1.1733 3.5733t2.88 1.44z"/><path d="m166.27 336.44q1.2267 0 1.9733 0.74667 0.74666 0.74667 0.74666 1.9733v23.787q0 1.1733-0.74666 1.9733-0.74667 0.74666-1.9733 0.74666-1.1733 0-1.9733-0.74666-0.74666-0.8-0.74666-1.9733v-0.58666q-1.7067 1.7067-4.0533 2.6667-2.3467 0.90667-5.0133 0.90667-3.68 0-6.6133-1.6-2.9333-1.6-4.5867-4.64-1.6533-3.0933-1.6533-7.4133v-13.12q0-1.1733 0.74667-1.92 0.8-0.8 1.9733-0.8t1.92 0.8q0.8 0.74667 0.8 1.92v13.12q0 4.32 2.2933 6.56 2.3467 2.1867 6.1867 2.1867 2.24 0 4.0533-0.90667 1.8667-0.90667 2.88-2.4533 1.0667-1.5467 1.0667-3.4667v-15.04q0-1.2267 0.74666-1.9733 0.8-0.74667 1.9733-0.74667z"/><path d="m194.32 336.28q3.84 0 6.9333 1.92 3.1467 1.92 4.9067 5.3333 1.8133 3.36 1.8133 7.52t-1.92 7.5733q-1.92 3.36-5.3333 5.3333-3.36 1.92-7.4667 1.92t-7.4667-1.92q-3.3067-1.9733-5.28-5.3333-1.92-3.4133-1.92-7.5733v-24.32q0-1.2267 0.74667-1.9733 0.8-0.74667 1.9733-0.74667 1.2267 0 1.9733 0.74667 0.74667 0.74667 0.74667 1.9733v14.4q1.8667-2.2933 4.5333-3.5733 2.6667-1.28 5.76-1.28zm-1.0667 24.8q2.6667 0 4.8-1.28 2.1867-1.3333 3.4133-3.6267 1.28-2.2933 1.28-5.12 0-2.8267-1.28-5.0667-1.2267-2.2933-3.4133-3.5733-2.1333-1.3333-4.8-1.3333-2.6667 0-4.8533 1.3333-2.1333 1.28-3.36 3.5733-1.2267 2.24-1.2267 5.0667 0 2.8267 1.2267 5.12 1.2267 2.2933 3.36 3.6267 2.1867 1.28 4.8533 1.28z"/><path d="m242.27 350.63q0 1.0133-0.69333 1.7067-0.69334 0.64-1.76 0.64h-20.267q0.58667 3.7333 3.36 6.0267 2.8267 2.2933 6.88 2.2933 1.6 0 3.3067-0.58666 1.76-0.58667 2.88-1.44 0.74667-0.58667 1.76-0.58667t1.6 0.53333q0.96 0.8 0.96 1.8133 0 0.96-0.85334 1.6-1.8133 1.44-4.5333 2.3467-2.6667 0.90667-5.12 0.90667-4.3733 0-7.84-1.8667-3.4667-1.92-5.44-5.28-1.92-3.36-1.92-7.6267 0-4.2667 1.8133-7.6267 1.8667-3.4133 5.12-5.28 3.3067-1.92 7.4667-1.92 4.1067 0 7.0933 1.8133 2.9867 1.8133 4.5867 5.0667t1.6 7.4667zm-13.28-9.76q-3.8933 0-6.3467 2.1333-2.4 2.1333-3.04 5.7067h17.76q-0.48-3.5733-2.6667-5.7067t-5.7067-2.1333z"/><path d="m268.13 365.67q-1.1733 0-1.9733-0.8t-0.8-1.9733v-36.107q0-1.2267 0.8-1.9733 0.8-0.8 1.9733-0.8h9.6533q6.0267 0 10.72 2.6667 4.6933 2.6667 7.3067 7.4133 2.6133 4.6933 2.6133 10.72 0 6.0267-2.6133 10.773t-7.3067 7.4133q-4.6933 2.6667-10.72 2.6667zm9.6533-4.9067q4.4267 0 7.8933-2.0267 3.52-2.0267 5.44-5.6533 1.9733-3.68 1.9733-8.2667 0-4.5867-1.9733-8.2133-1.92-3.6267-5.44-5.6533-3.4667-2.0267-7.8933-2.0267h-6.88v31.84z"/><path d="m319.81 365.88q-4.2667 0-7.6267-1.8667-3.36-1.92-5.2267-5.28-1.8667-3.36-1.8667-7.6267 0-4.32 1.8667-7.68 1.8667-3.36 5.2267-5.2267 3.36-1.92 7.6267-1.92 4.2133 0 7.52 1.92 3.36 1.8667 5.2267 5.2267 1.92 3.36 1.92 7.68 0 4.2667-1.8667 7.6267-1.8667 3.36-5.2267 5.28-3.3067 1.8667-7.5733 1.8667zm0-4.8q2.72 0 4.8533-1.28 2.1867-1.28 3.36-3.52 1.2267-2.2933 1.2267-5.1733t-1.2267-5.1733q-1.1733-2.2933-3.36-3.5733-2.1333-1.28-4.8533-1.28t-4.9067 1.28q-2.1333 1.28-3.36 3.5733-1.2267 2.2933-1.2267 5.1733t1.2267 5.1733q1.2267 2.24 3.36 3.52 2.1867 1.28 4.9067 1.28z"/><path d="m371.97 336.49q1.12 0 1.6533 0.58666 0.58667 0.58667 0.58667 1.6 0 0.85334-0.26667 1.5467l-7.8933 23.68q-0.26666 0.74667-0.96 1.28-0.69333 0.48-1.5467 0.48-0.90667 0-1.6533-0.48-0.69334-0.53333-0.90667-1.28l-5.2267-19.36-5.4933 19.36q-0.26667 0.74667-1.0133 1.28-0.69333 0.48-1.5467 0.48-0.85334 0-1.6-0.48-0.69333-0.53333-0.96-1.28l-7.8933-23.68q-0.21333-0.69333-0.21333-1.4933 0-2.24 2.24-2.24 1.0133 0 1.6533 0.58666 0.69333 0.58667 1.12 1.8667l5.76 17.973 5.44-18.4q0.26667-0.90666 0.90667-1.44 0.69333-0.58666 1.76-0.58666 1.0133 0 1.6533 0.58666 0.69333 0.53334 0.96 1.44l4.8 18.773 5.8667-18.347q0.74666-2.4533 2.7733-2.4533z"/><path d="m394.32 336.23q3.68 0 6.6133 1.6t4.5867 4.6933q1.6533 3.04 1.6533 7.36v13.12q0 1.1733-0.8 1.9733-0.74667 0.74667-1.92 0.74667-1.1733 0-1.9733-0.74667-0.74666-0.8-0.74666-1.9733v-13.12q0-4.32-2.3467-6.5067-2.2933-2.24-6.1333-2.24-2.24 0-4.1067 0.90667-1.8133 0.90667-2.88 2.4533-1.0133 1.5467-1.0133 3.4667v15.04q0 1.1733-0.74667 1.9733-0.74666 0.74667-1.9733 0.74667-1.1733 0-1.9733-0.74667-0.74667-0.8-0.74667-1.9733v-23.787q0-1.2267 0.74667-1.9733 0.8-0.74666 1.9733-0.74666 1.2267 0 1.9733 0.74666 0.74667 0.74667 0.74667 1.9733v0.58666q1.7067-1.7067 4.0533-2.6133 2.3467-0.96 5.0133-0.96z"/><path d="m423.12 365.67q-2.2933 0-4.16-1.2267-1.8133-1.28-2.8267-3.52-1.0133-2.2933-1.0133-5.12v-29.12q0-1.1733 0.74666-1.92 0.74667-0.74667 1.92-0.74667t1.92 0.74667 0.74667 1.92v29.12q0 1.9733 0.74666 3.2533 0.74667 1.28 1.92 1.28h1.3333q1.0667 0 1.7067 0.74667 0.69333 0.74667 0.69333 1.92t-1.0133 1.92q-1.0133 0.74666-2.6133 0.74666z"/><path d="m443.81 365.88q-4.2667 0-7.6267-1.8667-3.36-1.92-5.2267-5.28-1.8667-3.36-1.8667-7.6267 0-4.32 1.8667-7.68 1.8667-3.36 5.2267-5.2267 3.36-1.92 7.6267-1.92 4.2133 0 7.52 1.92 3.36 1.8667 5.2267 5.2267 1.92 3.36 1.92 7.68 0 4.2667-1.8667 7.6267-1.8667 3.36-5.2267 5.28-3.3067 1.8667-7.5733 1.8667zm0-4.8q2.72 0 4.8533-1.28 2.1867-1.28 3.36-3.52 1.2267-2.2933 1.2267-5.1733t-1.2267-5.1733q-1.1733-2.2933-3.36-3.5733-2.1333-1.28-4.8533-1.28t-4.9067 1.28q-2.1333 1.28-3.36 3.5733-1.2267 2.2933-1.2267 5.1733t1.2267 5.1733q1.2267 2.24 3.36 3.52 2.1867 1.28 4.9067 1.28z"/><path d="m479.81 336.28q4.1067 0 7.4133 1.9733 3.36 1.92 5.28 5.3333 1.9733 3.36 1.9733 7.52v11.893q0 1.1733-0.8 1.9733-0.74667 0.74667-1.92 0.74667t-1.9733-0.74667q-0.74667-0.8-0.74667-1.9733v-1.9733q-1.8667 2.2933-4.5333 3.5733-2.6667 1.28-5.76 1.28-3.84 0-6.9867-1.92-3.0933-1.92-4.9067-5.28-1.76-3.4133-1.76-7.5733t1.92-7.52q1.92-3.4133 5.28-5.3333 3.4133-1.9733 7.52-1.9733zm0 24.8q2.6667 0 4.8-1.28 2.1867-1.3333 3.4133-3.5733 1.2267-2.2933 1.2267-5.12 0-2.8267-1.2267-5.12-1.2267-2.2933-3.4133-3.5733-2.1333-1.3333-4.8-1.3333-2.6667 0-4.8533 1.3333-2.1333 1.28-3.4133 3.5733-1.2267 2.2933-1.2267 5.12 0 2.8267 1.2267 5.12 1.28 2.24 3.4133 3.5733 2.1867 1.28 4.8533 1.28z"/><path d="m527.76 324.01q1.2267 0 1.9733 0.74667 0.74667 0.74667 0.74667 1.9733v24.32q0 4.16-1.9733 7.5733-1.92 3.36-5.28 5.3333-3.3067 1.92-7.4133 1.92-4.1067 0-7.52-1.92-3.36-1.9733-5.28-5.3333-1.92-3.4133-1.92-7.5733t1.76-7.52q1.8133-3.4133 4.9067-5.3333 3.1467-1.92 6.9867-1.92 3.0933 0 5.76 1.28 2.6667 1.28 4.5333 3.5733v-14.4q0-1.2267 0.74667-1.9733 0.8-0.74667 1.9733-0.74667zm-11.947 37.067q2.6667 0 4.8-1.28 2.1867-1.3333 3.4133-3.6267 1.2267-2.2933 1.2267-5.12 0-2.8267-1.2267-5.0667-1.2267-2.2933-3.4133-3.5733-2.1333-1.3333-4.8-1.3333-2.6667 0-4.8533 1.3333-2.1333 1.28-3.4133 3.5733-1.2267 2.24-1.2267 5.0667 0 2.8267 1.2267 5.12 1.28 2.2933 3.4133 3.6267 2.1867 1.28 4.8533 1.28z"/></g></g></svg>
