<?xml version="1.0" encoding="UTF-8"?>
<!-- Created with Inkscape (http://www.inkscape.org/) -->
<svg id="SVGRoot" width="720px" height="576px" version="1.1" viewBox="0 0 720 576" xml:space="preserve" xmlns="http://www.w3.org/2000/svg"><defs><filter id="filter1524" x="-.087909" y="-.1239" width="1.1758" height="1.2478" color-interpolation-filters="sRGB"><feFlood flood-color="rgb(56,56,56)" flood-opacity=".49804" result="flood"/><feComposite in="flood" in2="SourceGraphic" operator="in" result="composite1"/><feGaussianBlur in="composite1" result="blur" stdDeviation="21.9436"/><feOffset dx="0" dy="0" result="offset"/><feComposite in="SourceGraphic" in2="offset" result="composite2"/></filter></defs><rect x=".89597" y=".89597" width="718.21" height="574.21" fill="#e3e8fe"/><rect x="60.46" y="75.477" width="599.08" height="425.05" ry="45.182" fill="#fff" filter="url(#filter1524)" stroke-width="0"/><rect x="90.129" y="96.532" width="539.73" height="382.94" ry="40.706" fill="none" stroke="#6d6d6d" stroke-dasharray="14.11201955, 14.11201955" stroke-linecap="round" stroke-linejoin="round" stroke-width="2.352" style="paint-order:normal"/><g transform="matrix(1.387 0 0 1.387 -17.262 49.028)"><path d="m196.73 91.697c-21.898 0-39.527 17.627-39.527 39.525v82.143c0 21.898 17.629 39.527 39.527 39.527h150.54c21.898 0 39.527-17.629 39.527-39.527v-82.143c0-21.898-17.629-39.525-39.527-39.525zm50.053 44.494 66.457 39.166-67.148 37.971z" fill="#f00" stroke-linecap="round" stroke-linejoin="round" stroke-width="7.4813" style="paint-order:stroke fill markers"/></g></svg>
